<?xml version="1.0" encoding="utf-8"?>
<!-- Generator: Adobe Illustrator 23.0.1, SVG Export Plug-In . SVG Version: 6.00 Build 0)  -->
<svg version="1.1" xmlns="http://www.w3.org/2000/svg" xmlns:xlink="http://www.w3.org/1999/xlink" x="0px" y="0px"
	 viewBox="0 0 548.8 235.5" style="enable-background:new 0 0 548.8 235.5;" xml:space="preserve">
<style type="text/css">
	.st0{fill:#865FC5;}
	.st1{fill:#505050;}
	.st2{fill:#FFFFFF;}
	.st3{fill:#59B4D9;}
	.st4{fill:#68217A;}
	.st5{fill:#7A7A7A;}
	.st6{opacity:0.65;fill:#FFFFFF;enable-background:new    ;}
	.st7{opacity:0.15;fill:#FFFFFF;enable-background:new    ;}
	.st8{display:none;}
	.st9{display:inline;}
	.st10{fill:#556A8A;}
	.st11{opacity:0.2;fill:#FFFFFF;enable-background:new    ;}
	.st12{fill:none;stroke:#000000;stroke-miterlimit:10;}
	.st13{fill:#0078D4;}
	.st14{fill:none;}
	.st15{enable-background:new    ;}
	.st16{fill:#1E1E1E;}
</style>
<symbol  id="a" viewBox="-20 -20 40 40">
	<path class="st0" d="M10.2,20L-6.1,3.8l-9.8,7.4L-20,9.9V-9.9l4.1-1.4l9.8,7.4L10.2-20l9.8,4.2v31.7L10.2,20z M-15.9-5.9V5.9l6-5.9
		L-15.9-5.9z M10.2-8.5L-1,0l11.2,8.5C10.2,8.5,10.2-8.5,10.2-8.5z"/>
</symbol>
<symbol  id="a_2" viewBox="-20 -20 40 40">
	<path class="st0" d="M10.2,20L-6.1,3.8l-9.8,7.4L-20,9.9V-9.9l4.1-1.4l9.8,7.4L10.2-20l9.8,4.2v31.7L10.2,20z M-15.9-5.9V5.9l6-5.9
		L-15.9-5.9z M10.2-8.5L-1,0l11.2,8.5V-8.5z"/>
</symbol>
<symbol  id="b" viewBox="-10 -10 20 20">
	<circle class="st1" cx="0" cy="0" r="10"/>
	<path class="st2" d="M2.9-1.7c0-0.4-0.1-0.8-0.2-1.2S2.4-3.5,2.1-3.8S1.6-4.2,1.2-4.4S0.5-4.6,0.1-4.6c-0.4,0-0.8,0.1-1.2,0.3
		s-0.7,0.4-0.9,0.7s-0.5,0.7-0.6,1.2s-0.2,1-0.2,1.7c0,0.8,0.1,1.5,0.3,2.1S-2,2.5-1.7,2.9S-1,3.6-0.6,3.8C-0.1,4,0.3,4.1,0.9,4.1
		c0.3,0,0.6,0,0.9-0.1S2.2,4,2.3,3.9V2.7C2.1,2.8,1.9,2.8,1.7,2.9S1.2,3,0.9,3C0.6,3,0.3,2.9,0,2.8s-0.5-0.3-0.7-0.6s-0.4-0.6-0.5-1
		S-1.3,0.5-1.3,0h0c0.2,0.3,0.4,0.5,0.7,0.7s0.7,0.2,1.1,0.2c0.4,0,0.7-0.1,1-0.2S2,0.4,2.2,0.2s0.4-0.5,0.5-0.8S2.9-1.3,2.9-1.7z
		 M1.5-1.8c0,0.2,0,0.5-0.1,0.7S1.3-0.8,1.2-0.7S0.9-0.4,0.7-0.3S0.4-0.2,0.1-0.2s-0.4,0-0.6-0.1s-0.3-0.2-0.4-0.3S-1.1-1-1.2-1.2
		s-0.1-0.4-0.1-0.5c0-0.2,0-0.4,0.1-0.6S-1.1-2.7-1-2.9s0.3-0.3,0.4-0.4s0.4-0.2,0.6-0.2c0.2,0,0.4,0,0.6,0.1S1-3.1,1.2-3
		s0.2,0.3,0.3,0.5S1.5-2.1,1.5-1.8z"/>
</symbol>
<symbol  id="b_2" viewBox="-10 -10 20 20">
	<circle class="st1" cx="0" cy="0" r="10"/>
	<path class="st2" d="M2.9-1.7c0-0.4-0.1-0.8-0.2-1.2S2.4-3.5,2.1-3.8S1.6-4.2,1.2-4.4S0.5-4.6,0.1-4.6s-0.8,0.1-1.2,0.3
		S-1.8-3.9-2-3.6s-0.5,0.7-0.6,1.2s-0.2,1-0.2,1.7c0,0.8,0.1,1.5,0.3,2.1S-2,2.5-1.7,2.9S-1,3.6-0.6,3.8C-0.1,4,0.3,4.1,0.9,4.1
		c0.3,0,0.6,0,0.9-0.1s0.4,0,0.5-0.1V2.7C2.1,2.8,1.9,2.8,1.7,2.9S1.2,3,0.9,3S0.3,2.9,0,2.8s-0.5-0.3-0.7-0.6s-0.4-0.6-0.5-1
		S-1.3,0.5-1.3,0l0,0c0.2,0.3,0.4,0.5,0.7,0.7s0.7,0.2,1.1,0.2s0.7-0.1,1-0.2S2,0.4,2.2,0.2s0.4-0.5,0.5-0.8S2.9-1.3,2.9-1.7z
		 M1.5-1.8c0,0.2,0,0.5-0.1,0.7S1.3-0.8,1.2-0.7S0.9-0.4,0.7-0.3S0.4-0.2,0.1-0.2s-0.4,0-0.6-0.1s-0.3-0.2-0.4-0.3S-1.1-1-1.2-1.2
		s-0.1-0.4-0.1-0.5c0-0.2,0-0.4,0.1-0.6S-1.1-2.7-1-2.9s0.3-0.3,0.4-0.4S-0.2-3.5,0-3.5s0.4,0,0.6,0.1S1-3.1,1.2-3s0.2,0.3,0.3,0.5
		S1.5-2.1,1.5-1.8z"/>
</symbol>
<symbol  id="c" viewBox="-10 -10 20 20">
	<circle class="st1" cx="0" cy="0" r="10"/>
	<path class="st2" d="M2.8,3.3C2.5,2.7,2.1,2,1.8,1.4S1.2,0.1,1-0.5S0.5-1.8,0.3-2.4S0-3.8-0.1-4.4h-1.4c0.1,0.6,0.2,1.2,0.4,1.8
		s0.4,1.2,0.6,1.8S0,0.4,0.3,1s0.6,1.2,0.9,1.8h-4V4h5.6C2.8,4,2.8,3.3,2.8,3.3z"/>
</symbol>
<symbol  id="c_2" viewBox="-10 -10 20 20">
	<circle class="st1" cx="0" cy="0" r="10"/>
	<path class="st2" d="M2.8,3.3C2.5,2.7,2.1,2,1.8,1.4S1.2,0.1,1-0.5S0.5-1.8,0.3-2.4S0-3.8-0.1-4.4h-1.4c0.1,0.6,0.2,1.2,0.4,1.8
		s0.4,1.2,0.6,1.8S0,0.4,0.3,1s0.6,1.2,0.9,1.8h-4V4h5.6V3.3z"/>
</symbol>
<symbol  id="d" viewBox="-10 -10 20 20">
	<circle class="st1" cx="0" cy="0" r="10"/>
	<path class="st2" d="M1.2,4.2v-8.6h-1.4v6.9C-0.4,2.3-0.7,2.2-1,2s-0.6-0.2-1-0.3v1.2C-1.7,2.9-1.5,3-1.3,3.1s0.4,0.2,0.6,0.3
		S-0.2,3.6,0,3.7S0.4,4,0.6,4.2H1.2z"/>
</symbol>
<symbol  id="d_2" viewBox="-10 -10 20 20">
	<circle class="st1" cx="0" cy="0" r="10"/>
	<path class="st2" d="M1.2,4.2v-8.6h-1.4v6.9C-0.4,2.3-0.7,2.2-1,2s-0.6-0.2-1-0.3v1.2c0.3,0,0.5,0.1,0.7,0.2s0.4,0.2,0.6,0.3
		S-0.2,3.6,0,3.7S0.4,4,0.6,4.2H1.2z"/>
</symbol>
<symbol  id="e" viewBox="-10 -10 20 20">
	<circle class="st1" cx="0" cy="0" r="10"/>
	<path class="st2" d="M2.5-4.4h-5.3v0.7c0,0.3,0,0.5,0.1,0.8s0.2,0.5,0.3,0.7S-2.1-2-1.9-1.8s0.4,0.4,0.5,0.5S-1-0.9-0.8-0.8
		s0.4,0.3,0.6,0.5C0-0.1,0.1,0,0.3,0.2s0.3,0.3,0.4,0.5s0.2,0.3,0.3,0.5S1,1.5,1,1.7c0,0.2,0,0.4-0.1,0.6S0.8,2.6,0.6,2.7
		S0.4,2.9,0.2,2.9S-0.2,3-0.4,3c-0.3,0-0.7-0.1-1-0.2s-0.7-0.4-1-0.7v1.3c0.2,0.1,0.3,0.2,0.5,0.3s0.4,0.2,0.5,0.2S-1,4-0.8,4.1
		s0.4,0.1,0.7,0.1c0.4,0,0.7-0.1,1-0.2s0.6-0.3,0.8-0.4s0.4-0.4,0.5-0.7s0.2-0.6,0.2-1c0-0.3,0-0.6-0.1-0.9S2.1,0.4,1.9,0.1
		S1.6-0.3,1.3-0.5S0.9-1,0.6-1.2C0.4-1.4,0.2-1.6-0.1-1.7s-0.4-0.3-0.6-0.5S-1-2.6-1.1-2.7s-0.2-0.3-0.2-0.5v0h3.8L2.5-4.4L2.5-4.4z
		"/>
</symbol>
<symbol  id="e_2" viewBox="-10 -10 20 20">
	<circle class="st1" cx="0" cy="0" r="10"/>
	<path class="st2" d="M2.5-4.4h-5.3v0.7c0,0.3,0,0.5,0.1,0.8s0.2,0.5,0.3,0.7S-2.1-2-1.9-1.8s0.4,0.4,0.5,0.5S-1-0.9-0.8-0.8
		s0.4,0.3,0.6,0.5S0.1,0,0.3,0.2s0.3,0.3,0.4,0.5S0.9,1,1,1.2s0,0.3,0,0.5s0,0.4-0.1,0.6S0.8,2.6,0.6,2.7S0.4,2.9,0.2,2.9
		S-0.2,3-0.4,3c-0.3,0-0.7-0.1-1-0.2s-0.7-0.4-1-0.7v1.3c0.2,0.1,0.3,0.2,0.5,0.3s0.4,0.2,0.5,0.2S-1,4-0.8,4.1s0.4,0.1,0.7,0.1
		c0.4,0,0.7-0.1,1-0.2s0.6-0.3,0.8-0.4s0.4-0.4,0.5-0.7s0.2-0.6,0.2-1c0-0.3,0-0.6-0.1-0.9S2.1,0.4,1.9,0.1S1.6-0.3,1.3-0.5
		S0.9-1,0.6-1.2C0.4-1.4,0.2-1.6-0.1-1.7S-0.5-2-0.7-2.2S-1-2.6-1.1-2.7S-1.3-3-1.3-3.2l0,0h3.8V-4.4L2.5-4.4z"/>
</symbol>
<symbol  id="f" viewBox="-10 -10 20 20">
	<circle class="st1" cx="0" cy="0" r="10"/>
	<path class="st2" d="M-2.6-4.1v1.3c0.5-0.4,1.2-0.7,1.9-0.6c0.6,0,1,0.1,1.3,0.4s0.5,0.6,0.5,1c0,1-0.7,1.4-2.2,1.4h-0.6v1.1h0.6
		c1.3,0,1.9,0.4,1.9,1.3C0.8,2.6,0.3,3-0.7,3c-0.6,0-1.1-0.2-1.6-0.6v1.2c0.6,0.3,1.2,0.5,2,0.5c0.8,0,1.3-0.2,1.8-0.6
		s0.7-0.9,0.7-1.5C2.2,1,1.6,0.3,0.5,0v0c0.6-0.1,1.1-0.3,1.4-0.6S2.5-1.5,2.5-2c0-0.8-0.3-1.4-0.9-1.8S0.3-4.6-0.6-4.6
		C-1.5-4.6-2.1-4.4-2.6-4.1z"/>
</symbol>
<symbol  id="f_2" viewBox="-10 -10 20 20">
	<circle class="st1" cx="0" cy="0" r="10"/>
	<path class="st2" d="M-2.6-4.1v1.3c0.5-0.4,1.2-0.7,1.9-0.6c0.6,0,1,0.1,1.3,0.4s0.5,0.6,0.5,1c0,1-0.7,1.4-2.2,1.4h-0.6v1.1h0.6
		c1.3,0,1.9,0.4,1.9,1.3C0.8,2.6,0.3,3-0.7,3c-0.6,0-1.1-0.2-1.6-0.6v1.2c0.6,0.3,1.2,0.5,2,0.5S1,3.9,1.5,3.5S2.2,2.6,2.2,2
		c0-1-0.6-1.7-1.7-2l0,0c0.6-0.1,1.1-0.3,1.4-0.6S2.5-1.5,2.5-2c0-0.8-0.3-1.4-0.9-1.8S0.3-4.6-0.6-4.6S-2.1-4.4-2.6-4.1z"/>
</symbol>
<symbol  id="g" viewBox="-10 -10 20 20">
	<circle class="st1" cx="0" cy="0" r="10"/>
	<path class="st2" d="M2,4v-5.4h1.3v-1.1H2v-1.8H0.6v1.8h-3.8v1.1c0.3,0.4,0.7,0.8,1.1,1.3s0.7,0.9,1,1.4s0.6,0.9,0.9,1.4
		S0.4,3.5,0.6,4L2,4z M0.6-1.5v3.5c-0.4-0.8-0.8-1.4-1.3-2S-1.4-1-1.8-1.4L0.6-1.5L0.6-1.5z"/>
</symbol>
<symbol  id="g_2" viewBox="-10 -10 20 20">
	<circle class="st1" cx="0" cy="0" r="10"/>
	<path class="st2" d="M2,4v-5.4h1.3v-1.1H2v-1.8H0.6v1.8h-3.8v1.1C-2.9-1-2.5-0.6-2.1-0.1s0.7,0.9,1,1.4s0.6,0.9,0.9,1.4
		S0.4,3.5,0.6,4H2z M0.6-1.5V2C0.2,1.2-0.2,0.6-0.7,0s-0.7-1-1.1-1.4L0.6-1.5L0.6-1.5z"/>
</symbol>
<symbol  id="h" viewBox="-10 -10 20 20">
	<circle class="st1" cx="0" cy="0" r="10"/>
	<path class="st2" d="M-2.4-4.2v1.3c0.5-0.4,1.1-0.6,1.7-0.6s1,0.2,1.4,0.4s0.5,0.7,0.5,1.2S1-1,0.6-0.8s-0.9,0.4-1.5,0.4
		c-0.2,0-0.7,0-1.4-0.1L-2,4h4.1V2.8h-3L-1,0.7c0.3,0,0.5,0,0.7,0c0.9,0,1.6-0.2,2.1-0.7S2.6-1,2.6-1.8c0-0.8-0.3-1.5-0.8-2
		S0.4-4.6-0.6-4.6C-1.4-4.6-2-4.5-2.4-4.2z"/>
</symbol>
<symbol  id="h_2" viewBox="-10 -10 20 20">
	<circle class="st1" cx="0" cy="0" r="10"/>
	<path class="st2" d="M-2.4-4.2v1.3c0.5-0.4,1.1-0.6,1.7-0.6s1,0.2,1.4,0.4s0.5,0.7,0.5,1.2S1-1,0.6-0.8s-0.9,0.4-1.5,0.4
		c-0.2,0-0.7,0-1.4-0.1L-2,4h4.1V2.8h-3L-1,0.7c0.3,0,0.5,0,0.7,0c0.9,0,1.6-0.2,2.1-0.7s0.8-1,0.8-1.8s-0.3-1.5-0.8-2
		S0.4-4.6-0.6-4.6C-1.4-4.6-2-4.5-2.4-4.2z"/>
</symbol>
<symbol  id="i" viewBox="-10 -10 20 20">
	<circle class="st1" cx="0" cy="0" r="10"/>
	<path class="st2" d="M-2.8-2.1c0,0.2,0,0.5,0.1,0.7s0.2,0.4,0.3,0.6S-2.2-0.4-2-0.2s0.4,0.3,0.6,0.4C-1.7,0.3-2,0.6-2.2,0.9
		S-2.5,1.6-2.5,2c0,0.3,0.1,0.6,0.2,0.9S-2,3.3-1.8,3.5S-1.3,3.8-1,4s0.6,0.2,1,0.2S0.7,4.1,1,4s0.6-0.3,0.8-0.5s0.4-0.4,0.5-0.7
		S2.5,2.3,2.5,2c0-0.4-0.1-0.7-0.3-1.1S1.7,0.3,1.3,0.1C1.6,0,1.8-0.1,2-0.2s0.3-0.3,0.5-0.5s0.2-0.4,0.3-0.6s0.1-0.5,0.1-0.7
		c0-0.4-0.1-0.7-0.2-1S2.3-3.7,2-3.9C1.8-4.1,1.5-4.3,1.1-4.4S0.4-4.6,0-4.6c-0.4,0-0.8,0.1-1.1,0.2S-1.8-4.1-2-3.9
		s-0.4,0.5-0.6,0.8S-2.8-2.5-2.8-2.1z M-1.5-2c0-0.2,0-0.4,0.1-0.6S-1.2-3-1.1-3.1s0.3-0.2,0.5-0.3c0.4-0.1,0.8-0.1,1.2,0
		c0.2,0.1,0.3,0.2,0.5,0.3s0.2,0.3,0.3,0.5S1.5-2.2,1.5-2c0,0.2,0,0.4-0.1,0.6S1.2-1,1.1-0.8S0.8-0.6,0.6-0.5S0.2-0.4,0-0.4
		c-0.2,0-0.4,0-0.6-0.1s-0.3-0.2-0.5-0.3s-0.2-0.3-0.3-0.5S-1.5-1.7-1.5-2z M-1.2,1.8c0-0.2,0-0.3,0.1-0.5S-0.9,1.1-0.8,1
		s0.2-0.2,0.4-0.3S-0.2,0.6,0,0.6s0.3,0,0.5,0.1S0.7,0.9,0.8,1S1,1.2,1.1,1.4s0.1,0.3,0.1,0.5c0,0.2,0,0.3-0.1,0.5S0.9,2.6,0.8,2.7
		S0.6,2.9,0.5,3S0.2,3.1,0,3.1c-0.2,0-0.3,0-0.5-0.1s-0.3-0.1-0.4-0.3S-1,2.5-1.1,2.3S-1.2,2-1.2,1.8z"/>
</symbol>
<symbol  id="i_2" viewBox="-10 -10 20 20">
	<circle class="st1" cx="0" cy="0" r="10"/>
	<path class="st2" d="M-2.8-2.1c0,0.2,0,0.5,0.1,0.7S-2.5-1-2.4-0.8S-2.2-0.4-2-0.2s0.4,0.3,0.6,0.4C-1.7,0.3-2,0.6-2.2,0.9
		S-2.5,1.6-2.5,2c0,0.3,0.1,0.6,0.2,0.9S-2,3.3-1.8,3.5S-1.3,3.8-1,4c0.3,0.2,0.6,0.2,1,0.2S0.7,4.1,1,4s0.6-0.3,0.8-0.5
		s0.4-0.4,0.5-0.7S2.5,2.3,2.5,2c0-0.4-0.1-0.7-0.3-1.1S1.7,0.3,1.3,0.1C1.6,0,1.8-0.1,2-0.2s0.3-0.3,0.5-0.5s0.2-0.4,0.3-0.6
		S2.9-1.8,2.9-2c0-0.4-0.1-0.7-0.2-1S2.3-3.7,2-3.9C1.8-4.1,1.5-4.3,1.1-4.4S0.4-4.6,0-4.6s-0.8,0.1-1.1,0.2S-1.8-4.1-2-3.9
		s-0.4,0.5-0.6,0.8S-2.8-2.5-2.8-2.1z M-1.5-2c0-0.2,0-0.4,0.1-0.6S-1.2-3-1.1-3.1s0.3-0.2,0.5-0.3c0.4-0.1,0.8-0.1,1.2,0
		c0.2,0.1,0.3,0.2,0.5,0.3s0.2,0.3,0.3,0.5S1.5-2.2,1.5-2s0,0.4-0.1,0.6S1.2-1,1.1-0.8S0.8-0.6,0.6-0.5S0.2-0.4,0-0.4
		s-0.4,0-0.6-0.1s-0.3-0.2-0.5-0.3s-0.2-0.3-0.3-0.5S-1.5-1.7-1.5-2z M-1.2,1.8c0-0.2,0-0.3,0.1-0.5S-0.9,1.1-0.8,1s0.2-0.2,0.4-0.3
		S-0.2,0.6,0,0.6s0.3,0,0.5,0.1S0.7,0.9,0.8,1S1,1.2,1.1,1.4s0.1,0.3,0.1,0.5s0,0.3-0.1,0.5S0.9,2.6,0.8,2.7S0.6,2.9,0.5,3
		S0.2,3.1,0,3.1s-0.3,0-0.5-0.1s-0.3-0.1-0.4-0.3S-1,2.5-1.1,2.3S-1.2,2-1.2,1.8z"/>
</symbol>
<symbol  id="j" viewBox="-16 -16 32 32">
	<path class="st3" d="M9.7-12.7C6.8-14.9,3.4-16,0-16c-4.8,0-9.6,2.2-12.7,6.3c-5.4,7-4,17,3,22.4C-6.9,14.8-3.5,16,0,16
		c4.8,0,9.6-2.2,12.7-6.3C18.1,2.7,16.7-7.3,9.7-12.7"/>
	<path class="st2" d="M6.8-2.8c1.2-1.5,3.3-1.8,4.8-0.6c0,0,0,0,0,0c0.1,0.1,0.1,0.1,0.2,0.2c1.5-1.1,2.6-1.8,3.2-2.2
		c0.2,0.5,0.3,0.9,0.4,1.4C14.8-3.6,14-3,12.7-1.9c0.4,1.1,0.3,2.3-0.5,3.3c-1.1,1.4-2.9,1.7-4.4,0.9c-1.6,1.5-3.4,3.1-5.3,5
		c5.9,3.1,10,2.7,10,2.7c-0.7,0.9-1.5,1.7-2.3,2.4c-2.5,0.4-6.3,0.3-10.7-2c-1.5,1.5-3,3.2-4.5,4.9c-0.7-0.2-1.4-0.5-2.1-0.9
		c1.1-1.8,2.6-3.7,4.3-5.5l0,0c-1.4-1-3-2.3-4.4-3.8c-0.2-0.2-0.4-0.4-0.5-0.6c-0.9,0.2-1.8,0.1-2.6-0.2c-1.4,3.1-1.3,5.6-1.1,6.9
		c-0.6-0.7-1.2-1.4-1.7-2.1c-0.4-1.5-0.5-3.8,0.6-6.5c-1.3-1.7-1.3-4.1,0-5.9c0.1-0.2,0.2-0.3,0.4-0.4c-0.6-2-0.9-3.9-0.9-5.6
		c0.1-0.2,0.1-0.4,0.3-0.6c0.8-1,1.7-1.8,2.7-2.6c-0.1,1.8,0,4.4,1.1,7.3C-8.3-5.1-7.5-5-6.8-4.7C-6.4-5.1-6-5.4-5.5-5.8
		C-4-7.1-2.4-8-0.9-8.8c-0.1-0.8,0.1-1.6,0.6-2.3c1.1-1.4,3.1-1.7,4.5-0.6c0.3,0.2,0.5,0.5,0.7,0.8c2.5-0.6,4.7-0.6,6.3-0.6
		c0.3,0,1.4,1.6,2.1,2.5c-1-0.2-3.9-0.6-7.9,0.5C5.3-8,5.1-7.6,4.8-7.2c-1,1.3-2.9,1.6-4.2,0.7c-1.4,0.8-2.8,1.7-4.3,2.9
		c-0.3,0.2-0.6,0.5-0.9,0.7c0.9,1.4,1,3.3,0.2,4.8c0.2,0.2,0.4,0.4,0.6,0.5C-2.4,3.9-1,5,0.3,5.9L0.1,6C0.2,6,0.2,6,0.3,5.9
		c2-1.8,4.1-3.6,6.1-5.2C5.9-0.4,6-1.8,6.8-2.8z"/>
</symbol>
<symbol  id="j_2" viewBox="-16 -16 32 32">
	<path class="st3" d="M9.7-12.7C6.8-14.9,3.4-16,0-16c-4.8,0-9.6,2.2-12.7,6.3c-5.4,7-4,17,3,22.4C-6.9,14.8-3.5,16,0,16
		c4.8,0,9.6-2.2,12.7-6.3C18.1,2.7,16.7-7.3,9.7-12.7"/>
	<path class="st2" d="M6.8-2.8c1.2-1.5,3.3-1.8,4.8-0.6l0,0c0.1,0.1,0.1,0.1,0.2,0.2C13.3-4.3,14.4-5,15-5.4
		c0.2,0.5,0.3,0.9,0.4,1.4c-0.6,0.4-1.4,1-2.7,2.1c0.4,1.1,0.3,2.3-0.5,3.3c-1.1,1.4-2.9,1.7-4.4,0.9c-1.6,1.5-3.4,3.1-5.3,5
		c5.9,3.1,10,2.7,10,2.7c-0.7,0.9-1.5,1.7-2.3,2.4c-2.5,0.4-6.3,0.3-10.7-2c-1.5,1.5-3,3.2-4.5,4.9c-0.7-0.2-1.4-0.5-2.1-0.9
		c1.1-1.8,2.6-3.7,4.3-5.5l0,0c-1.4-1-3-2.3-4.4-3.8c-0.2-0.2-0.4-0.4-0.5-0.6c-0.9,0.2-1.8,0.1-2.6-0.2c-1.4,3.1-1.3,5.6-1.1,6.9
		c-0.6-0.7-1.2-1.4-1.7-2.1c-0.4-1.5-0.5-3.8,0.6-6.5c-1.3-1.7-1.3-4.1,0-5.9c0.1-0.2,0.2-0.3,0.4-0.4c-0.6-2-0.9-3.9-0.9-5.6
		c0.1-0.2,0.1-0.4,0.3-0.6c0.8-1,1.7-1.8,2.7-2.6c-0.1,1.8,0,4.4,1.1,7.3C-8.3-5.1-7.5-5-6.8-4.7C-6.4-5.1-6-5.4-5.5-5.8
		C-4-7.1-2.4-8-0.9-8.8c-0.1-0.8,0.1-1.6,0.6-2.3c1.1-1.4,3.1-1.7,4.5-0.6c0.3,0.2,0.5,0.5,0.7,0.8c2.5-0.6,4.7-0.6,6.3-0.6
		c0.3,0,1.4,1.6,2.1,2.5c-1-0.2-3.9-0.6-7.9,0.5C5.3-8,5.1-7.6,4.8-7.2c-1,1.3-2.9,1.6-4.2,0.7c-1.4,0.8-2.8,1.7-4.3,2.9
		C-4-3.4-4.3-3.1-4.6-2.9c0.9,1.4,1,3.3,0.2,4.8C-4.2,2.1-4,2.3-3.8,2.4C-2.4,3.9-1,5,0.3,5.9L0.1,6c0.1,0,0.1,0,0.2-0.1
		c2-1.8,4.1-3.6,6.1-5.2C5.9-0.4,6-1.8,6.8-2.8z"/>
</symbol>
<symbol  id="k" viewBox="-16.3 -25 32.6 49.9">
	<path class="st4" d="M16.3,10.3v0.3c0,7.7-6.6,14.1-14.7,14.2c-0.2,0.3-4.8-0.1-4.8-0.1c-7.3-0.9-13-7-13-14.1
		c0-0.2-0.8-5.8,4.9-10.5C-8.7-2.2-6-8.4-5.6-10.2l0.3-0.6H5.3l0.3,0.6C6-8.4,8.8-2.2,11.3,0C17,4.8,16.3,10.1,16.3,10.3z"/>
	<path class="st5" d="M-5.1-17.8H5.5v3.4H-5.1V-17.8z M-1.8-25h3.9l3.3,3.5H-5.1L-1.8-25z"/>
	<path class="st6" d="M2.8-10.3h-2V2.4h-1.7v-12.6h-2V2.4h-1.7c-2,0-3.7,1.7-3.7,3.7s1.6,3.7,3.7,3.7s3.7-1.7,3.7-3.7V4.4h1.7v1.7
		c0,2,1.7,3.7,3.7,3.7s3.7-1.7,3.7-3.7S6.5,2.4,4.5,2.4H2.8V-10.3z M-4.6,7.8c-0.9,0-1.7-0.7-1.7-1.7c0-0.9,0.8-1.7,1.7-1.7h1.7v1.7
		C-3,7-3.7,7.8-4.6,7.8z M4.5,7.8C3.6,7.8,2.8,7,2.8,6.1V4.4h1.7c0.9,0,1.7,0.8,1.7,1.7S5.5,7.8,4.5,7.8z"/>
	<path class="st7" d="M1.6,24.8c-0.2,0.3-4.8-0.1-4.8-0.1c-7.3-0.9-13-7-13-14.1c0-0.2-0.7-5.1,3.9-9.6L9.3,22.6
		C7,24,4.4,24.8,1.6,24.8z"/>
</symbol>
<g id="Source" class="st8">
	<g id="shapes_1_" class="st9">
		<g>
			<path class="st10" d="M59,29c0,5.1-4.1,9.2-9.2,9.2s-9.2-4.1-9.2-9.2c0.1-5.1,4.2-9.2,9.2-9.2C54.9,19.8,59,23.8,59,29
				 M56.5,41.5l-6.7,9.4L43,41.5h-9.8v23.3h33V41.5H56.5z"/>
			<path class="st11" d="M40.6,29c0,5,4.1,9.1,9,9.2l2.3-18.1c-0.7-0.3-1.5-0.3-2.2-0.3C44.7,19.8,40.6,23.8,40.6,29 M43,41.5h-9.8
				v23.3h13l2-16L43,41.5z"/>
			
				<use xlink:href="#a_2"  width="40" height="40" x="-20" y="-20" transform="matrix(1 0 0 -1 162.522 41.385)" style="overflow:visible;"/>
			<path class="st12" d="M134.2,40.1H70.1"/>
			<path d="M133.1,36.4l6.5,3.7l-6.5,3.7V36.4z"/>
			<path class="st12" d="M248.2,40.1h-64.1"/>
			<path d="M247.1,36.4l6.5,3.7l-6.5,3.7V36.4z"/>
			<path class="st12" d="M361.6,40.1h-64.1"/>
			<path d="M360.5,36.4l6.5,3.7l-6.5,3.7V36.4z"/>
			<path class="st12" d="M474.7,40.1h-64.1"/>
			<path d="M473.6,36.4l6.5,3.7l-6.5,3.7V36.4z"/>
			<path class="st12" d="M365.6,146.9H185"/>
			<path d="M186.1,143.1l-6.5,3.7l6.5,3.7V143.1z"/>
			<path class="st12" d="M143.5,146.9H72c-5.5,0-10-4.5-10-10V73.6"/>
			<path d="M65.8,74.7L62,68.2l-3.7,6.5H65.8z"/>
			
				<use xlink:href="#b_2"  width="20" height="20" x="-10" y="-10" transform="matrix(1 0 0 -1 272.392 161.244)" style="overflow:visible;"/>
			
				<use xlink:href="#c_2"  width="20" height="20" x="-10" y="-10" transform="matrix(1 0 0 -1 101.803 161.244)" style="overflow:visible;"/>
			<path class="st12" d="M37.3,73.6V168"/>
			<path d="M33.6,74.7l3.7-6.5l3.7,6.5H33.6z M33.6,166.9l3.7,6.5l3.7-6.5H33.6z"/>
			<path class="st12" d="M503,63v73.9c0,5.5-4.5,10-10,10h-76.5"/>
			<path d="M417.6,143.1l-6.5,3.7l6.5,3.7V143.1z"/>
			
				<use xlink:href="#d_2"  width="20" height="20" x="-10" y="-10" transform="matrix(1 0 0 -1 101.803 54.413)" style="overflow:visible;"/>
			
				<use xlink:href="#e_2"  width="20" height="20" x="-10" y="-10" transform="matrix(1 0 0 -1 216.073 54.413)" style="overflow:visible;"/>
			
				<use xlink:href="#f_2"  width="20" height="20" x="-10" y="-10" transform="matrix(1 0 0 -1 330.343 54.413)" style="overflow:visible;"/>
			
				<use xlink:href="#g_2"  width="20" height="20" x="-10" y="-10" transform="matrix(1 0 0 -1 444.613 54.413)" style="overflow:visible;"/>
			
				<use xlink:href="#h_2"  width="20" height="20" x="-10" y="-10" transform="matrix(1 0 0 -1 444.613 161.244)" style="overflow:visible;"/>
			
				<use xlink:href="#i_2"  width="20" height="20" x="-10" y="-10" transform="matrix(1 0 0 -1 22.218 108.459)" style="overflow:visible;"/>
			
				<use xlink:href="#j_2"  width="32" height="32" x="-16" y="-16" transform="matrix(1.2496 0 0 -1.2496 388.45 144.5262)" style="overflow:visible;"/>
			
				<use xlink:href="#k"  width="32.6" height="49.9" x="-16.3" y="-25" transform="matrix(0.9998 0 0 -0.9998 162.527 145.243)" style="overflow:visible;"/>
			<path class="st13" d="M49.7,186.5L49.7,186.5l0.1,21.6l-26.2-4l11,13.1V212l15,5.3l9.8-8.4v-24.2L49.7,186.5z"/>
			<path class="st13" d="M23.5,191.3l26.2-4.8l-12.5-9.2v4.3L23.6,187l-4.1,5.3v11.2l4.1,0.6v-12.8H23.5z M286,28.6L286,28.6
				l0.1,21.6l-26.2-4l11,13.1V54l15.1,5.3l9.8-8.4v-24L286,28.6z"/>
			<path class="st13" d="M259.8,33.5l26.2-4.8l-12.5-9.2v4.3l-13.6,5.4l-4.1,5.3v11.2l4.1,0.6V33.5H259.8z M397.4,28.6L397.4,28.6
				l0.1,21.6l-26.2-4l11,13.1V54l15.1,5.3l9.8-8.4v-24L397.4,28.6z"/>
			<path class="st13" d="M371.2,33.5l26.2-4.8l-12.5-9.2v4.3l-13.6,5.4l-4,5.3v11.2l4,0.6V33.5H371.2z M512.5,28.6L512.5,28.6
				l0.1,21.6l-26.2-4l11,13.1V54l15,5.3l9.8-8.4v-24L512.5,28.6z"/>
			<path class="st13" d="M486.4,33.5l26.2-4.8L500,19.4v4.3l-13.6,5.4l-4.1,5.3v11.2l4.1,0.6V33.5z"/>
			<g>
				<path class="st14" d="M354.9,173.4H422v26h-67.2v-26H354.9z"/>
			</g>
		</g>
	</g>
	<g id="txt_1_" class="st9">
		<g>
			<rect x="348" y="174.7" class="st14" width="80.9" height="49.6"/>
			<g class="st15">
				<path class="st16" d="M370.3,175.2l-2.4,8.4h-1.2l-1.7-6.1c-0.1-0.3-0.1-0.5-0.1-0.9h0c0,0.3-0.1,0.6-0.2,0.8l-1.7,6.2h-1.1
					l-2.5-8.4h1.1l1.8,6.4c0.1,0.3,0.1,0.6,0.1,0.8h0c0-0.2,0.1-0.5,0.2-0.8l1.9-6.4h0.9l1.8,6.5c0.1,0.2,0.1,0.5,0.1,0.8h0
					c0-0.2,0.1-0.5,0.2-0.8l1.7-6.5H370.3z"/>
				<path class="st16" d="M375.8,180.9h-4.2c0,0.7,0.2,1.2,0.5,1.5s0.8,0.5,1.4,0.5c0.7,0,1.3-0.2,1.9-0.7v0.9
					c-0.5,0.4-1.2,0.6-2.1,0.6c-0.8,0-1.5-0.3-2-0.8s-0.7-1.3-0.7-2.3c0-0.9,0.3-1.7,0.8-2.3s1.2-0.9,2-0.9s1.4,0.3,1.8,0.8
					s0.6,1.2,0.6,2.1V180.9z M374.8,180c0-0.6-0.1-1-0.4-1.3s-0.6-0.5-1.1-0.5c-0.5,0-0.8,0.2-1.2,0.5s-0.5,0.7-0.6,1.3H374.8z"/>
				<path class="st16" d="M378.2,182.7L378.2,182.7l0,0.9h-1v-8.9h1v3.9h0c0.5-0.8,1.2-1.2,2.1-1.2c0.8,0,1.4,0.3,1.8,0.8
					s0.7,1.3,0.7,2.2c0,1-0.2,1.8-0.7,2.4s-1.2,0.9-2,0.9C379.2,183.8,378.6,183.4,378.2,182.7z M378.2,180.3v0.8
					c0,0.5,0.2,0.9,0.5,1.3s0.7,0.5,1.2,0.5c0.6,0,1-0.2,1.4-0.7s0.5-1.1,0.5-1.9c0-0.7-0.2-1.2-0.5-1.6s-0.7-0.6-1.3-0.6
					c-0.6,0-1,0.2-1.3,0.6S378.2,179.7,378.2,180.3z"/>
				<path class="st16" d="M392.7,183.6h-1v-1h0c-0.4,0.8-1.1,1.2-2.1,1.2c-0.8,0-1.4-0.3-1.8-0.8s-0.7-1.3-0.7-2.2
					c0-1,0.3-1.8,0.8-2.4s1.2-0.9,2-0.9c0.8,0,1.4,0.3,1.8,1h0v-3.7h1V183.6z M391.7,180.9V180c0-0.5-0.2-0.9-0.5-1.2
					s-0.7-0.5-1.2-0.5c-0.6,0-1,0.2-1.4,0.6s-0.5,1-0.5,1.8c0,0.7,0.2,1.2,0.5,1.6s0.8,0.6,1.3,0.6c0.5,0,1-0.2,1.3-0.6
					S391.7,181.5,391.7,180.9z"/>
				<path class="st16" d="M397.1,183.8c-0.9,0-1.6-0.3-2.1-0.8s-0.8-1.3-0.8-2.2c0-1,0.3-1.8,0.8-2.4s1.3-0.8,2.2-0.8
					c0.9,0,1.6,0.3,2.1,0.8s0.8,1.3,0.8,2.3c0,1-0.3,1.7-0.8,2.3S398,183.8,397.1,183.8z M397.2,178.3c-0.6,0-1.1,0.2-1.5,0.6
					s-0.5,1-0.5,1.7c0,0.7,0.2,1.3,0.5,1.7s0.8,0.6,1.5,0.6c0.6,0,1.1-0.2,1.4-0.6s0.5-1,0.5-1.7c0-0.8-0.2-1.3-0.5-1.7
					S397.8,178.3,397.2,178.3z"/>
				<path class="st16" d="M411.6,183.6h-1.1l-0.9-2.4H406l-0.8,2.4h-1.1l3.2-8.4h1L411.6,183.6z M409.3,180.4l-1.3-3.6
					c0-0.1-0.1-0.3-0.1-0.6h0c0,0.2-0.1,0.4-0.1,0.6l-1.3,3.6H409.3z"/>
				<path class="st16" d="M416.9,177.9l-3.6,4.9h3.5v0.8h-4.9v-0.3l3.6-4.9h-3.2v-0.8h4.6V177.9z"/>
				<path class="st16" d="M423,183.6h-1v-0.9h0c-0.4,0.7-1,1.1-1.9,1.1c-1.4,0-2.1-0.9-2.1-2.6v-3.6h1v3.4c0,1.3,0.5,1.9,1.5,1.9
					c0.5,0,0.9-0.2,1.2-0.5s0.5-0.8,0.5-1.4v-3.5h1V183.6z"/>
				<path class="st16" d="M428,178.6c-0.2-0.1-0.4-0.2-0.7-0.2c-0.4,0-0.8,0.2-1,0.6s-0.4,0.9-0.4,1.6v3.1h-1v-6h1v1.2h0
					c0.1-0.4,0.3-0.8,0.6-1s0.6-0.4,0.9-0.4c0.3,0,0.4,0,0.6,0.1V178.6z"/>
				<path class="st16" d="M433.9,180.9h-4.2c0,0.7,0.2,1.2,0.5,1.5s0.8,0.5,1.4,0.5c0.7,0,1.3-0.2,1.9-0.7v0.9
					c-0.5,0.4-1.2,0.6-2.1,0.6c-0.8,0-1.5-0.3-2-0.8s-0.7-1.3-0.7-2.3c0-0.9,0.3-1.7,0.8-2.3s1.2-0.9,2-0.9s1.4,0.3,1.8,0.8
					s0.6,1.2,0.6,2.1V180.9z M432.9,180c0-0.6-0.1-1-0.4-1.3s-0.6-0.5-1.1-0.5c-0.5,0-0.8,0.2-1.2,0.5s-0.5,0.7-0.6,1.3H432.9z"/>
			</g>
			<g class="st15">
				<path class="st16" d="M382.5,196.6h-1.1l-0.9-2.4H377l-0.8,2.4h-1.1l3.2-8.4h1L382.5,196.6z M380.2,193.4l-1.3-3.6
					c0-0.1-0.1-0.3-0.1-0.6h0c0,0.2-0.1,0.4-0.1,0.6l-1.3,3.6H380.2z"/>
				<path class="st16" d="M384.6,195.7L384.6,195.7l0,3.6h-1v-8.8h1v1.1h0c0.5-0.8,1.2-1.2,2.1-1.2c0.8,0,1.4,0.3,1.8,0.8
					s0.7,1.3,0.7,2.2c0,1-0.2,1.8-0.7,2.4s-1.2,0.9-2,0.9C385.6,196.8,385,196.4,384.6,195.7z M384.6,193.3v0.8
					c0,0.5,0.2,0.9,0.5,1.3s0.7,0.5,1.2,0.5c0.6,0,1-0.2,1.4-0.7s0.5-1.1,0.5-1.9c0-0.7-0.2-1.2-0.5-1.6s-0.7-0.6-1.3-0.6
					c-0.6,0-1,0.2-1.3,0.6S384.6,192.7,384.6,193.3z"/>
				<path class="st16" d="M391.7,196.6h-1v-8.9h1V196.6z"/>
				<path class="st16" d="M394.1,189.1c-0.2,0-0.3-0.1-0.4-0.2s-0.2-0.3-0.2-0.4s0.1-0.3,0.2-0.4s0.3-0.2,0.4-0.2
					c0.2,0,0.3,0.1,0.4,0.2s0.2,0.3,0.2,0.4c0,0.2-0.1,0.3-0.2,0.4S394.3,189.1,394.1,189.1z M394.6,196.6h-1v-6h1V196.6z"/>
				<path class="st16" d="M400.6,196.3c-0.5,0.3-1,0.4-1.6,0.4c-0.9,0-1.5-0.3-2.1-0.8s-0.8-1.3-0.8-2.2c0-1,0.3-1.8,0.8-2.4
					s1.3-0.9,2.3-0.9c0.5,0,1,0.1,1.4,0.3v1c-0.4-0.3-0.9-0.5-1.4-0.5c-0.6,0-1.1,0.2-1.5,0.7s-0.6,1-0.6,1.7c0,0.7,0.2,1.3,0.6,1.7
					s0.9,0.6,1.5,0.6c0.5,0,1-0.2,1.5-0.5V196.3z"/>
				<path class="st16" d="M406.3,196.6h-1v-0.9h0c-0.4,0.7-1,1.1-1.8,1.1c-0.6,0-1.1-0.2-1.4-0.5s-0.5-0.7-0.5-1.3
					c0-1.1,0.7-1.8,2-2l1.8-0.3c0-1-0.4-1.5-1.2-1.5c-0.7,0-1.4,0.2-2,0.7v-1c0.6-0.4,1.3-0.6,2-0.6c1.4,0,2.1,0.7,2.1,2.2V196.6z
					 M405.4,193.6l-1.4,0.2c-0.4,0.1-0.8,0.2-1,0.3s-0.3,0.4-0.3,0.8c0,0.3,0.1,0.5,0.3,0.7s0.5,0.3,0.8,0.3c0.5,0,0.9-0.2,1.2-0.5
					s0.5-0.8,0.5-1.3V193.6z"/>
				<path class="st16" d="M410.9,196.6c-0.2,0.1-0.5,0.2-0.9,0.2c-1.1,0-1.6-0.6-1.6-1.8v-3.6h-1v-0.8h1v-1.5l1-0.3v1.8h1.5v0.8
					h-1.5v3.4c0,0.4,0.1,0.7,0.2,0.9s0.4,0.3,0.7,0.3c0.2,0,0.5-0.1,0.6-0.2V196.6z"/>
				<path class="st16" d="M412.7,189.1c-0.2,0-0.3-0.1-0.4-0.2s-0.2-0.3-0.2-0.4s0.1-0.3,0.2-0.4s0.3-0.2,0.4-0.2
					c0.2,0,0.3,0.1,0.4,0.2s0.2,0.3,0.2,0.4c0,0.2-0.1,0.3-0.2,0.4S412.9,189.1,412.7,189.1z M413.2,196.6h-1v-6h1V196.6z"/>
				<path class="st16" d="M419.8,190.6l-2.4,6h-0.9l-2.3-6h1.1l1.5,4.4c0.1,0.3,0.2,0.6,0.2,0.8h0c0-0.3,0.1-0.6,0.2-0.8l1.6-4.4
					H419.8z"/>
				<path class="st16" d="M423.4,196.8c-0.9,0-1.6-0.3-2.1-0.8s-0.8-1.3-0.8-2.2c0-1,0.3-1.8,0.8-2.4s1.3-0.8,2.2-0.8
					c0.9,0,1.6,0.3,2.1,0.8s0.8,1.3,0.8,2.3c0,1-0.3,1.7-0.8,2.3S424.3,196.8,423.4,196.8z M423.5,191.3c-0.6,0-1.1,0.2-1.5,0.6
					s-0.5,1-0.5,1.7c0,0.7,0.2,1.3,0.5,1.7s0.8,0.6,1.5,0.6c0.6,0,1.1-0.2,1.4-0.6s0.5-1,0.5-1.7c0-0.8-0.2-1.3-0.5-1.7
					S424.1,191.3,423.5,191.3z"/>
				<path class="st16" d="M427.5,196.4v-1c0.5,0.4,1.1,0.6,1.7,0.6c0.8,0,1.3-0.3,1.3-0.8c0-0.2,0-0.3-0.1-0.4s-0.2-0.2-0.3-0.3
					s-0.3-0.2-0.4-0.2s-0.3-0.1-0.5-0.2c-0.3-0.1-0.5-0.2-0.7-0.3s-0.4-0.2-0.5-0.4s-0.2-0.3-0.3-0.5s-0.1-0.4-0.1-0.6
					c0-0.3,0.1-0.5,0.2-0.7s0.3-0.4,0.5-0.5s0.5-0.3,0.7-0.3s0.6-0.1,0.9-0.1c0.5,0,1,0.1,1.4,0.3v1c-0.4-0.3-0.9-0.4-1.5-0.4
					c-0.2,0-0.3,0-0.5,0.1s-0.3,0.1-0.4,0.2s-0.2,0.2-0.2,0.3s-0.1,0.2-0.1,0.3c0,0.2,0,0.3,0.1,0.4s0.1,0.2,0.2,0.3
					s0.2,0.2,0.4,0.2s0.3,0.1,0.5,0.2c0.3,0.1,0.5,0.2,0.7,0.3s0.4,0.2,0.5,0.4s0.3,0.3,0.3,0.5s0.1,0.4,0.1,0.6
					c0,0.3-0.1,0.6-0.2,0.8s-0.3,0.4-0.5,0.5s-0.5,0.3-0.8,0.3s-0.6,0.1-0.9,0.1C428.5,196.8,428,196.6,427.5,196.4z"/>
			</g>
		</g>
		<g>
			<rect x="111.9" y="174.8" class="st14" width="101.1" height="49.6"/>
			<g class="st15">
				<path class="st16" d="M117.4,183.7h-1v-8.4h1V183.7z"/>
				<path class="st16" d="M124.5,183.7h-1v-3.4c0-1.3-0.5-1.9-1.4-1.9c-0.5,0-0.9,0.2-1.2,0.5s-0.5,0.8-0.5,1.4v3.4h-1v-6h1v1h0
					c0.5-0.8,1.1-1.1,2-1.1c0.7,0,1.2,0.2,1.5,0.6s0.5,1,0.5,1.8V183.7z"/>
				<path class="st16" d="M125.9,183.5v-1c0.5,0.4,1.1,0.6,1.7,0.6c0.8,0,1.3-0.3,1.3-0.8c0-0.2,0-0.3-0.1-0.4s-0.2-0.2-0.3-0.3
					s-0.3-0.2-0.4-0.2s-0.3-0.1-0.5-0.2c-0.3-0.1-0.5-0.2-0.7-0.3s-0.4-0.2-0.5-0.4s-0.2-0.3-0.3-0.5s-0.1-0.4-0.1-0.6
					c0-0.3,0.1-0.5,0.2-0.7s0.3-0.4,0.5-0.5s0.5-0.3,0.7-0.3s0.6-0.1,0.9-0.1c0.5,0,1,0.1,1.4,0.3v1c-0.4-0.3-0.9-0.4-1.5-0.4
					c-0.2,0-0.3,0-0.5,0.1s-0.3,0.1-0.4,0.2s-0.2,0.2-0.2,0.3s-0.1,0.2-0.1,0.3c0,0.2,0,0.3,0.1,0.4s0.1,0.2,0.2,0.3
					s0.2,0.2,0.4,0.2s0.3,0.1,0.5,0.2c0.3,0.1,0.5,0.2,0.7,0.3s0.4,0.2,0.5,0.4s0.3,0.3,0.3,0.5s0.1,0.4,0.1,0.6
					c0,0.3-0.1,0.6-0.2,0.8s-0.3,0.4-0.5,0.5s-0.5,0.3-0.8,0.3s-0.6,0.1-0.9,0.1C126.9,183.8,126.4,183.7,125.9,183.5z"/>
				<path class="st16" d="M131.9,176.2c-0.2,0-0.3-0.1-0.4-0.2s-0.2-0.3-0.2-0.4s0.1-0.3,0.2-0.4s0.3-0.2,0.4-0.2
					c0.2,0,0.3,0.1,0.4,0.2s0.2,0.3,0.2,0.4c0,0.2-0.1,0.3-0.2,0.4S132.1,176.2,131.9,176.2z M132.4,183.7h-1v-6h1V183.7z"/>
				<path class="st16" d="M139.4,183.2c0,2.2-1.1,3.3-3.2,3.3c-0.7,0-1.4-0.1-1.9-0.4v-1c0.7,0.4,1.3,0.6,1.9,0.6
					c1.5,0,2.2-0.8,2.2-2.4v-0.7h0c-0.5,0.8-1.1,1.1-2.1,1.1c-0.7,0-1.3-0.3-1.8-0.8s-0.7-1.2-0.7-2.1c0-1,0.2-1.8,0.7-2.4
					s1.2-0.9,2-0.9c0.8,0,1.4,0.3,1.8,1h0v-0.8h1V183.2z M138.5,181v-0.9c0-0.5-0.2-0.9-0.5-1.2s-0.7-0.5-1.2-0.5
					c-0.6,0-1.1,0.2-1.4,0.6s-0.5,1-0.5,1.8c0,0.7,0.2,1.2,0.5,1.6s0.7,0.6,1.3,0.6c0.5,0,1-0.2,1.3-0.6S138.5,181.6,138.5,181z"/>
				<path class="st16" d="M146.4,183.7h-1v-3.5c0-1.3-0.5-1.9-1.4-1.9c-0.5,0-0.9,0.2-1.2,0.5s-0.5,0.8-0.5,1.4v3.4h-1v-8.9h1v3.9h0
					c0.5-0.8,1.1-1.1,2-1.1c1.4,0,2,0.8,2,2.4V183.7z"/>
				<path class="st16" d="M150.9,183.6c-0.2,0.1-0.5,0.2-0.9,0.2c-1.1,0-1.6-0.6-1.6-1.8v-3.6h-1v-0.8h1v-1.5l1-0.3v1.8h1.5v0.8
					h-1.5v3.4c0,0.4,0.1,0.7,0.2,0.9s0.4,0.3,0.7,0.3c0.2,0,0.5-0.1,0.6-0.2V183.6z"/>
				<path class="st16" d="M151.9,183.5v-1c0.5,0.4,1.1,0.6,1.7,0.6c0.8,0,1.3-0.3,1.3-0.8c0-0.2,0-0.3-0.1-0.4s-0.2-0.2-0.3-0.3
					s-0.3-0.2-0.4-0.2s-0.3-0.1-0.5-0.2c-0.3-0.1-0.5-0.2-0.7-0.3s-0.4-0.2-0.5-0.4s-0.2-0.3-0.3-0.5s-0.1-0.4-0.1-0.6
					c0-0.3,0.1-0.5,0.2-0.7s0.3-0.4,0.5-0.5s0.5-0.3,0.7-0.3s0.6-0.1,0.9-0.1c0.5,0,1,0.1,1.4,0.3v1c-0.4-0.3-0.9-0.4-1.5-0.4
					c-0.2,0-0.3,0-0.5,0.1s-0.3,0.1-0.4,0.2s-0.2,0.2-0.2,0.3s-0.1,0.2-0.1,0.3c0,0.2,0,0.3,0.1,0.4s0.1,0.2,0.2,0.3
					s0.2,0.2,0.4,0.2s0.3,0.1,0.5,0.2c0.3,0.1,0.5,0.2,0.7,0.3s0.4,0.2,0.5,0.4s0.3,0.3,0.3,0.5s0.1,0.4,0.1,0.6
					c0,0.3-0.1,0.6-0.2,0.8s-0.3,0.4-0.5,0.5s-0.5,0.3-0.8,0.3s-0.6,0.1-0.9,0.1C152.9,183.8,152.3,183.7,151.9,183.5z"/>
				<path class="st16" d="M165.7,183.7h-1v-1h0c-0.4,0.8-1.1,1.2-2.1,1.2c-0.8,0-1.4-0.3-1.8-0.8s-0.7-1.3-0.7-2.2
					c0-1,0.3-1.8,0.8-2.4s1.2-0.9,2-0.9c0.8,0,1.4,0.3,1.8,1h0v-3.7h1V183.7z M164.8,181v-0.9c0-0.5-0.2-0.9-0.5-1.2
					s-0.7-0.5-1.2-0.5c-0.6,0-1,0.2-1.4,0.6s-0.5,1-0.5,1.8c0,0.7,0.2,1.2,0.5,1.6s0.8,0.6,1.3,0.6c0.5,0,1-0.2,1.3-0.6
					S164.8,181.6,164.8,181z"/>
				<path class="st16" d="M170.2,183.8c-0.9,0-1.6-0.3-2.1-0.8s-0.8-1.3-0.8-2.2c0-1,0.3-1.8,0.8-2.4s1.3-0.8,2.2-0.8
					c0.9,0,1.6,0.3,2.1,0.8s0.8,1.3,0.8,2.3c0,1-0.3,1.7-0.8,2.3S171.1,183.8,170.2,183.8z M170.3,178.3c-0.6,0-1.1,0.2-1.5,0.6
					s-0.5,1-0.5,1.7c0,0.7,0.2,1.3,0.5,1.7s0.8,0.6,1.5,0.6c0.6,0,1.1-0.2,1.4-0.6s0.5-1,0.5-1.7c0-0.8-0.2-1.3-0.5-1.7
					S170.9,178.3,170.3,178.3z"/>
				<path class="st16" d="M184.6,183.7h-1.1l-0.9-2.4h-3.6l-0.8,2.4h-1.1l3.2-8.4h1L184.6,183.7z M182.3,180.4l-1.3-3.6
					c0-0.1-0.1-0.3-0.1-0.6h0c0,0.2-0.1,0.4-0.1,0.6l-1.3,3.6H182.3z"/>
				<path class="st16" d="M189.9,178l-3.6,4.9h3.5v0.8H185v-0.3l3.6-4.9h-3.2v-0.8h4.6V178z"/>
				<path class="st16" d="M196,183.7h-1v-0.9h0c-0.4,0.7-1,1.1-1.9,1.1c-1.4,0-2.1-0.9-2.1-2.6v-3.6h1v3.4c0,1.3,0.5,1.9,1.5,1.9
					c0.5,0,0.9-0.2,1.2-0.5s0.5-0.8,0.5-1.4v-3.5h1V183.7z"/>
				<path class="st16" d="M201.1,178.6c-0.2-0.1-0.4-0.2-0.7-0.2c-0.4,0-0.8,0.2-1,0.6s-0.4,0.9-0.4,1.6v3.1h-1v-6h1v1.2h0
					c0.1-0.4,0.3-0.8,0.6-1s0.6-0.4,0.9-0.4c0.3,0,0.4,0,0.6,0.1V178.6z"/>
				<path class="st16" d="M206.9,180.9h-4.2c0,0.7,0.2,1.2,0.5,1.5s0.8,0.5,1.4,0.5c0.7,0,1.3-0.2,1.9-0.7v0.9
					c-0.5,0.4-1.2,0.6-2.1,0.6c-0.8,0-1.5-0.3-2-0.8s-0.7-1.3-0.7-2.3c0-0.9,0.3-1.7,0.8-2.3s1.2-0.9,2-0.9s1.4,0.3,1.8,0.8
					s0.6,1.2,0.6,2.1V180.9z M206,180.1c0-0.6-0.1-1-0.4-1.3s-0.6-0.5-1.1-0.5c-0.5,0-0.8,0.2-1.2,0.5s-0.5,0.7-0.6,1.3H206z"/>
			</g>
			<g class="st15">
				<path class="st16" d="M149.5,196.7h-1.1l-0.9-2.4h-3.6l-0.8,2.4H142l3.2-8.4h1L149.5,196.7z M147.2,193.4l-1.3-3.6
					c0-0.1-0.1-0.3-0.1-0.6h0c0,0.2-0.1,0.4-0.1,0.6l-1.3,3.6H147.2z"/>
				<path class="st16" d="M151.6,195.8L151.6,195.8l0,3.6h-1v-8.8h1v1.1h0c0.5-0.8,1.2-1.2,2.1-1.2c0.8,0,1.4,0.3,1.8,0.8
					s0.7,1.3,0.7,2.2c0,1-0.2,1.8-0.7,2.4s-1.2,0.9-2,0.9C152.6,196.8,152,196.5,151.6,195.8z M151.5,193.4v0.8
					c0,0.5,0.2,0.9,0.5,1.3s0.7,0.5,1.2,0.5c0.6,0,1-0.2,1.4-0.7s0.5-1.1,0.5-1.9c0-0.7-0.2-1.2-0.5-1.6s-0.7-0.6-1.3-0.6
					c-0.6,0-1,0.2-1.3,0.6S151.5,192.8,151.5,193.4z"/>
				<path class="st16" d="M158.6,195.8L158.6,195.8l0,3.6h-1v-8.8h1v1.1h0c0.5-0.8,1.2-1.2,2.1-1.2c0.8,0,1.4,0.3,1.8,0.8
					s0.7,1.3,0.7,2.2c0,1-0.2,1.8-0.7,2.4s-1.2,0.9-2,0.9C159.6,196.8,159,196.5,158.6,195.8z M158.6,193.4v0.8
					c0,0.5,0.2,0.9,0.5,1.3s0.7,0.5,1.2,0.5c0.6,0,1-0.2,1.4-0.7s0.5-1.1,0.5-1.9c0-0.7-0.2-1.2-0.5-1.6s-0.7-0.6-1.3-0.6
					c-0.6,0-1,0.2-1.3,0.6S158.6,192.8,158.6,193.4z"/>
				<path class="st16" d="M165.6,196.7h-1v-8.9h1V196.7z"/>
				<path class="st16" d="M168.1,189.2c-0.2,0-0.3-0.1-0.4-0.2s-0.2-0.3-0.2-0.4s0.1-0.3,0.2-0.4s0.3-0.2,0.4-0.2
					c0.2,0,0.3,0.1,0.4,0.2s0.2,0.3,0.2,0.4c0,0.2-0.1,0.3-0.2,0.4S168.2,189.2,168.1,189.2z M168.5,196.7h-1v-6h1V196.7z"/>
				<path class="st16" d="M174.6,196.4c-0.5,0.3-1,0.4-1.6,0.4c-0.9,0-1.5-0.3-2.1-0.8s-0.8-1.3-0.8-2.2c0-1,0.3-1.8,0.8-2.4
					s1.3-0.9,2.3-0.9c0.5,0,1,0.1,1.4,0.3v1c-0.4-0.3-0.9-0.5-1.4-0.5c-0.6,0-1.1,0.2-1.5,0.7s-0.6,1-0.6,1.7c0,0.7,0.2,1.3,0.6,1.7
					s0.9,0.6,1.5,0.6c0.5,0,1-0.2,1.5-0.5V196.4z"/>
				<path class="st16" d="M180.3,196.7h-1v-0.9h0c-0.4,0.7-1,1.1-1.8,1.1c-0.6,0-1.1-0.2-1.4-0.5s-0.5-0.7-0.5-1.3
					c0-1.1,0.7-1.8,2-2l1.8-0.3c0-1-0.4-1.5-1.2-1.5c-0.7,0-1.4,0.2-2,0.7v-1c0.6-0.4,1.3-0.6,2-0.6c1.4,0,2.1,0.7,2.1,2.2V196.7z
					 M179.4,193.6l-1.4,0.2c-0.4,0.1-0.8,0.2-1,0.3s-0.3,0.4-0.3,0.8c0,0.3,0.1,0.5,0.3,0.7s0.5,0.3,0.8,0.3c0.5,0,0.9-0.2,1.2-0.5
					s0.5-0.8,0.5-1.3V193.6z"/>
				<path class="st16" d="M184.9,196.6c-0.2,0.1-0.5,0.2-0.9,0.2c-1.1,0-1.6-0.6-1.6-1.8v-3.6h-1v-0.8h1v-1.5l1-0.3v1.8h1.5v0.8
					h-1.5v3.4c0,0.4,0.1,0.7,0.2,0.9s0.4,0.3,0.7,0.3c0.2,0,0.5-0.1,0.6-0.2V196.6z"/>
				<path class="st16" d="M186.7,189.2c-0.2,0-0.3-0.1-0.4-0.2s-0.2-0.3-0.2-0.4s0.1-0.3,0.2-0.4s0.3-0.2,0.4-0.2
					c0.2,0,0.3,0.1,0.4,0.2s0.2,0.3,0.2,0.4c0,0.2-0.1,0.3-0.2,0.4S186.9,189.2,186.7,189.2z M187.2,196.7h-1v-6h1V196.7z"/>
				<path class="st16" d="M191.6,196.8c-0.9,0-1.6-0.3-2.1-0.8s-0.8-1.3-0.8-2.2c0-1,0.3-1.8,0.8-2.4s1.3-0.8,2.2-0.8
					c0.9,0,1.6,0.3,2.1,0.8s0.8,1.3,0.8,2.3c0,1-0.3,1.7-0.8,2.3S192.5,196.8,191.6,196.8z M191.7,191.3c-0.6,0-1.1,0.2-1.5,0.6
					s-0.5,1-0.5,1.7c0,0.7,0.2,1.3,0.5,1.7s0.8,0.6,1.5,0.6c0.6,0,1.1-0.2,1.4-0.6s0.5-1,0.5-1.7c0-0.8-0.2-1.3-0.5-1.7
					S192.3,191.3,191.7,191.3z"/>
				<path class="st16" d="M201.1,196.7h-1v-3.4c0-1.3-0.5-1.9-1.4-1.9c-0.5,0-0.9,0.2-1.2,0.5s-0.5,0.8-0.5,1.4v3.4h-1v-6h1v1h0
					c0.5-0.8,1.1-1.1,2-1.1c0.7,0,1.2,0.2,1.5,0.6s0.5,1,0.5,1.8V196.7z"/>
			</g>
		</g>
		<g>
			<g class="st15">
				<path class="st16" d="M7.3,230.7H6.3l-0.9-2.4H1.8L1,230.7h-1.1l3.2-8.4h1L7.3,230.7z M5,227.4l-1.3-3.6c0-0.1-0.1-0.3-0.1-0.6
					h0c0,0.2-0.1,0.4-0.1,0.6l-1.3,3.6H5z"/>
				<path class="st16" d="M12.6,224.9l-3.6,4.9h3.5v0.8H7.7v-0.3l3.6-4.9H8v-0.8h4.6V224.9z"/>
				<path class="st16" d="M18.7,230.7h-1v-0.9h0c-0.4,0.7-1,1.1-1.9,1.1c-1.4,0-2.1-0.9-2.1-2.6v-3.6h1v3.4c0,1.3,0.5,1.9,1.5,1.9
					c0.5,0,0.9-0.2,1.2-0.5s0.5-0.8,0.5-1.4v-3.5h1V230.7z"/>
				<path class="st16" d="M23.8,225.6c-0.2-0.1-0.4-0.2-0.7-0.2c-0.4,0-0.8,0.2-1,0.6s-0.4,0.9-0.4,1.6v3.1h-1v-6h1v1.2h0
					c0.1-0.4,0.3-0.8,0.6-1s0.6-0.4,0.9-0.4c0.3,0,0.4,0,0.6,0.1V225.6z"/>
				<path class="st16" d="M29.7,227.9h-4.2c0,0.7,0.2,1.2,0.5,1.5s0.8,0.5,1.4,0.5c0.7,0,1.3-0.2,1.9-0.7v0.9
					c-0.5,0.4-1.2,0.6-2.1,0.6c-0.8,0-1.5-0.3-2-0.8s-0.7-1.3-0.7-2.3c0-0.9,0.3-1.7,0.8-2.3s1.2-0.9,2-0.9s1.4,0.3,1.8,0.8
					s0.6,1.2,0.6,2.1V227.9z M28.7,227.1c0-0.6-0.1-1-0.4-1.3s-0.6-0.5-1.1-0.5c-0.5,0-0.8,0.2-1.2,0.5s-0.5,0.7-0.6,1.3H28.7z"/>
				<path class="st16" d="M34.5,230.7v-8.4h2.4c0.7,0,1.3,0.2,1.7,0.5s0.6,0.8,0.6,1.4c0,0.5-0.1,0.9-0.4,1.2s-0.6,0.6-1.1,0.8v0
					c0.6,0.1,1,0.3,1.4,0.6s0.5,0.8,0.5,1.4c0,0.7-0.3,1.3-0.8,1.7s-1.2,0.7-2,0.7H34.5z M35.5,223.2v2.7h1c0.5,0,1-0.1,1.3-0.4
					s0.5-0.6,0.5-1.1c0-0.8-0.5-1.2-1.6-1.2H35.5z M35.5,226.8v3h1.3c0.6,0,1-0.1,1.3-0.4s0.5-0.6,0.5-1.1c0-1-0.7-1.5-2-1.5H35.5z"
					/>
				<path class="st16" d="M43.8,230.8c-0.9,0-1.6-0.3-2.1-0.8s-0.8-1.3-0.8-2.2c0-1,0.3-1.8,0.8-2.4s1.3-0.8,2.2-0.8
					c0.9,0,1.6,0.3,2.1,0.8s0.8,1.3,0.8,2.3c0,1-0.3,1.7-0.8,2.3S44.7,230.8,43.8,230.8z M43.9,225.3c-0.6,0-1.1,0.2-1.5,0.6
					s-0.5,1-0.5,1.7c0,0.7,0.2,1.3,0.5,1.7s0.8,0.6,1.5,0.6c0.6,0,1.1-0.2,1.4-0.6s0.5-1,0.5-1.7c0-0.8-0.2-1.3-0.5-1.7
					S44.5,225.3,43.9,225.3z"/>
				<path class="st16" d="M52.6,230.7h-1v-0.9h0c-0.4,0.7-1,1.1-1.8,1.1c-0.6,0-1.1-0.2-1.4-0.5s-0.5-0.7-0.5-1.3c0-1.1,0.7-1.8,2-2
					l1.8-0.3c0-1-0.4-1.5-1.2-1.5c-0.7,0-1.4,0.2-2,0.7v-1c0.6-0.4,1.3-0.6,2-0.6c1.4,0,2.1,0.7,2.1,2.2V230.7z M51.6,227.6
					l-1.4,0.2c-0.4,0.1-0.8,0.2-1,0.3s-0.3,0.4-0.3,0.8c0,0.3,0.1,0.5,0.3,0.7s0.5,0.3,0.8,0.3c0.5,0,0.9-0.2,1.2-0.5
					s0.5-0.8,0.5-1.3V227.6z"/>
				<path class="st16" d="M57.5,225.6c-0.2-0.1-0.4-0.2-0.7-0.2c-0.4,0-0.8,0.2-1,0.6s-0.4,0.9-0.4,1.6v3.1h-1v-6h1v1.2h0
					c0.1-0.4,0.3-0.8,0.6-1s0.6-0.4,0.9-0.4c0.3,0,0.4,0,0.6,0.1V225.6z"/>
				<path class="st16" d="M63.7,230.7h-1v-1h0c-0.4,0.8-1.1,1.2-2.1,1.2c-0.8,0-1.4-0.3-1.8-0.8s-0.7-1.3-0.7-2.2
					c0-1,0.3-1.8,0.8-2.4s1.2-0.9,2-0.9c0.8,0,1.4,0.3,1.8,1h0v-3.7h1V230.7z M62.8,228v-0.9c0-0.5-0.2-0.9-0.5-1.2
					s-0.7-0.5-1.2-0.5c-0.6,0-1,0.2-1.4,0.6s-0.5,1-0.5,1.8c0,0.7,0.2,1.2,0.5,1.6s0.8,0.6,1.3,0.6c0.5,0,1-0.2,1.3-0.6
					S62.8,228.5,62.8,228z"/>
				<path class="st16" d="M65.3,230.5v-1c0.5,0.4,1.1,0.6,1.7,0.6c0.8,0,1.3-0.3,1.3-0.8c0-0.2,0-0.3-0.1-0.4s-0.2-0.2-0.3-0.3
					s-0.3-0.2-0.4-0.2s-0.3-0.1-0.5-0.2c-0.3-0.1-0.5-0.2-0.7-0.3s-0.4-0.2-0.5-0.4s-0.2-0.3-0.3-0.5s-0.1-0.4-0.1-0.6
					c0-0.3,0.1-0.5,0.2-0.7s0.3-0.4,0.5-0.5s0.5-0.3,0.7-0.3s0.6-0.1,0.9-0.1c0.5,0,1,0.1,1.4,0.3v1c-0.4-0.3-0.9-0.4-1.5-0.4
					c-0.2,0-0.3,0-0.5,0.1s-0.3,0.1-0.4,0.2s-0.2,0.2-0.2,0.3s-0.1,0.2-0.1,0.3c0,0.2,0,0.3,0.1,0.4s0.1,0.2,0.2,0.3
					s0.2,0.2,0.4,0.2s0.3,0.1,0.5,0.2c0.3,0.1,0.5,0.2,0.7,0.3s0.4,0.2,0.5,0.4s0.3,0.3,0.3,0.5s0.1,0.4,0.1,0.6
					c0,0.3-0.1,0.6-0.2,0.8s-0.3,0.4-0.5,0.5s-0.5,0.3-0.8,0.3s-0.6,0.1-0.9,0.1C66.3,230.8,65.7,230.7,65.3,230.5z"/>
			</g>
		</g>
		<g>
			<g class="st15">
				<path class="st16" d="M32.1,10.2h-4.5V1.8h4.3v0.9h-3.3v2.8h3v0.9h-3v2.9h3.5V10.2z"/>
				<path class="st16" d="M38.6,10.2h-1V6.8c0-1.3-0.5-1.9-1.4-1.9c-0.5,0-0.9,0.2-1.2,0.5s-0.5,0.8-0.5,1.4v3.4h-1v-6h1v1h0
					c0.5-0.8,1.1-1.1,2-1.1c0.7,0,1.2,0.2,1.5,0.6s0.5,1,0.5,1.8V10.2z"/>
				<path class="st16" d="M45.5,9.7c0,2.2-1.1,3.3-3.2,3.3c-0.7,0-1.4-0.1-1.9-0.4v-1c0.7,0.4,1.3,0.6,1.9,0.6
					c1.5,0,2.2-0.8,2.2-2.4V9.2h0c-0.5,0.8-1.1,1.1-2.1,1.1c-0.7,0-1.3-0.3-1.8-0.8S40,8.3,40,7.4c0-1,0.2-1.8,0.7-2.4
					s1.2-0.9,2-0.9c0.8,0,1.4,0.3,1.8,1h0V4.2h1V9.7z M44.5,7.5V6.6c0-0.5-0.2-0.9-0.5-1.2s-0.7-0.5-1.2-0.5c-0.6,0-1.1,0.2-1.4,0.6
					s-0.5,1-0.5,1.8c0,0.7,0.2,1.2,0.5,1.6s0.7,0.6,1.3,0.6c0.5,0,1-0.2,1.3-0.6S44.5,8.1,44.5,7.5z"/>
				<path class="st16" d="M52.3,7.5H48c0,0.7,0.2,1.2,0.5,1.5s0.8,0.5,1.4,0.5c0.7,0,1.3-0.2,1.9-0.7v0.9c-0.5,0.4-1.2,0.6-2.1,0.6
					c-0.8,0-1.5-0.3-2-0.8S47,8.2,47,7.2c0-0.9,0.3-1.7,0.8-2.3s1.2-0.9,2-0.9s1.4,0.3,1.8,0.8S52.3,6,52.3,7V7.5z M51.3,6.6
					c0-0.6-0.1-1-0.4-1.3s-0.6-0.5-1.1-0.5c-0.5,0-0.8,0.2-1.2,0.5S48.1,6.1,48,6.6H51.3z"/>
				<path class="st16" d="M58.7,10.2h-1V6.8c0-1.3-0.5-1.9-1.4-1.9c-0.5,0-0.9,0.2-1.2,0.5s-0.5,0.8-0.5,1.4v3.4h-1v-6h1v1h0
					c0.5-0.8,1.1-1.1,2-1.1c0.7,0,1.2,0.2,1.5,0.6s0.5,1,0.5,1.8V10.2z"/>
				<path class="st16" d="M65.5,10.2h-1V6.8c0-1.3-0.5-1.9-1.4-1.9c-0.5,0-0.9,0.2-1.2,0.5s-0.5,0.8-0.5,1.4v3.4h-1V1.3h1v3.9h0
					c0.5-0.8,1.1-1.1,2-1.1c1.4,0,2,0.8,2,2.4V10.2z"/>
				<path class="st16" d="M72.1,7.5h-4.2c0,0.7,0.2,1.2,0.5,1.5s0.8,0.5,1.4,0.5c0.7,0,1.3-0.2,1.9-0.7v0.9
					c-0.5,0.4-1.2,0.6-2.1,0.6c-0.8,0-1.5-0.3-2-0.8s-0.7-1.3-0.7-2.3c0-0.9,0.3-1.7,0.8-2.3s1.2-0.9,2-0.9s1.4,0.3,1.8,0.8
					S72.1,6,72.1,7V7.5z M71.1,6.6c0-0.6-0.1-1-0.4-1.3s-0.6-0.5-1.1-0.5c-0.5,0-0.8,0.2-1.2,0.5S68,6.1,67.9,6.6H71.1z"/>
				<path class="st16" d="M74.1,2.7c-0.2,0-0.3-0.1-0.4-0.2s-0.2-0.3-0.2-0.4s0.1-0.3,0.2-0.4s0.3-0.2,0.4-0.2
					c0.2,0,0.3,0.1,0.4,0.2s0.2,0.3,0.2,0.4c0,0.2-0.1,0.3-0.2,0.4S74.2,2.7,74.1,2.7z M74.5,10.2h-1v-6h1V10.2z"/>
				<path class="st16" d="M79.6,5.2C79.4,5.1,79.2,5,78.9,5c-0.4,0-0.8,0.2-1,0.6s-0.4,0.9-0.4,1.6v3.1h-1v-6h1v1.2h0
					c0.1-0.4,0.3-0.8,0.6-1s0.6-0.4,0.9-0.4c0.3,0,0.4,0,0.6,0.1V5.2z"/>
				<path class="st16" d="M83.2,10.4c-0.9,0-1.6-0.3-2.1-0.8s-0.8-1.3-0.8-2.2c0-1,0.3-1.8,0.8-2.4s1.3-0.8,2.2-0.8
					c0.9,0,1.6,0.3,2.1,0.8s0.8,1.3,0.8,2.3c0,1-0.3,1.7-0.8,2.3S84.1,10.4,83.2,10.4z M83.2,4.9c-0.6,0-1.1,0.2-1.5,0.6
					s-0.5,1-0.5,1.7c0,0.7,0.2,1.3,0.5,1.7s0.8,0.6,1.5,0.6c0.6,0,1.1-0.2,1.4-0.6s0.5-1,0.5-1.7c0-0.8-0.2-1.3-0.5-1.7
					S83.8,4.9,83.2,4.9z"/>
			</g>
		</g>
		<g>
			<g class="st15">
				<path class="st16" d="M135.6,2.7l-3.1,8.4h-1.1l-3-8.4h1.1l2.3,6.7c0.1,0.2,0.1,0.5,0.2,0.7h0c0-0.2,0.1-0.5,0.2-0.8l2.4-6.7
					H135.6z"/>
				<path class="st16" d="M137.2,3.6c-0.2,0-0.3-0.1-0.4-0.2s-0.2-0.3-0.2-0.4s0.1-0.3,0.2-0.4s0.3-0.2,0.4-0.2
					c0.2,0,0.3,0.1,0.4,0.2s0.2,0.3,0.2,0.4c0,0.2-0.1,0.3-0.2,0.4S137.4,3.6,137.2,3.6z M137.6,11.1h-1v-6h1V11.1z"/>
				<path class="st16" d="M139.2,10.9v-1c0.5,0.4,1.1,0.6,1.7,0.6c0.8,0,1.3-0.3,1.3-0.8c0-0.2,0-0.3-0.1-0.4s-0.2-0.2-0.3-0.3
					s-0.3-0.2-0.4-0.2s-0.3-0.1-0.5-0.2c-0.3-0.1-0.5-0.2-0.7-0.3s-0.4-0.2-0.5-0.4s-0.2-0.3-0.3-0.5s-0.1-0.4-0.1-0.6
					c0-0.3,0.1-0.5,0.2-0.7s0.3-0.4,0.5-0.5s0.5-0.3,0.7-0.3s0.6-0.1,0.9-0.1c0.5,0,1,0.1,1.4,0.3v1c-0.4-0.3-0.9-0.4-1.5-0.4
					c-0.2,0-0.3,0-0.5,0.1s-0.3,0.1-0.4,0.2s-0.2,0.2-0.2,0.3s-0.1,0.2-0.1,0.3c0,0.2,0,0.3,0.1,0.4s0.1,0.2,0.2,0.3
					s0.2,0.2,0.4,0.2s0.3,0.1,0.5,0.2c0.3,0.1,0.5,0.2,0.7,0.3c0.2,0.1,0.4,0.2,0.5,0.4s0.3,0.3,0.3,0.5s0.1,0.4,0.1,0.6
					c0,0.3-0.1,0.6-0.2,0.8s-0.3,0.4-0.5,0.5s-0.5,0.3-0.8,0.3s-0.6,0.1-0.9,0.1C140.2,11.2,139.7,11.1,139.2,10.9z"/>
				<path class="st16" d="M149.5,11.1h-1v-0.9h0c-0.4,0.7-1,1.1-1.9,1.1c-1.4,0-2.1-0.9-2.1-2.6V5.1h1v3.4c0,1.3,0.5,1.9,1.5,1.9
					c0.5,0,0.9-0.2,1.2-0.5s0.5-0.8,0.5-1.4V5.1h1V11.1z"/>
				<path class="st16" d="M155.8,11.1h-1v-0.9h0c-0.4,0.7-1,1.1-1.8,1.1c-0.6,0-1.1-0.2-1.4-0.5S151,10,151,9.5c0-1.1,0.7-1.8,2-2
					l1.8-0.3c0-1-0.4-1.5-1.2-1.5c-0.7,0-1.4,0.2-2,0.7v-1c0.6-0.4,1.3-0.6,2-0.6c1.4,0,2.1,0.7,2.1,2.2V11.1z M154.8,8.1l-1.4,0.2
					c-0.4,0.1-0.8,0.2-1,0.3S152,9,152,9.4c0,0.3,0.1,0.5,0.3,0.7s0.5,0.3,0.8,0.3c0.5,0,0.9-0.2,1.2-0.5s0.5-0.8,0.5-1.3V8.1z"/>
				<path class="st16" d="M158.5,11.1h-1V2.2h1V11.1z"/>
				<path class="st16" d="M163.5,10.8V9.6c0.1,0.1,0.3,0.2,0.5,0.3s0.4,0.2,0.6,0.2s0.4,0.1,0.6,0.1s0.4,0.1,0.6,0.1
					c0.6,0,1.1-0.1,1.4-0.3s0.4-0.5,0.4-1c0-0.2,0-0.4-0.1-0.6S167.2,8.1,167,8c-0.2-0.1-0.4-0.3-0.6-0.4s-0.5-0.3-0.8-0.4
					c-0.3-0.1-0.6-0.3-0.8-0.5s-0.5-0.3-0.7-0.5s-0.3-0.4-0.4-0.6s-0.2-0.5-0.2-0.8c0-0.4,0.1-0.7,0.3-1s0.4-0.5,0.7-0.7
					s0.6-0.3,0.9-0.4s0.7-0.1,1.1-0.1c0.8,0,1.4,0.1,1.8,0.3V4c-0.5-0.3-1.1-0.5-1.9-0.5c-0.2,0-0.4,0-0.6,0.1s-0.4,0.1-0.6,0.2
					s-0.3,0.2-0.4,0.4c-0.1,0.2-0.2,0.4-0.2,0.6c0,0.2,0,0.4,0.1,0.6s0.2,0.3,0.4,0.4s0.3,0.3,0.6,0.4s0.5,0.3,0.8,0.4
					c0.3,0.1,0.6,0.3,0.9,0.5s0.5,0.3,0.7,0.5s0.4,0.4,0.5,0.7c0.1,0.2,0.2,0.5,0.2,0.8c0,0.4-0.1,0.8-0.2,1.1s-0.4,0.5-0.7,0.7
					s-0.6,0.3-1,0.4s-0.7,0.1-1.1,0.1c-0.1,0-0.3,0-0.5,0s-0.4-0.1-0.6-0.1s-0.4-0.1-0.6-0.2S163.6,10.8,163.5,10.8z"/>
				<path class="st16" d="M172.5,11c-0.2,0.1-0.5,0.2-0.9,0.2c-1.1,0-1.6-0.6-1.6-1.8V5.9h-1V5.1h1V3.6l1-0.3v1.8h1.5v0.8H171v3.4
					c0,0.4,0.1,0.7,0.2,0.9s0.4,0.3,0.7,0.3c0.2,0,0.5-0.1,0.6-0.2V11z"/>
				<path class="st16" d="M178.7,11.1h-1v-0.9h0c-0.4,0.7-1,1.1-1.9,1.1c-1.4,0-2.1-0.9-2.1-2.6V5.1h1v3.4c0,1.3,0.5,1.9,1.5,1.9
					c0.5,0,0.9-0.2,1.2-0.5s0.5-0.8,0.5-1.4V5.1h1V11.1z"/>
				<path class="st16" d="M185.7,11.1h-1v-1h0c-0.4,0.8-1.1,1.2-2.1,1.2c-0.8,0-1.4-0.3-1.8-0.8s-0.7-1.3-0.7-2.2
					c0-1,0.3-1.8,0.8-2.4s1.2-0.9,2-0.9c0.8,0,1.4,0.3,1.8,1h0V2.2h1V11.1z M184.8,8.4V7.5c0-0.5-0.2-0.9-0.5-1.2s-0.7-0.5-1.2-0.5
					c-0.6,0-1,0.2-1.4,0.6s-0.5,1-0.5,1.8c0,0.7,0.2,1.2,0.5,1.6s0.8,0.6,1.3,0.6c0.5,0,1-0.2,1.3-0.6S184.8,9,184.8,8.4z"/>
				<path class="st16" d="M188.2,3.6c-0.2,0-0.3-0.1-0.4-0.2s-0.2-0.3-0.2-0.4s0.1-0.3,0.2-0.4s0.3-0.2,0.4-0.2
					c0.2,0,0.3,0.1,0.4,0.2s0.2,0.3,0.2,0.4c0,0.2-0.1,0.3-0.2,0.4S188.4,3.6,188.2,3.6z M188.6,11.1h-1v-6h1V11.1z"/>
				<path class="st16" d="M193.1,11.2c-0.9,0-1.6-0.3-2.1-0.8s-0.8-1.3-0.8-2.2c0-1,0.3-1.8,0.8-2.4s1.3-0.8,2.2-0.8
					c0.9,0,1.6,0.3,2.1,0.8s0.8,1.3,0.8,2.3c0,1-0.3,1.7-0.8,2.3S194,11.2,193.1,11.2z M193.2,5.8c-0.6,0-1.1,0.2-1.5,0.6
					s-0.5,1-0.5,1.7c0,0.7,0.2,1.3,0.5,1.7s0.8,0.6,1.5,0.6c0.6,0,1.1-0.2,1.4-0.6s0.5-1,0.5-1.7c0-0.8-0.2-1.3-0.5-1.7
					S193.8,5.8,193.2,5.8z"/>
			</g>
		</g>
		<g>
			<g class="st15">
				<path class="st16" d="M251.2,11.1h-1.1l-0.9-2.4h-3.6l-0.8,2.4h-1.1l3.2-8.4h1L251.2,11.1z M248.9,7.9l-1.3-3.6
					c0-0.1-0.1-0.3-0.1-0.6h0c0,0.2-0.1,0.4-0.1,0.6L246,7.9H248.9z"/>
				<path class="st16" d="M256.5,5.4l-3.6,4.9h3.5v0.8h-4.9v-0.3l3.6-4.9h-3.2V5.1h4.6V5.4z"/>
				<path class="st16" d="M262.6,11.1h-1v-0.9h0c-0.4,0.7-1,1.1-1.9,1.1c-1.4,0-2.1-0.9-2.1-2.6V5.1h1v3.4c0,1.3,0.5,1.9,1.5,1.9
					c0.5,0,0.9-0.2,1.2-0.5s0.5-0.8,0.5-1.4V5.1h1V11.1z"/>
				<path class="st16" d="M267.7,6.1c-0.2-0.1-0.4-0.2-0.7-0.2c-0.4,0-0.8,0.2-1,0.6s-0.4,0.9-0.4,1.6v3.1h-1v-6h1v1.2h0
					c0.1-0.4,0.3-0.8,0.6-1s0.6-0.4,0.9-0.4c0.3,0,0.4,0,0.6,0.1V6.1z"/>
				<path class="st16" d="M273.5,8.3h-4.2c0,0.7,0.2,1.2,0.5,1.5s0.8,0.5,1.4,0.5c0.7,0,1.3-0.2,1.9-0.7v0.9
					c-0.5,0.4-1.2,0.6-2.1,0.6c-0.8,0-1.5-0.3-2-0.8s-0.7-1.3-0.7-2.3c0-0.9,0.3-1.7,0.8-2.3s1.2-0.9,2-0.9s1.4,0.3,1.8,0.8
					s0.6,1.2,0.6,2.1V8.3z M272.6,7.5c0-0.6-0.1-1-0.4-1.3s-0.6-0.5-1.1-0.5c-0.5,0-0.8,0.2-1.2,0.5s-0.5,0.7-0.6,1.3H272.6z"/>
				<path class="st16" d="M284.4,11.1h-1.2l-1.4-2.4c-0.1-0.2-0.3-0.4-0.4-0.6s-0.2-0.3-0.4-0.4s-0.3-0.2-0.4-0.2s-0.3-0.1-0.5-0.1
					h-0.8v3.6h-1V2.7h2.5c0.4,0,0.7,0,1,0.1s0.6,0.2,0.8,0.4s0.4,0.4,0.5,0.7s0.2,0.6,0.2,1c0,0.3,0,0.6-0.1,0.8s-0.2,0.5-0.4,0.7
					s-0.4,0.4-0.6,0.5s-0.5,0.2-0.8,0.3v0c0.1,0.1,0.3,0.1,0.4,0.2s0.2,0.2,0.3,0.3s0.2,0.2,0.3,0.4c0.1,0.1,0.2,0.3,0.3,0.5
					L284.4,11.1z M279.4,3.6v3h1.3c0.2,0,0.5,0,0.7-0.1s0.4-0.2,0.5-0.3s0.3-0.3,0.4-0.5s0.1-0.4,0.1-0.7c0-0.4-0.1-0.8-0.4-1.1
					s-0.7-0.4-1.3-0.4H279.4z"/>
				<path class="st16" d="M289.9,8.3h-4.2c0,0.7,0.2,1.2,0.5,1.5s0.8,0.5,1.4,0.5c0.7,0,1.3-0.2,1.9-0.7v0.9
					c-0.5,0.4-1.2,0.6-2.1,0.6c-0.8,0-1.5-0.3-2-0.8s-0.7-1.3-0.7-2.3c0-0.9,0.3-1.7,0.8-2.3s1.2-0.9,2-0.9s1.4,0.3,1.8,0.8
					s0.6,1.2,0.6,2.1V8.3z M289,7.5c0-0.6-0.1-1-0.4-1.3s-0.6-0.5-1.1-0.5c-0.5,0-0.8,0.2-1.2,0.5s-0.5,0.7-0.6,1.3H289z"/>
				<path class="st16" d="M292.4,10.2L292.4,10.2l0,3.6h-1V5.1h1v1.1h0c0.5-0.8,1.2-1.2,2.1-1.2c0.8,0,1.4,0.3,1.8,0.8
					s0.7,1.3,0.7,2.2c0,1-0.2,1.8-0.7,2.4s-1.2,0.9-2,0.9C293.4,11.2,292.8,10.9,292.4,10.2z M292.3,7.8v0.8c0,0.5,0.2,0.9,0.5,1.3
					s0.7,0.5,1.2,0.5c0.6,0,1-0.2,1.4-0.7s0.5-1.1,0.5-1.9c0-0.7-0.2-1.2-0.5-1.6s-0.7-0.6-1.3-0.6c-0.6,0-1,0.2-1.3,0.6
					S292.3,7.2,292.3,7.8z"/>
				<path class="st16" d="M301,11.2c-0.9,0-1.6-0.3-2.1-0.8S298,9.1,298,8.2c0-1,0.3-1.8,0.8-2.4s1.3-0.8,2.2-0.8
					c0.9,0,1.6,0.3,2.1,0.8s0.8,1.3,0.8,2.3c0,1-0.3,1.7-0.8,2.3S301.9,11.2,301,11.2z M301,5.8c-0.6,0-1.1,0.2-1.5,0.6
					s-0.5,1-0.5,1.7c0,0.7,0.2,1.3,0.5,1.7s0.8,0.6,1.5,0.6c0.6,0,1.1-0.2,1.4-0.6s0.5-1,0.5-1.7c0-0.8-0.2-1.3-0.5-1.7
					S301.6,5.8,301,5.8z"/>
				<path class="st16" d="M305.1,10.9v-1c0.5,0.4,1.1,0.6,1.7,0.6c0.8,0,1.3-0.3,1.3-0.8c0-0.2,0-0.3-0.1-0.4s-0.2-0.2-0.3-0.3
					s-0.3-0.2-0.4-0.2s-0.3-0.1-0.5-0.2c-0.3-0.1-0.5-0.2-0.7-0.3s-0.4-0.2-0.5-0.4s-0.2-0.3-0.3-0.5s-0.1-0.4-0.1-0.6
					c0-0.3,0.1-0.5,0.2-0.7s0.3-0.4,0.5-0.5s0.5-0.3,0.7-0.3s0.6-0.1,0.9-0.1c0.5,0,1,0.1,1.4,0.3v1c-0.4-0.3-0.9-0.4-1.5-0.4
					c-0.2,0-0.3,0-0.5,0.1s-0.3,0.1-0.4,0.2s-0.2,0.2-0.2,0.3s-0.1,0.2-0.1,0.3c0,0.2,0,0.3,0.1,0.4s0.1,0.2,0.2,0.3
					s0.2,0.2,0.4,0.2s0.3,0.1,0.5,0.2c0.3,0.1,0.5,0.2,0.7,0.3c0.2,0.1,0.4,0.2,0.5,0.4s0.3,0.3,0.3,0.5s0.1,0.4,0.1,0.6
					c0,0.3-0.1,0.6-0.2,0.8s-0.3,0.4-0.5,0.5s-0.5,0.3-0.8,0.3s-0.6,0.1-0.9,0.1C306.1,11.2,305.6,11.1,305.1,10.9z"/>
			</g>
		</g>
		<g class="st15">
			<path class="st16" d="M352.5,11.1h-1.1l-0.9-2.4H347l-0.8,2.4h-1.1l3.2-8.4h1L352.5,11.1z M350.2,7.9l-1.3-3.6
				c0-0.1-0.1-0.3-0.1-0.6h0c0,0.2-0.1,0.4-0.1,0.6l-1.3,3.6H350.2z"/>
			<path class="st16" d="M357.8,5.4l-3.6,4.9h3.5v0.8h-4.9v-0.3l3.6-4.9h-3.2V5.1h4.6V5.4z"/>
			<path class="st16" d="M363.9,11.1h-1v-0.9h0c-0.4,0.7-1,1.1-1.9,1.1c-1.4,0-2.1-0.9-2.1-2.6V5.1h1v3.4c0,1.3,0.5,1.9,1.5,1.9
				c0.5,0,0.9-0.2,1.2-0.5s0.5-0.8,0.5-1.4V5.1h1V11.1z"/>
			<path class="st16" d="M369,6.1c-0.2-0.1-0.4-0.2-0.7-0.2c-0.4,0-0.8,0.2-1,0.6s-0.4,0.9-0.4,1.6v3.1h-1v-6h1v1.2h0
				c0.1-0.4,0.3-0.8,0.6-1s0.6-0.4,0.9-0.4c0.3,0,0.4,0,0.6,0.1V6.1z"/>
			<path class="st16" d="M374.9,8.3h-4.2c0,0.7,0.2,1.2,0.5,1.5s0.8,0.5,1.4,0.5c0.7,0,1.3-0.2,1.9-0.7v0.9
				c-0.5,0.4-1.2,0.6-2.1,0.6c-0.8,0-1.5-0.3-2-0.8s-0.7-1.3-0.7-2.3c0-0.9,0.3-1.7,0.8-2.3s1.2-0.9,2-0.9s1.4,0.3,1.8,0.8
				s0.6,1.2,0.6,2.1V8.3z M373.9,7.5c0-0.6-0.1-1-0.4-1.3s-0.6-0.5-1.1-0.5c-0.5,0-0.8,0.2-1.2,0.5s-0.5,0.7-0.6,1.3H373.9z"/>
			<path class="st16" d="M384.7,3.6h-2.4v7.5h-1V3.6h-2.4V2.7h5.8V3.6z"/>
			<path class="st16" d="M389.5,8.3h-4.2c0,0.7,0.2,1.2,0.5,1.5s0.8,0.5,1.4,0.5c0.7,0,1.3-0.2,1.9-0.7v0.9
				c-0.5,0.4-1.2,0.6-2.1,0.6c-0.8,0-1.5-0.3-2-0.8s-0.7-1.3-0.7-2.3c0-0.9,0.3-1.7,0.8-2.3s1.2-0.9,2-0.9s1.4,0.3,1.8,0.8
				s0.6,1.2,0.6,2.1V8.3z M388.5,7.5c0-0.6-0.1-1-0.4-1.3s-0.6-0.5-1.1-0.5c-0.5,0-0.8,0.2-1.2,0.5s-0.5,0.7-0.6,1.3H388.5z"/>
			<path class="st16" d="M390.6,10.9v-1c0.5,0.4,1.1,0.6,1.7,0.6c0.8,0,1.3-0.3,1.3-0.8c0-0.2,0-0.3-0.1-0.4s-0.2-0.2-0.3-0.3
				s-0.3-0.2-0.4-0.2s-0.3-0.1-0.5-0.2c-0.3-0.1-0.5-0.2-0.7-0.3s-0.4-0.2-0.5-0.4s-0.2-0.3-0.3-0.5s-0.1-0.4-0.1-0.6
				c0-0.3,0.1-0.5,0.2-0.7s0.3-0.4,0.5-0.5s0.5-0.3,0.7-0.3s0.6-0.1,0.9-0.1c0.5,0,1,0.1,1.4,0.3v1c-0.4-0.3-0.9-0.4-1.5-0.4
				c-0.2,0-0.3,0-0.5,0.1S392,5.9,391.9,6s-0.2,0.2-0.2,0.3s-0.1,0.2-0.1,0.3c0,0.2,0,0.3,0.1,0.4s0.1,0.2,0.2,0.3s0.2,0.2,0.4,0.2
				s0.3,0.1,0.5,0.2c0.3,0.1,0.5,0.2,0.7,0.3c0.2,0.1,0.4,0.2,0.5,0.4s0.3,0.3,0.3,0.5s0.1,0.4,0.1,0.6c0,0.3-0.1,0.6-0.2,0.8
				s-0.3,0.4-0.5,0.5s-0.5,0.3-0.8,0.3s-0.6,0.1-0.9,0.1C391.6,11.2,391.1,11.1,390.6,10.9z"/>
			<path class="st16" d="M398.9,11c-0.2,0.1-0.5,0.2-0.9,0.2c-1.1,0-1.6-0.6-1.6-1.8V5.9h-1V5.1h1V3.6l1-0.3v1.8h1.5v0.8h-1.5v3.4
				c0,0.4,0.1,0.7,0.2,0.9s0.4,0.3,0.7,0.3c0.2,0,0.5-0.1,0.6-0.2V11z"/>
			<path class="st16" d="M404.5,7.9v3.2h-1V2.7h2.3c0.9,0,1.6,0.2,2.1,0.7s0.7,1.1,0.7,1.9s-0.3,1.4-0.8,2s-1.3,0.8-2.2,0.8H404.5z
				 M404.5,3.6V7h1c0.7,0,1.2-0.2,1.6-0.5s0.5-0.7,0.5-1.3c0-1.1-0.7-1.7-2-1.7H404.5z"/>
			<path class="st16" d="M411.1,11.1h-1V2.2h1V11.1z"/>
			<path class="st16" d="M417.3,11.1h-1v-0.9h0c-0.4,0.7-1,1.1-1.8,1.1c-0.6,0-1.1-0.2-1.4-0.5s-0.5-0.7-0.5-1.3c0-1.1,0.7-1.8,2-2
				l1.8-0.3c0-1-0.4-1.5-1.2-1.5c-0.7,0-1.4,0.2-2,0.7v-1c0.6-0.4,1.3-0.6,2-0.6c1.4,0,2.1,0.7,2.1,2.2V11.1z M416.4,8.1l-1.4,0.2
				c-0.4,0.1-0.8,0.2-1,0.3s-0.3,0.4-0.3,0.8c0,0.3,0.1,0.5,0.3,0.7s0.5,0.3,0.8,0.3c0.5,0,0.9-0.2,1.2-0.5s0.5-0.8,0.5-1.3V8.1z"/>
			<path class="st16" d="M424.1,11.1h-1V7.7c0-1.3-0.5-1.9-1.4-1.9c-0.5,0-0.9,0.2-1.2,0.5s-0.5,0.8-0.5,1.4v3.4h-1v-6h1v1h0
				c0.5-0.8,1.1-1.1,2-1.1c0.7,0,1.2,0.2,1.5,0.6s0.5,1,0.5,1.8V11.1z"/>
			<path class="st16" d="M425.6,10.9v-1c0.5,0.4,1.1,0.6,1.7,0.6c0.8,0,1.3-0.3,1.3-0.8c0-0.2,0-0.3-0.1-0.4s-0.2-0.2-0.3-0.3
				s-0.3-0.2-0.4-0.2s-0.3-0.1-0.5-0.2c-0.3-0.1-0.5-0.2-0.7-0.3s-0.4-0.2-0.5-0.4s-0.2-0.3-0.3-0.5s-0.1-0.4-0.1-0.6
				c0-0.3,0.1-0.5,0.2-0.7s0.3-0.4,0.5-0.5s0.5-0.3,0.7-0.3s0.6-0.1,0.9-0.1c0.5,0,1,0.1,1.4,0.3v1c-0.4-0.3-0.9-0.4-1.5-0.4
				c-0.2,0-0.3,0-0.5,0.1S427,5.9,426.9,6s-0.2,0.2-0.2,0.3s-0.1,0.2-0.1,0.3c0,0.2,0,0.3,0.1,0.4s0.1,0.2,0.2,0.3s0.2,0.2,0.4,0.2
				s0.3,0.1,0.5,0.2c0.3,0.1,0.5,0.2,0.7,0.3c0.2,0.1,0.4,0.2,0.5,0.4s0.3,0.3,0.3,0.5s0.1,0.4,0.1,0.6c0,0.3-0.1,0.6-0.2,0.8
				s-0.3,0.4-0.5,0.5s-0.5,0.3-0.8,0.3s-0.6,0.1-0.9,0.1C426.6,11.2,426,11.1,425.6,10.9z"/>
		</g>
		<g class="st15">
			<path class="st16" d="M470.5,11.3h-1.1l-0.9-2.4H465l-0.8,2.4h-1.1l3.2-8.4h1L470.5,11.3z M468.2,8l-1.3-3.6
				c0-0.1-0.1-0.3-0.1-0.6h0c0,0.2-0.1,0.4-0.1,0.6L465.3,8H468.2z"/>
			<path class="st16" d="M475.8,5.5l-3.6,4.9h3.5v0.8h-4.9V11l3.6-4.9h-3.2V5.3h4.6V5.5z"/>
			<path class="st16" d="M481.9,11.3h-1v-0.9h0c-0.4,0.7-1,1.1-1.9,1.1c-1.4,0-2.1-0.9-2.1-2.6V5.3h1v3.4c0,1.3,0.5,1.9,1.5,1.9
				c0.5,0,0.9-0.2,1.2-0.5s0.5-0.8,0.5-1.4V5.3h1V11.3z"/>
			<path class="st16" d="M487,6.2c-0.2-0.1-0.4-0.2-0.7-0.2c-0.4,0-0.8,0.2-1,0.6s-0.4,0.9-0.4,1.6v3.1h-1v-6h1v1.2h0
				c0.1-0.4,0.3-0.8,0.6-1s0.6-0.4,0.9-0.4c0.3,0,0.4,0,0.6,0.1V6.2z"/>
			<path class="st16" d="M492.9,8.5h-4.2c0,0.7,0.2,1.2,0.5,1.5s0.8,0.5,1.4,0.5c0.7,0,1.3-0.2,1.9-0.7v0.9
				c-0.5,0.4-1.2,0.6-2.1,0.6c-0.8,0-1.5-0.3-2-0.8s-0.7-1.3-0.7-2.3c0-0.9,0.3-1.7,0.8-2.3s1.2-0.9,2-0.9s1.4,0.3,1.8,0.8
				s0.6,1.2,0.6,2.1V8.5z M491.9,7.7c0-0.6-0.1-1-0.4-1.3s-0.6-0.5-1.1-0.5c-0.5,0-0.8,0.2-1.2,0.5s-0.5,0.7-0.6,1.3H491.9z"/>
			<path class="st16" d="M498.7,8.1v3.2h-1V2.9h2.3c0.9,0,1.6,0.2,2.1,0.7s0.7,1.1,0.7,1.9s-0.3,1.4-0.8,2s-1.3,0.8-2.2,0.8H498.7z
				 M498.7,3.8v3.4h1c0.7,0,1.2-0.2,1.6-0.5s0.5-0.7,0.5-1.3c0-1.1-0.7-1.7-2-1.7H498.7z"/>
			<path class="st16" d="M504.8,3.7c-0.2,0-0.3-0.1-0.4-0.2s-0.2-0.3-0.2-0.4s0.1-0.3,0.2-0.4s0.3-0.2,0.4-0.2
				c0.2,0,0.3,0.1,0.4,0.2s0.2,0.3,0.2,0.4c0,0.2-0.1,0.3-0.2,0.4S505,3.7,504.8,3.7z M505.3,11.3h-1v-6h1V11.3z"/>
			<path class="st16" d="M508.2,10.4L508.2,10.4l0,3.6h-1V5.3h1v1.1h0c0.5-0.8,1.2-1.2,2.1-1.2c0.8,0,1.4,0.3,1.8,0.8
				s0.7,1.3,0.7,2.2c0,1-0.2,1.8-0.7,2.4s-1.2,0.9-2,0.9C509.2,11.4,508.6,11.1,508.2,10.4z M508.2,8v0.8c0,0.5,0.2,0.9,0.5,1.3
				s0.7,0.5,1.2,0.5c0.6,0,1-0.2,1.4-0.7s0.5-1.1,0.5-1.9c0-0.7-0.2-1.2-0.5-1.6s-0.7-0.6-1.3-0.6c-0.6,0-1,0.2-1.3,0.6
				S508.2,7.4,508.2,8z"/>
			<path class="st16" d="M519.1,8.5h-4.2c0,0.7,0.2,1.2,0.5,1.5s0.8,0.5,1.4,0.5c0.7,0,1.3-0.2,1.9-0.7v0.9
				c-0.5,0.4-1.2,0.6-2.1,0.6c-0.8,0-1.5-0.3-2-0.8s-0.7-1.3-0.7-2.3c0-0.9,0.3-1.7,0.8-2.3s1.2-0.9,2-0.9s1.4,0.3,1.8,0.8
				s0.6,1.2,0.6,2.1V8.5z M518.1,7.7c0-0.6-0.1-1-0.4-1.3s-0.6-0.5-1.1-0.5c-0.5,0-0.8,0.2-1.2,0.5s-0.5,0.7-0.6,1.3H518.1z"/>
			<path class="st16" d="M521.5,11.3h-1V2.4h1V11.3z"/>
			<path class="st16" d="M524,3.7c-0.2,0-0.3-0.1-0.4-0.2s-0.2-0.3-0.2-0.4s0.1-0.3,0.2-0.4s0.3-0.2,0.4-0.2c0.2,0,0.3,0.1,0.4,0.2
				s0.2,0.3,0.2,0.4c0,0.2-0.1,0.3-0.2,0.4S524.1,3.7,524,3.7z M524.4,11.3h-1v-6h1V11.3z"/>
			<path class="st16" d="M531.4,11.3h-1V7.8c0-1.3-0.5-1.9-1.4-1.9c-0.5,0-0.9,0.2-1.2,0.5s-0.5,0.8-0.5,1.4v3.4h-1v-6h1v1h0
				c0.5-0.8,1.1-1.1,2-1.1c0.7,0,1.2,0.2,1.5,0.6s0.5,1,0.5,1.8V11.3z"/>
			<path class="st16" d="M538,8.5h-4.2c0,0.7,0.2,1.2,0.5,1.5s0.8,0.5,1.4,0.5c0.7,0,1.3-0.2,1.9-0.7v0.9c-0.5,0.4-1.2,0.6-2.1,0.6
				c-0.8,0-1.5-0.3-2-0.8s-0.7-1.3-0.7-2.3c0-0.9,0.3-1.7,0.8-2.3s1.2-0.9,2-0.9s1.4,0.3,1.8,0.8S538,7.1,538,8V8.5z M537,7.7
				c0-0.6-0.1-1-0.4-1.3s-0.6-0.5-1.1-0.5c-0.5,0-0.8,0.2-1.2,0.5s-0.5,0.7-0.6,1.3H537z"/>
			<path class="st16" d="M539.1,11v-1c0.5,0.4,1.1,0.6,1.7,0.6c0.8,0,1.3-0.3,1.3-0.8c0-0.2,0-0.3-0.1-0.4s-0.2-0.2-0.3-0.3
				s-0.3-0.2-0.4-0.2s-0.3-0.1-0.5-0.2c-0.3-0.1-0.5-0.2-0.7-0.3s-0.4-0.2-0.5-0.4c-0.1-0.1-0.2-0.3-0.3-0.5s-0.1-0.4-0.1-0.6
				c0-0.3,0.1-0.5,0.2-0.7s0.3-0.4,0.5-0.5s0.5-0.3,0.7-0.3s0.6-0.1,0.9-0.1c0.5,0,1,0.1,1.4,0.3v1c-0.4-0.3-0.9-0.4-1.5-0.4
				c-0.2,0-0.3,0-0.5,0.1s-0.3,0.1-0.4,0.2s-0.2,0.2-0.2,0.3s-0.1,0.2-0.1,0.3c0,0.2,0,0.3,0.1,0.4s0.1,0.2,0.2,0.3s0.2,0.2,0.4,0.2
				s0.3,0.1,0.5,0.2c0.3,0.1,0.5,0.2,0.7,0.3s0.4,0.2,0.5,0.4s0.3,0.3,0.3,0.5s0.1,0.4,0.1,0.6c0,0.3-0.1,0.6-0.2,0.8
				s-0.3,0.4-0.5,0.5s-0.5,0.3-0.8,0.3s-0.6,0.1-0.9,0.1C540.1,11.4,539.5,11.3,539.1,11z"/>
		</g>
	</g>
</g>
<g id="shapes">
	<g>
		<path class="st10" d="M59,29c0,5.1-4.1,9.2-9.2,9.2s-9.2-4.1-9.2-9.2c0.1-5.1,4.2-9.2,9.2-9.2C54.9,19.8,59,23.8,59,29 M56.5,41.5
			l-6.7,9.4L43,41.5h-9.8v23.3h33V41.5H56.5z"/>
		<path class="st11" d="M40.6,29c0,5,4.1,9.1,9,9.2l2.3-18.1c-0.7-0.3-1.5-0.3-2.2-0.3C44.7,19.8,40.6,23.8,40.6,29 M43,41.5h-9.8
			v23.3h13l2-16L43,41.5z"/>
		
			<use xlink:href="#a"  width="40" height="40" x="-20" y="-20" transform="matrix(1 0 0 -1 162.522 41.385)" style="overflow:visible;"/>
		<path class="st12" d="M134.2,40.1H70.1"/>
		<path d="M133.1,36.4l6.5,3.7l-6.5,3.7V36.4z"/>
		<path class="st12" d="M248.2,40.1h-64.1"/>
		<path d="M247.1,36.4l6.5,3.7l-6.5,3.7V36.4z"/>
		<path class="st12" d="M361.6,40.1h-64.1"/>
		<path d="M360.5,36.4l6.5,3.7l-6.5,3.7V36.4z"/>
		<path class="st12" d="M474.7,40.1h-64.1"/>
		<path d="M473.6,36.4l6.5,3.7l-6.5,3.7V36.4z"/>
		<path class="st12" d="M365.6,146.9H185"/>
		<path d="M186.1,143.1l-6.5,3.7l6.5,3.7V143.1z"/>
		<path class="st12" d="M143.5,146.9H72c-5.5,0-10-4.5-10-10V73.6"/>
		<path d="M65.8,74.7L62,68.2l-3.7,6.5H65.8z"/>
		
			<use xlink:href="#b"  width="20" height="20" x="-10" y="-10" transform="matrix(1 0 0 -1 272.392 161.244)" style="overflow:visible;"/>
		
			<use xlink:href="#c"  width="20" height="20" x="-10" y="-10" transform="matrix(1 0 0 -1 101.803 161.244)" style="overflow:visible;"/>
		<path class="st12" d="M37.3,73.6V168"/>
		<path d="M33.6,74.7l3.7-6.5l3.7,6.5H33.6z M33.6,166.9l3.7,6.5l3.7-6.5H33.6z"/>
		<path class="st12" d="M503,63v73.9c0,5.5-4.5,10-10,10h-76.5"/>
		<path d="M417.6,143.1l-6.5,3.7l6.5,3.7V143.1z"/>
		
			<use xlink:href="#d"  width="20" height="20" x="-10" y="-10" transform="matrix(1 0 0 -1 101.803 54.413)" style="overflow:visible;"/>
		
			<use xlink:href="#e"  width="20" height="20" x="-10" y="-10" transform="matrix(1 0 0 -1 216.073 54.413)" style="overflow:visible;"/>
		
			<use xlink:href="#f"  width="20" height="20" x="-10" y="-10" transform="matrix(1 0 0 -1 330.343 54.413)" style="overflow:visible;"/>
		
			<use xlink:href="#g"  width="20" height="20" x="-10" y="-10" transform="matrix(1 0 0 -1 444.613 54.413)" style="overflow:visible;"/>
		
			<use xlink:href="#h"  width="20" height="20" x="-10" y="-10" transform="matrix(1 0 0 -1 444.613 161.244)" style="overflow:visible;"/>
		
			<use xlink:href="#i"  width="20" height="20" x="-10" y="-10" transform="matrix(1 0 0 -1 22.218 108.459)" style="overflow:visible;"/>
		
			<use xlink:href="#j"  width="32" height="32" x="-16" y="-16" transform="matrix(1.2496 0 0 -1.2496 388.45 144.5262)" style="overflow:visible;"/>
		
			<use xlink:href="#k"  width="32.6" height="49.9" x="-16.3" y="-25" transform="matrix(1 0 0 -1 162.527 145.193)" style="overflow:visible;"/>
		<path class="st13" d="M49.7,186.5L49.7,186.5l0.1,21.6l-26.2-4l11,13.1V212l15,5.3l9.8-8.4v-24.2L49.7,186.5z"/>
		<path class="st13" d="M23.5,191.3l26.2-4.8l-12.5-9.2v4.3l-13.6,5.4l-4.1,5.3v11.2l4.1,0.6V191.3z M286,28.6L286,28.6l0.1,21.6
			l-26.2-4l11,13.1v-5.3l15.1,5.3l9.8-8.4V26.9L286,28.6z"/>
		<path class="st13" d="M259.8,33.5l26.2-4.8l-12.5-9.2v4.3l-13.6,5.4l-4.1,5.3v11.2l4.1,0.6V33.5z M397.4,28.6L397.4,28.6l0.1,21.6
			l-26.2-4l11,13.1v-5.3l15.1,5.3l9.8-8.4V26.9L397.4,28.6z"/>
		<path class="st13" d="M371.2,33.5l26.2-4.8l-12.5-9.2v4.3l-13.6,5.4l-4,5.3v11.2l4,0.6V33.5z M512.5,28.6L512.5,28.6l0.1,21.6
			l-26.2-4l11,13.1v-5.3l15,5.3l9.8-8.4V26.9L512.5,28.6z"/>
		<path class="st13" d="M486.4,33.5l26.2-4.8L500,19.4v4.3l-13.6,5.4l-4.1,5.3v11.2l4.1,0.6V33.5z"/>
		<g>
			<path class="st14" d="M354.9,173.4H422v26h-67.2V173.4z"/>
		</g>
	</g>
	<g>
	</g>
</g>
<g id="txt">
	<g>
		<g>
			<path class="st16" d="M367.4,183.6h-1.1l-0.9-2.4h-3.6l-0.8,2.4h-1.1l3.2-8.4h1L367.4,183.6z M365.1,180.4l-1.3-3.6
				c0-0.1-0.1-0.3-0.1-0.6h0c0,0.2-0.1,0.4-0.1,0.6l-1.3,3.6H365.1z"/>
			<path class="st16" d="M369.5,182.7L369.5,182.7l0,3.6h-1v-8.8h1v1.1h0c0.5-0.8,1.2-1.2,2.1-1.2c0.8,0,1.4,0.3,1.8,0.8
				s0.7,1.3,0.7,2.2c0,1-0.2,1.8-0.7,2.4s-1.2,0.9-2,0.9C370.5,183.8,369.9,183.4,369.5,182.7z M369.5,180.3v0.8
				c0,0.5,0.2,0.9,0.5,1.3s0.7,0.5,1.2,0.5c0.6,0,1-0.2,1.4-0.7s0.5-1.1,0.5-1.9c0-0.7-0.2-1.2-0.5-1.6s-0.7-0.6-1.3-0.6
				c-0.6,0-1,0.2-1.3,0.6S369.5,179.7,369.5,180.3z"/>
			<path class="st16" d="M376.5,183.6h-1v-8.9h1V183.6z"/>
			<path class="st16" d="M379,176.1c-0.2,0-0.3-0.1-0.4-0.2s-0.2-0.3-0.2-0.4s0.1-0.3,0.2-0.4s0.3-0.2,0.4-0.2
				c0.2,0,0.3,0.1,0.4,0.2s0.2,0.3,0.2,0.4c0,0.2-0.1,0.3-0.2,0.4S379.2,176.1,379,176.1z M379.5,183.6h-1v-6h1V183.6z"/>
			<path class="st16" d="M385.5,183.3c-0.5,0.3-1,0.4-1.6,0.4c-0.9,0-1.5-0.3-2.1-0.8s-0.8-1.3-0.8-2.2c0-1,0.3-1.8,0.8-2.4
				s1.3-0.9,2.3-0.9c0.5,0,1,0.1,1.4,0.3v1c-0.4-0.3-0.9-0.5-1.4-0.5c-0.6,0-1.1,0.2-1.5,0.7s-0.6,1-0.6,1.7c0,0.7,0.2,1.3,0.6,1.7
				s0.9,0.6,1.5,0.6c0.5,0,1-0.2,1.5-0.5V183.3z"/>
			<path class="st16" d="M391.3,183.6h-1v-0.9h0c-0.4,0.7-1,1.1-1.8,1.1c-0.6,0-1.1-0.2-1.4-0.5s-0.5-0.7-0.5-1.3c0-1.1,0.7-1.8,2-2
				l1.8-0.3c0-1-0.4-1.5-1.2-1.5c-0.7,0-1.4,0.2-2,0.7v-1c0.6-0.4,1.3-0.6,2-0.6c1.4,0,2.1,0.7,2.1,2.2V183.6z M390.3,180.6
				l-1.4,0.2c-0.4,0.1-0.8,0.2-1,0.3s-0.3,0.4-0.3,0.8c0,0.3,0.1,0.5,0.3,0.7s0.5,0.3,0.8,0.3c0.5,0,0.9-0.2,1.2-0.5
				s0.5-0.8,0.5-1.3V180.6z"/>
			<path class="st16" d="M395.9,183.6c-0.2,0.1-0.5,0.2-0.9,0.2c-1.1,0-1.6-0.6-1.6-1.8v-3.6h-1v-0.8h1v-1.5l1-0.3v1.8h1.5v0.8h-1.5
				v3.4c0,0.4,0.1,0.7,0.2,0.9s0.4,0.3,0.7,0.3c0.2,0,0.5-0.1,0.6-0.2V183.6z"/>
			<path class="st16" d="M397.7,176.1c-0.2,0-0.3-0.1-0.4-0.2s-0.2-0.3-0.2-0.4s0.1-0.3,0.2-0.4s0.3-0.2,0.4-0.2
				c0.2,0,0.3,0.1,0.4,0.2s0.2,0.3,0.2,0.4c0,0.2-0.1,0.3-0.2,0.4S397.9,176.1,397.7,176.1z M398.2,183.6h-1v-6h1V183.6z"/>
			<path class="st16" d="M404.9,177.6l-2.4,6h-0.9l-2.3-6h1.1l1.5,4.4c0.1,0.3,0.2,0.6,0.2,0.8h0c0-0.3,0.1-0.6,0.2-0.8l1.6-4.4
				H404.9z"/>
			<path class="st16" d="M408.4,183.8c-0.9,0-1.6-0.3-2.1-0.8s-0.8-1.3-0.8-2.2c0-1,0.3-1.8,0.8-2.4s1.3-0.8,2.2-0.8
				c0.9,0,1.6,0.3,2.1,0.8s0.8,1.3,0.8,2.3c0,1-0.3,1.7-0.8,2.3S409.4,183.8,408.4,183.8z M408.5,178.3c-0.6,0-1.1,0.2-1.5,0.6
				s-0.5,1-0.5,1.7c0,0.7,0.2,1.3,0.5,1.7s0.8,0.6,1.5,0.6c0.6,0,1.1-0.2,1.4-0.6s0.5-1,0.5-1.7c0-0.8-0.2-1.3-0.5-1.7
				S409.1,178.3,408.5,178.3z"/>
			<path class="st16" d="M412.6,183.4v-1c0.5,0.4,1.1,0.6,1.7,0.6c0.8,0,1.3-0.3,1.3-0.8c0-0.2,0-0.3-0.1-0.4s-0.2-0.2-0.3-0.3
				s-0.3-0.2-0.4-0.2s-0.3-0.1-0.5-0.2c-0.3-0.1-0.5-0.2-0.7-0.3s-0.4-0.2-0.5-0.4s-0.2-0.3-0.3-0.5s-0.1-0.4-0.1-0.6
				c0-0.3,0.1-0.5,0.2-0.7s0.3-0.4,0.5-0.5s0.5-0.3,0.7-0.3s0.6-0.1,0.9-0.1c0.5,0,1,0.1,1.4,0.3v1c-0.4-0.3-0.9-0.4-1.5-0.4
				c-0.2,0-0.3,0-0.5,0.1s-0.3,0.1-0.4,0.2s-0.2,0.2-0.2,0.3s-0.1,0.2-0.1,0.3c0,0.2,0,0.3,0.1,0.4s0.1,0.2,0.2,0.3s0.2,0.2,0.4,0.2
				s0.3,0.1,0.5,0.2c0.3,0.1,0.5,0.2,0.7,0.3s0.4,0.2,0.5,0.4s0.3,0.3,0.3,0.5s0.1,0.4,0.1,0.6c0,0.3-0.1,0.6-0.2,0.8
				s-0.3,0.4-0.5,0.5s-0.5,0.3-0.8,0.3s-0.6,0.1-0.9,0.1C413.6,183.8,413.1,183.6,412.6,183.4z"/>
			<path class="st16" d="M361.8,188.2l-2.4,8.4h-1.2l-1.7-6.1c-0.1-0.3-0.1-0.5-0.1-0.9h0c0,0.3-0.1,0.6-0.2,0.8l-1.7,6.2h-1.1
				l-2.5-8.4h1.1l1.8,6.4c0.1,0.3,0.1,0.6,0.1,0.8h0c0-0.2,0.1-0.5,0.2-0.8l1.9-6.4h0.9l1.8,6.5c0.1,0.2,0.1,0.5,0.1,0.8h0
				c0-0.2,0.1-0.5,0.2-0.8l1.7-6.5H361.8z"/>
			<path class="st16" d="M367.3,193.9h-4.2c0,0.7,0.2,1.2,0.5,1.5s0.8,0.5,1.4,0.5c0.7,0,1.3-0.2,1.9-0.7v0.9
				c-0.5,0.4-1.2,0.6-2.1,0.6c-0.8,0-1.5-0.3-2-0.8s-0.7-1.3-0.7-2.3c0-0.9,0.3-1.7,0.8-2.3s1.2-0.9,2-0.9s1.4,0.3,1.8,0.8
				s0.6,1.2,0.6,2.1V193.9z M366.3,193c0-0.6-0.1-1-0.4-1.3s-0.6-0.5-1.1-0.5c-0.5,0-0.8,0.2-1.2,0.5s-0.5,0.7-0.6,1.3H366.3z"/>
			<path class="st16" d="M369.8,195.7L369.8,195.7l0,0.9h-1v-8.9h1v3.9h0c0.5-0.8,1.2-1.2,2.1-1.2c0.8,0,1.4,0.3,1.8,0.8
				s0.7,1.3,0.7,2.2c0,1-0.2,1.8-0.7,2.4s-1.2,0.9-2,0.9C370.8,196.8,370.2,196.4,369.8,195.7z M369.7,193.3v0.8
				c0,0.5,0.2,0.9,0.5,1.3s0.7,0.5,1.2,0.5c0.6,0,1-0.2,1.4-0.7s0.5-1.1,0.5-1.9c0-0.7-0.2-1.2-0.5-1.6s-0.7-0.6-1.3-0.6
				c-0.6,0-1,0.2-1.3,0.6S369.7,192.7,369.7,193.3z"/>
			<path class="st16" d="M384.3,196.6h-1v-1h0c-0.4,0.8-1.1,1.2-2.1,1.2c-0.8,0-1.4-0.3-1.8-0.8s-0.7-1.3-0.7-2.2
				c0-1,0.3-1.8,0.8-2.4s1.2-0.9,2-0.9c0.8,0,1.4,0.3,1.8,1h0v-3.7h1V196.6z M383.3,193.9V193c0-0.5-0.2-0.9-0.5-1.2
				s-0.7-0.5-1.2-0.5c-0.6,0-1,0.2-1.4,0.6s-0.5,1-0.5,1.8c0,0.7,0.2,1.2,0.5,1.6s0.8,0.6,1.3,0.6c0.5,0,1-0.2,1.3-0.6
				S383.3,194.5,383.3,193.9z"/>
			<path class="st16" d="M388.8,196.8c-0.9,0-1.6-0.3-2.1-0.8s-0.8-1.3-0.8-2.2c0-1,0.3-1.8,0.8-2.4s1.3-0.8,2.2-0.8
				c0.9,0,1.6,0.3,2.1,0.8s0.8,1.3,0.8,2.3c0,1-0.3,1.7-0.8,2.3S389.7,196.8,388.8,196.8z M388.8,191.3c-0.6,0-1.1,0.2-1.5,0.6
				s-0.5,1-0.5,1.7c0,0.7,0.2,1.3,0.5,1.7s0.8,0.6,1.5,0.6c0.6,0,1.1-0.2,1.4-0.6s0.5-1,0.5-1.7c0-0.8-0.2-1.3-0.5-1.7
				S389.5,191.3,388.8,191.3z"/>
			<path class="st16" d="M403.3,196.6h-1.1l-0.9-2.4h-3.6l-0.8,2.4h-1.1l3.2-8.4h1L403.3,196.6z M401,193.4l-1.3-3.6
				c0-0.1-0.1-0.3-0.1-0.6h0c0,0.2-0.1,0.4-0.1,0.6l-1.3,3.6H401z"/>
			<path class="st16" d="M408.6,190.9l-3.6,4.9h3.5v0.8h-4.9v-0.3l3.6-4.9h-3.2v-0.8h4.6V190.9z"/>
			<path class="st16" d="M414.7,196.6h-1v-0.9h0c-0.4,0.7-1,1.1-1.9,1.1c-1.4,0-2.1-0.9-2.1-2.6v-3.6h1v3.4c0,1.3,0.5,1.9,1.5,1.9
				c0.5,0,0.9-0.2,1.2-0.5s0.5-0.8,0.5-1.4v-3.5h1V196.6z"/>
			<path class="st16" d="M419.8,191.6c-0.2-0.1-0.4-0.2-0.7-0.2c-0.4,0-0.8,0.2-1,0.6s-0.4,0.9-0.4,1.6v3.1h-1v-6h1v1.2h0
				c0.1-0.4,0.3-0.8,0.6-1s0.6-0.4,0.9-0.4c0.3,0,0.4,0,0.6,0.1V191.6z"/>
			<path class="st16" d="M425.7,193.9h-4.2c0,0.7,0.2,1.2,0.5,1.5s0.8,0.5,1.4,0.5c0.7,0,1.3-0.2,1.9-0.7v0.9
				c-0.5,0.4-1.2,0.6-2.1,0.6c-0.8,0-1.5-0.3-2-0.8s-0.7-1.3-0.7-2.3c0-0.9,0.3-1.7,0.8-2.3s1.2-0.9,2-0.9s1.4,0.3,1.8,0.8
				s0.6,1.2,0.6,2.1V193.9z M424.7,193c0-0.6-0.1-1-0.4-1.3s-0.6-0.5-1.1-0.5c-0.5,0-0.8,0.2-1.2,0.5s-0.5,0.7-0.6,1.3H424.7z"/>
		</g>
	</g>
	<g>
		<g>
			<path class="st16" d="M139.9,183.7h-1.1l-0.9-2.4h-3.6l-0.8,2.4h-1.1l3.2-8.4h1L139.9,183.7z M137.6,180.4l-1.3-3.6
				c0-0.1-0.1-0.3-0.1-0.6h0c0,0.2-0.1,0.4-0.1,0.6l-1.3,3.6H137.6z"/>
			<path class="st16" d="M142,182.8L142,182.8l0,3.6h-1v-8.8h1v1.1h0c0.5-0.8,1.2-1.2,2.1-1.2c0.8,0,1.4,0.3,1.8,0.8
				s0.7,1.3,0.7,2.2c0,1-0.2,1.8-0.7,2.4s-1.2,0.9-2,0.9C143,183.8,142.4,183.5,142,182.8z M142,180.4v0.8c0,0.5,0.2,0.9,0.5,1.3
				s0.7,0.5,1.2,0.5c0.6,0,1-0.2,1.4-0.7s0.5-1.1,0.5-1.9c0-0.7-0.2-1.2-0.5-1.6s-0.7-0.6-1.3-0.6c-0.6,0-1,0.2-1.3,0.6
				S142,179.8,142,180.4z"/>
			<path class="st16" d="M149.1,182.8L149.1,182.8l0,3.6h-1v-8.8h1v1.1h0c0.5-0.8,1.2-1.2,2.1-1.2c0.8,0,1.4,0.3,1.8,0.8
				s0.7,1.3,0.7,2.2c0,1-0.2,1.8-0.7,2.4s-1.2,0.9-2,0.9C150.1,183.8,149.5,183.5,149.1,182.8z M149,180.4v0.8
				c0,0.5,0.2,0.9,0.5,1.3s0.7,0.5,1.2,0.5c0.6,0,1-0.2,1.4-0.7s0.5-1.1,0.5-1.9c0-0.7-0.2-1.2-0.5-1.6s-0.7-0.6-1.3-0.6
				c-0.6,0-1,0.2-1.3,0.6S149,179.8,149,180.4z"/>
			<path class="st16" d="M156.1,183.7h-1v-8.9h1V183.7z"/>
			<path class="st16" d="M158.6,176.2c-0.2,0-0.3-0.1-0.4-0.2s-0.2-0.3-0.2-0.4s0.1-0.3,0.2-0.4s0.3-0.2,0.4-0.2
				c0.2,0,0.3,0.1,0.4,0.2s0.2,0.3,0.2,0.4c0,0.2-0.1,0.3-0.2,0.4S158.8,176.2,158.6,176.2z M159.1,183.7h-1v-6h1V183.7z"/>
			<path class="st16" d="M165.1,183.4c-0.5,0.3-1,0.4-1.6,0.4c-0.9,0-1.5-0.3-2.1-0.8s-0.8-1.3-0.8-2.2c0-1,0.3-1.8,0.8-2.4
				s1.3-0.9,2.3-0.9c0.5,0,1,0.1,1.4,0.3v1c-0.4-0.3-0.9-0.5-1.4-0.5c-0.6,0-1.1,0.2-1.5,0.7s-0.6,1-0.6,1.7c0,0.7,0.2,1.3,0.6,1.7
				s0.9,0.6,1.5,0.6c0.5,0,1-0.2,1.5-0.5V183.4z"/>
			<path class="st16" d="M170.9,183.7h-1v-0.9h0c-0.4,0.7-1,1.1-1.8,1.1c-0.6,0-1.1-0.2-1.4-0.5s-0.5-0.7-0.5-1.3c0-1.1,0.7-1.8,2-2
				l1.8-0.3c0-1-0.4-1.5-1.2-1.5c-0.7,0-1.4,0.2-2,0.7v-1c0.6-0.4,1.3-0.6,2-0.6c1.4,0,2.1,0.7,2.1,2.2V183.7z M169.9,180.6
				l-1.4,0.2c-0.4,0.1-0.8,0.2-1,0.3s-0.3,0.4-0.3,0.8c0,0.3,0.1,0.5,0.3,0.7s0.5,0.3,0.8,0.3c0.5,0,0.9-0.2,1.2-0.5
				s0.5-0.8,0.5-1.3V180.6z"/>
			<path class="st16" d="M175.5,183.6c-0.2,0.1-0.5,0.2-0.9,0.2c-1.1,0-1.6-0.6-1.6-1.8v-3.6h-1v-0.8h1v-1.5l1-0.3v1.8h1.5v0.8H174
				v3.4c0,0.4,0.1,0.7,0.2,0.9s0.4,0.3,0.7,0.3c0.2,0,0.5-0.1,0.6-0.2V183.6z"/>
			<path class="st16" d="M177.3,176.2c-0.2,0-0.3-0.1-0.4-0.2s-0.2-0.3-0.2-0.4s0.1-0.3,0.2-0.4s0.3-0.2,0.4-0.2
				c0.2,0,0.3,0.1,0.4,0.2s0.2,0.3,0.2,0.4c0,0.2-0.1,0.3-0.2,0.4S177.5,176.2,177.3,176.2z M177.8,183.7h-1v-6h1V183.7z"/>
			<path class="st16" d="M182.3,183.8c-0.9,0-1.6-0.3-2.1-0.8s-0.8-1.3-0.8-2.2c0-1,0.3-1.8,0.8-2.4s1.3-0.8,2.2-0.8
				c0.9,0,1.6,0.3,2.1,0.8s0.8,1.3,0.8,2.3c0,1-0.3,1.7-0.8,2.3S183.2,183.8,182.3,183.8z M182.3,178.3c-0.6,0-1.1,0.2-1.5,0.6
				s-0.5,1-0.5,1.7c0,0.7,0.2,1.3,0.5,1.7s0.8,0.6,1.5,0.6c0.6,0,1.1-0.2,1.4-0.6s0.5-1,0.5-1.7c0-0.8-0.2-1.3-0.5-1.7
				S182.9,178.3,182.3,178.3z"/>
			<path class="st16" d="M191.8,183.7h-1v-3.4c0-1.3-0.5-1.9-1.4-1.9c-0.5,0-0.9,0.2-1.2,0.5s-0.5,0.8-0.5,1.4v3.4h-1v-6h1v1h0
				c0.5-0.8,1.1-1.1,2-1.1c0.7,0,1.2,0.2,1.5,0.6s0.5,1,0.5,1.8V183.7z"/>
			<path class="st16" d="M118.3,196.7h-1v-8.4h1V196.7z"/>
			<path class="st16" d="M125.4,196.7h-1v-3.4c0-1.3-0.5-1.9-1.4-1.9c-0.5,0-0.9,0.2-1.2,0.5s-0.5,0.8-0.5,1.4v3.4h-1v-6h1v1h0
				c0.5-0.8,1.1-1.1,2-1.1c0.7,0,1.2,0.2,1.5,0.6s0.5,1,0.5,1.8V196.7z"/>
			<path class="st16" d="M126.9,196.5v-1c0.5,0.4,1.1,0.6,1.7,0.6c0.8,0,1.3-0.3,1.3-0.8c0-0.2,0-0.3-0.1-0.4s-0.2-0.2-0.3-0.3
				s-0.3-0.2-0.4-0.2s-0.3-0.1-0.5-0.2c-0.3-0.1-0.5-0.2-0.7-0.3s-0.4-0.2-0.5-0.4s-0.2-0.3-0.3-0.5s-0.1-0.4-0.1-0.6
				c0-0.3,0.1-0.5,0.2-0.7s0.3-0.4,0.5-0.5s0.5-0.3,0.7-0.3s0.6-0.1,0.9-0.1c0.5,0,1,0.1,1.4,0.3v1c-0.4-0.3-0.9-0.4-1.5-0.4
				c-0.2,0-0.3,0-0.5,0.1s-0.3,0.1-0.4,0.2s-0.2,0.2-0.2,0.3s-0.1,0.2-0.1,0.3c0,0.2,0,0.3,0.1,0.4s0.1,0.2,0.2,0.3s0.2,0.2,0.4,0.2
				s0.3,0.1,0.5,0.2c0.3,0.1,0.5,0.2,0.7,0.3s0.4,0.2,0.5,0.4s0.3,0.3,0.3,0.5s0.1,0.4,0.1,0.6c0,0.3-0.1,0.6-0.2,0.8
				s-0.3,0.4-0.5,0.5s-0.5,0.3-0.8,0.3s-0.6,0.1-0.9,0.1C127.8,196.8,127.3,196.7,126.9,196.5z"/>
			<path class="st16" d="M132.8,189.2c-0.2,0-0.3-0.1-0.4-0.2s-0.2-0.3-0.2-0.4s0.1-0.3,0.2-0.4s0.3-0.2,0.4-0.2
				c0.2,0,0.3,0.1,0.4,0.2s0.2,0.3,0.2,0.4c0,0.2-0.1,0.3-0.2,0.4S133,189.2,132.8,189.2z M133.3,196.7h-1v-6h1V196.7z"/>
			<path class="st16" d="M140.4,196.2c0,2.2-1.1,3.3-3.2,3.3c-0.7,0-1.4-0.1-1.9-0.4v-1c0.7,0.4,1.3,0.6,1.9,0.6
				c1.5,0,2.2-0.8,2.2-2.4v-0.7h0c-0.5,0.8-1.1,1.1-2.1,1.1c-0.7,0-1.3-0.3-1.8-0.8s-0.7-1.2-0.7-2.1c0-1,0.2-1.8,0.7-2.4
				s1.2-0.9,2-0.9c0.8,0,1.4,0.3,1.8,1h0v-0.8h1V196.2z M139.4,194v-0.9c0-0.5-0.2-0.9-0.5-1.2s-0.7-0.5-1.2-0.5
				c-0.6,0-1.1,0.2-1.4,0.6s-0.5,1-0.5,1.8c0,0.7,0.2,1.2,0.5,1.6s0.7,0.6,1.3,0.6c0.5,0,1-0.2,1.3-0.6S139.4,194.6,139.4,194z"/>
			<path class="st16" d="M147.3,196.7h-1v-3.5c0-1.3-0.5-1.9-1.4-1.9c-0.5,0-0.9,0.2-1.2,0.5s-0.5,0.8-0.5,1.4v3.4h-1v-8.9h1v3.9h0
				c0.5-0.8,1.1-1.1,2-1.1c1.4,0,2,0.8,2,2.4V196.7z"/>
			<path class="st16" d="M152,196.6c-0.2,0.1-0.5,0.2-0.9,0.2c-1.1,0-1.6-0.6-1.6-1.8v-3.6h-1v-0.8h1v-1.5l1-0.3v1.8h1.5v0.8h-1.5
				v3.4c0,0.4,0.1,0.7,0.2,0.9s0.4,0.3,0.7,0.3c0.2,0,0.5-0.1,0.6-0.2V196.6z"/>
			<path class="st16" d="M152.9,196.5v-1c0.5,0.4,1.1,0.6,1.7,0.6c0.8,0,1.3-0.3,1.3-0.8c0-0.2,0-0.3-0.1-0.4s-0.2-0.2-0.3-0.3
				s-0.3-0.2-0.4-0.2s-0.3-0.1-0.5-0.2c-0.3-0.1-0.5-0.2-0.7-0.3s-0.4-0.2-0.5-0.4s-0.2-0.3-0.3-0.5s-0.1-0.4-0.1-0.6
				c0-0.3,0.1-0.5,0.2-0.7s0.3-0.4,0.5-0.5s0.5-0.3,0.7-0.3s0.6-0.1,0.9-0.1c0.5,0,1,0.1,1.4,0.3v1c-0.4-0.3-0.9-0.4-1.5-0.4
				c-0.2,0-0.3,0-0.5,0.1s-0.3,0.1-0.4,0.2s-0.2,0.2-0.2,0.3s-0.1,0.2-0.1,0.3c0,0.2,0,0.3,0.1,0.4s0.1,0.2,0.2,0.3s0.2,0.2,0.4,0.2
				s0.3,0.1,0.5,0.2c0.3,0.1,0.5,0.2,0.7,0.3s0.4,0.2,0.5,0.4s0.3,0.3,0.3,0.5s0.1,0.4,0.1,0.6c0,0.3-0.1,0.6-0.2,0.8
				s-0.3,0.4-0.5,0.5s-0.5,0.3-0.8,0.3s-0.6,0.1-0.9,0.1C153.9,196.8,153.4,196.7,152.9,196.5z"/>
			<path class="st16" d="M166.8,196.7h-1v-1h0c-0.4,0.8-1.1,1.2-2.1,1.2c-0.8,0-1.4-0.3-1.8-0.8s-0.7-1.3-0.7-2.2
				c0-1,0.3-1.8,0.8-2.4s1.2-0.9,2-0.9c0.8,0,1.4,0.3,1.8,1h0v-3.7h1V196.7z M165.8,194v-0.9c0-0.5-0.2-0.9-0.5-1.2
				s-0.7-0.5-1.2-0.5c-0.6,0-1,0.2-1.4,0.6s-0.5,1-0.5,1.8c0,0.7,0.2,1.2,0.5,1.6s0.8,0.6,1.3,0.6c0.5,0,1-0.2,1.3-0.6
				S165.8,194.6,165.8,194z"/>
			<path class="st16" d="M171.3,196.8c-0.9,0-1.6-0.3-2.1-0.8s-0.8-1.3-0.8-2.2c0-1,0.3-1.8,0.8-2.4s1.3-0.8,2.2-0.8
				c0.9,0,1.6,0.3,2.1,0.8s0.8,1.3,0.8,2.3c0,1-0.3,1.7-0.8,2.3S172.2,196.8,171.3,196.8z M171.4,191.3c-0.6,0-1.1,0.2-1.5,0.6
				s-0.5,1-0.5,1.7c0,0.7,0.2,1.3,0.5,1.7s0.8,0.6,1.5,0.6c0.6,0,1.1-0.2,1.4-0.6s0.5-1,0.5-1.7c0-0.8-0.2-1.3-0.5-1.7
				S172,191.3,171.4,191.3z"/>
			<path class="st16" d="M185.8,196.7h-1.1l-0.9-2.4h-3.6l-0.8,2.4h-1.1l3.2-8.4h1L185.8,196.7z M183.5,193.4l-1.3-3.6
				c0-0.1-0.1-0.3-0.1-0.6h0c0,0.2-0.1,0.4-0.1,0.6l-1.3,3.6H183.5z"/>
			<path class="st16" d="M191.1,191l-3.6,4.9h3.5v0.8h-4.9v-0.3l3.6-4.9h-3.2v-0.8h4.6V191z"/>
			<path class="st16" d="M197.2,196.7h-1v-0.9h0c-0.4,0.7-1,1.1-1.9,1.1c-1.4,0-2.1-0.9-2.1-2.6v-3.6h1v3.4c0,1.3,0.5,1.9,1.5,1.9
				c0.5,0,0.9-0.2,1.2-0.5s0.5-0.8,0.5-1.4v-3.5h1V196.7z"/>
			<path class="st16" d="M202.3,191.6c-0.2-0.1-0.4-0.2-0.7-0.2c-0.4,0-0.8,0.2-1,0.6s-0.4,0.9-0.4,1.6v3.1h-1v-6h1v1.2h0
				c0.1-0.4,0.3-0.8,0.6-1s0.6-0.4,0.9-0.4c0.3,0,0.4,0,0.6,0.1V191.6z"/>
			<path class="st16" d="M208.2,193.9H204c0,0.7,0.2,1.2,0.5,1.5s0.8,0.5,1.4,0.5c0.7,0,1.3-0.2,1.9-0.7v0.9
				c-0.5,0.4-1.2,0.6-2.1,0.6c-0.8,0-1.5-0.3-2-0.8s-0.7-1.3-0.7-2.3c0-0.9,0.3-1.7,0.8-2.3s1.2-0.9,2-0.9s1.4,0.3,1.8,0.8
				s0.6,1.2,0.6,2.1V193.9z M207.2,193.1c0-0.6-0.1-1-0.4-1.3s-0.6-0.5-1.1-0.5c-0.5,0-0.8,0.2-1.2,0.5s-0.5,0.7-0.6,1.3H207.2z"/>
		</g>
	</g>
	<g>
		<g>
			<path class="st16" d="M7.3,230.7H6.3l-0.9-2.4H1.8L1,230.7h-1.1l3.2-8.4h1L7.3,230.7z M5,227.4l-1.3-3.6c0-0.1-0.1-0.3-0.1-0.6h0
				c0,0.2-0.1,0.4-0.1,0.6l-1.3,3.6H5z"/>
			<path class="st16" d="M12.7,224.9l-3.6,4.9h3.5v0.8H7.7v-0.3l3.6-4.9H8v-0.8h4.6V224.9z"/>
			<path class="st16" d="M18.8,230.7h-1v-0.9h0c-0.4,0.7-1,1.1-1.9,1.1c-1.4,0-2.1-0.9-2.1-2.6v-3.6h1v3.4c0,1.3,0.5,1.9,1.5,1.9
				c0.5,0,0.9-0.2,1.2-0.5s0.5-0.8,0.5-1.4v-3.5h1V230.7z"/>
			<path class="st16" d="M23.9,225.6c-0.2-0.1-0.4-0.2-0.7-0.2c-0.4,0-0.8,0.2-1,0.6s-0.4,0.9-0.4,1.6v3.1h-1v-6h1v1.2h0
				c0.1-0.4,0.3-0.8,0.6-1s0.6-0.4,0.9-0.4c0.3,0,0.4,0,0.6,0.1V225.6z"/>
			<path class="st16" d="M29.8,227.9h-4.2c0,0.7,0.2,1.2,0.5,1.5s0.8,0.5,1.4,0.5c0.7,0,1.3-0.2,1.9-0.7v0.9
				c-0.5,0.4-1.2,0.6-2.1,0.6c-0.8,0-1.5-0.3-2-0.8s-0.7-1.3-0.7-2.3c0-0.9,0.3-1.7,0.8-2.3s1.2-0.9,2-0.9s1.4,0.3,1.8,0.8
				s0.6,1.2,0.6,2.1V227.9z M28.8,227.1c0-0.6-0.1-1-0.4-1.3s-0.6-0.5-1.1-0.5c-0.5,0-0.8,0.2-1.2,0.5s-0.5,0.7-0.6,1.3H28.8z"/>
			<path class="st16" d="M34.7,230.7v-8.4h2.4c0.7,0,1.3,0.2,1.7,0.5s0.6,0.8,0.6,1.4c0,0.5-0.1,0.9-0.4,1.2s-0.6,0.6-1.1,0.8v0
				c0.6,0.1,1,0.3,1.4,0.6s0.5,0.8,0.5,1.4c0,0.7-0.3,1.3-0.8,1.7s-1.2,0.7-2,0.7H34.7z M35.7,223.2v2.7h1c0.5,0,1-0.1,1.3-0.4
				s0.5-0.6,0.5-1.1c0-0.8-0.5-1.2-1.6-1.2H35.7z M35.7,226.8v3H37c0.6,0,1-0.1,1.3-0.4s0.5-0.6,0.5-1.1c0-1-0.7-1.5-2-1.5H35.7z"/>
			<path class="st16" d="M44,230.8c-0.9,0-1.6-0.3-2.1-0.8s-0.8-1.3-0.8-2.2c0-1,0.3-1.8,0.8-2.4s1.3-0.8,2.2-0.8
				c0.9,0,1.6,0.3,2.1,0.8s0.8,1.3,0.8,2.3c0,1-0.3,1.7-0.8,2.3S44.9,230.8,44,230.8z M44,225.3c-0.6,0-1.1,0.2-1.5,0.6
				s-0.5,1-0.5,1.7c0,0.7,0.2,1.3,0.5,1.7s0.8,0.6,1.5,0.6c0.6,0,1.1-0.2,1.4-0.6s0.5-1,0.5-1.7c0-0.8-0.2-1.3-0.5-1.7
				S44.6,225.3,44,225.3z"/>
			<path class="st16" d="M52.8,230.7h-1v-0.9h0c-0.4,0.7-1,1.1-1.8,1.1c-0.6,0-1.1-0.2-1.4-0.5s-0.5-0.7-0.5-1.3c0-1.1,0.7-1.8,2-2
				l1.8-0.3c0-1-0.4-1.5-1.2-1.5c-0.7,0-1.4,0.2-2,0.7v-1c0.6-0.4,1.3-0.6,2-0.6c1.4,0,2.1,0.7,2.1,2.2V230.7z M51.8,227.6l-1.4,0.2
				c-0.4,0.1-0.8,0.2-1,0.3S49,228.6,49,229c0,0.3,0.1,0.5,0.3,0.7s0.5,0.3,0.8,0.3c0.5,0,0.9-0.2,1.2-0.5s0.5-0.8,0.5-1.3V227.6z"
				/>
			<path class="st16" d="M57.8,225.6c-0.2-0.1-0.4-0.2-0.7-0.2c-0.4,0-0.8,0.2-1,0.6s-0.4,0.9-0.4,1.6v3.1h-1v-6h1v1.2h0
				c0.1-0.4,0.3-0.8,0.6-1s0.6-0.4,0.9-0.4c0.3,0,0.4,0,0.6,0.1V225.6z"/>
			<path class="st16" d="M64,230.7h-1v-1h0c-0.4,0.8-1.1,1.2-2.1,1.2c-0.8,0-1.4-0.3-1.8-0.8s-0.7-1.3-0.7-2.2c0-1,0.3-1.8,0.8-2.4
				s1.2-0.9,2-0.9c0.8,0,1.4,0.3,1.8,1h0v-3.7h1V230.7z M63,228v-0.9c0-0.5-0.2-0.9-0.5-1.2s-0.7-0.5-1.2-0.5c-0.6,0-1,0.2-1.4,0.6
				s-0.5,1-0.5,1.8c0,0.7,0.2,1.2,0.5,1.6s0.8,0.6,1.3,0.6c0.5,0,1-0.2,1.3-0.6S63,228.5,63,228z"/>
			<path class="st16" d="M65.6,230.5v-1c0.5,0.4,1.1,0.6,1.7,0.6c0.8,0,1.3-0.3,1.3-0.8c0-0.2,0-0.3-0.1-0.4s-0.2-0.2-0.3-0.3
				s-0.3-0.2-0.4-0.2s-0.3-0.1-0.5-0.2c-0.3-0.1-0.5-0.2-0.7-0.3s-0.4-0.2-0.5-0.4s-0.2-0.3-0.3-0.5s-0.1-0.4-0.1-0.6
				c0-0.3,0.1-0.5,0.2-0.7s0.3-0.4,0.5-0.5s0.5-0.3,0.7-0.3s0.6-0.1,0.9-0.1c0.5,0,1,0.1,1.4,0.3v1c-0.4-0.3-0.9-0.4-1.5-0.4
				c-0.2,0-0.3,0-0.5,0.1s-0.3,0.1-0.4,0.2s-0.2,0.2-0.2,0.3s-0.1,0.2-0.1,0.3c0,0.2,0,0.3,0.1,0.4s0.1,0.2,0.2,0.3s0.2,0.2,0.4,0.2
				s0.3,0.1,0.5,0.2c0.3,0.1,0.5,0.2,0.7,0.3s0.4,0.2,0.5,0.4s0.3,0.3,0.3,0.5s0.1,0.4,0.1,0.6c0,0.3-0.1,0.6-0.2,0.8
				s-0.3,0.4-0.5,0.5s-0.5,0.3-0.8,0.3s-0.6,0.1-0.9,0.1C66.5,230.8,66,230.7,65.6,230.5z"/>
		</g>
	</g>
	<g>
		<g>
			<path class="st16" d="M25.2,10.2h-4.5V1.8H25v0.9h-3.3v2.8h3v0.9h-3v2.9h3.5V10.2z"/>
			<path class="st16" d="M31.6,10.2h-1V6.8c0-1.3-0.5-1.9-1.4-1.9c-0.5,0-0.9,0.2-1.2,0.5s-0.5,0.8-0.5,1.4v3.4h-1v-6h1v1h0
				c0.5-0.8,1.1-1.1,2-1.1c0.7,0,1.2,0.2,1.5,0.6s0.5,1,0.5,1.8V10.2z"/>
			<path class="st16" d="M38.6,9.7c0,2.2-1.1,3.3-3.2,3.3c-0.7,0-1.4-0.1-1.9-0.4v-1c0.7,0.4,1.3,0.6,1.9,0.6c1.5,0,2.2-0.8,2.2-2.4
				V9.2h0c-0.5,0.8-1.1,1.1-2.1,1.1c-0.7,0-1.3-0.3-1.8-0.8s-0.7-1.2-0.7-2.1c0-1,0.2-1.8,0.7-2.4s1.2-0.9,2-0.9
				c0.8,0,1.4,0.3,1.8,1h0V4.2h1V9.7z M37.6,7.5V6.6c0-0.5-0.2-0.9-0.5-1.2S36.4,4.9,36,4.9c-0.6,0-1.1,0.2-1.4,0.6s-0.5,1-0.5,1.8
				c0,0.7,0.2,1.2,0.5,1.6s0.7,0.6,1.3,0.6c0.5,0,1-0.2,1.3-0.6S37.6,8.1,37.6,7.5z"/>
			<path class="st16" d="M45.4,7.5h-4.2c0,0.7,0.2,1.2,0.5,1.5s0.8,0.5,1.4,0.5c0.7,0,1.3-0.2,1.9-0.7v0.9c-0.5,0.4-1.2,0.6-2.1,0.6
				c-0.8,0-1.5-0.3-2-0.8s-0.7-1.3-0.7-2.3c0-0.9,0.3-1.7,0.8-2.3s1.2-0.9,2-0.9s1.4,0.3,1.8,0.8S45.4,6,45.4,7V7.5z M44.4,6.6
				c0-0.6-0.1-1-0.4-1.3s-0.6-0.5-1.1-0.5c-0.5,0-0.8,0.2-1.2,0.5s-0.5,0.7-0.6,1.3H44.4z"/>
			<path class="st16" d="M51.8,10.2h-1V6.8c0-1.3-0.5-1.9-1.4-1.9c-0.5,0-0.9,0.2-1.2,0.5s-0.5,0.8-0.5,1.4v3.4h-1v-6h1v1h0
				c0.5-0.8,1.1-1.1,2-1.1c0.7,0,1.2,0.2,1.5,0.6s0.5,1,0.5,1.8V10.2z"/>
			<path class="st16" d="M58.7,10.2h-1V6.8c0-1.3-0.5-1.9-1.4-1.9c-0.5,0-0.9,0.2-1.2,0.5s-0.5,0.8-0.5,1.4v3.4h-1V1.3h1v3.9h0
				c0.5-0.8,1.1-1.1,2-1.1c1.4,0,2,0.8,2,2.4V10.2z"/>
			<path class="st16" d="M65.3,7.5h-4.2c0,0.7,0.2,1.2,0.5,1.5s0.8,0.5,1.4,0.5c0.7,0,1.3-0.2,1.9-0.7v0.9c-0.5,0.4-1.2,0.6-2.1,0.6
				c-0.8,0-1.5-0.3-2-0.8s-0.7-1.3-0.7-2.3c0-0.9,0.3-1.7,0.8-2.3s1.2-0.9,2-0.9s1.4,0.3,1.8,0.8S65.3,6,65.3,7V7.5z M64.3,6.6
				c0-0.6-0.1-1-0.4-1.3s-0.6-0.5-1.1-0.5c-0.5,0-0.8,0.2-1.2,0.5s-0.5,0.7-0.6,1.3H64.3z"/>
			<path class="st16" d="M67.3,2.7c-0.2,0-0.3-0.1-0.4-0.2s-0.2-0.3-0.2-0.4s0.1-0.3,0.2-0.4s0.3-0.2,0.4-0.2c0.2,0,0.3,0.1,0.4,0.2
				s0.2,0.3,0.2,0.4c0,0.2-0.1,0.3-0.2,0.4S67.5,2.7,67.3,2.7z M67.8,10.2h-1v-6h1V10.2z"/>
			<path class="st16" d="M72.9,5.2C72.7,5.1,72.4,5,72.1,5c-0.4,0-0.8,0.2-1,0.6s-0.4,0.9-0.4,1.6v3.1h-1v-6h1v1.2h0
				c0.1-0.4,0.3-0.8,0.6-1s0.6-0.4,0.9-0.4c0.3,0,0.4,0,0.6,0.1V5.2z"/>
			<path class="st16" d="M76.4,10.4c-0.9,0-1.6-0.3-2.1-0.8s-0.8-1.3-0.8-2.2c0-1,0.3-1.8,0.8-2.4s1.3-0.8,2.2-0.8
				c0.9,0,1.6,0.3,2.1,0.8s0.8,1.3,0.8,2.3c0,1-0.3,1.7-0.8,2.3S77.3,10.4,76.4,10.4z M76.5,4.9c-0.6,0-1.1,0.2-1.5,0.6
				s-0.5,1-0.5,1.7c0,0.7,0.2,1.3,0.5,1.7s0.8,0.6,1.5,0.6c0.6,0,1.1-0.2,1.4-0.6s0.5-1,0.5-1.7c0-0.8-0.2-1.3-0.5-1.7
				S77.1,4.9,76.5,4.9z"/>
		</g>
	</g>
	<g>
		<g>
			<path class="st16" d="M135.8,2.7l-3.1,8.4h-1.1l-3-8.4h1.1l2.3,6.7c0.1,0.2,0.1,0.5,0.2,0.7h0c0-0.2,0.1-0.5,0.2-0.8l2.4-6.7
				H135.8z"/>
			<path class="st16" d="M137.4,3.6c-0.2,0-0.3-0.1-0.4-0.2s-0.2-0.3-0.2-0.4s0.1-0.3,0.2-0.4s0.3-0.2,0.4-0.2
				c0.2,0,0.3,0.1,0.4,0.2S138,2.8,138,3c0,0.2-0.1,0.3-0.2,0.4S137.6,3.6,137.4,3.6z M137.9,11.1h-1v-6h1V11.1z"/>
			<path class="st16" d="M139.5,10.9v-1c0.5,0.4,1.1,0.6,1.7,0.6c0.8,0,1.3-0.3,1.3-0.8c0-0.2,0-0.3-0.1-0.4s-0.2-0.2-0.3-0.3
				s-0.3-0.2-0.4-0.2s-0.3-0.1-0.5-0.2c-0.3-0.1-0.5-0.2-0.7-0.3s-0.4-0.2-0.5-0.4s-0.2-0.3-0.3-0.5s-0.1-0.4-0.1-0.6
				c0-0.3,0.1-0.5,0.2-0.7s0.3-0.4,0.5-0.5s0.5-0.3,0.7-0.3s0.6-0.1,0.9-0.1c0.5,0,1,0.1,1.4,0.3v1c-0.4-0.3-0.9-0.4-1.5-0.4
				c-0.2,0-0.3,0-0.5,0.1s-0.3,0.1-0.4,0.2s-0.2,0.2-0.2,0.3s-0.1,0.2-0.1,0.3c0,0.2,0,0.3,0.1,0.4s0.1,0.2,0.2,0.3s0.2,0.2,0.4,0.2
				s0.3,0.1,0.5,0.2c0.3,0.1,0.5,0.2,0.7,0.3c0.2,0.1,0.4,0.2,0.5,0.4s0.3,0.3,0.3,0.5s0.1,0.4,0.1,0.6c0,0.3-0.1,0.6-0.2,0.8
				s-0.3,0.4-0.5,0.5s-0.5,0.3-0.8,0.3s-0.6,0.1-0.9,0.1C140.5,11.2,139.9,11.1,139.5,10.9z"/>
			<path class="st16" d="M149.8,11.1h-1v-0.9h0c-0.4,0.7-1,1.1-1.9,1.1c-1.4,0-2.1-0.9-2.1-2.6V5.1h1v3.4c0,1.3,0.5,1.9,1.5,1.9
				c0.5,0,0.9-0.2,1.2-0.5s0.5-0.8,0.5-1.4V5.1h1V11.1z"/>
			<path class="st16" d="M156.1,11.1h-1v-0.9h0c-0.4,0.7-1,1.1-1.8,1.1c-0.6,0-1.1-0.2-1.4-0.5s-0.5-0.7-0.5-1.3c0-1.1,0.7-1.8,2-2
				l1.8-0.3c0-1-0.4-1.5-1.2-1.5c-0.7,0-1.4,0.2-2,0.7v-1c0.6-0.4,1.3-0.6,2-0.6c1.4,0,2.1,0.7,2.1,2.2V11.1z M155.1,8.1l-1.4,0.2
				c-0.4,0.1-0.8,0.2-1,0.3s-0.3,0.4-0.3,0.8c0,0.3,0.1,0.5,0.3,0.7s0.5,0.3,0.8,0.3c0.5,0,0.9-0.2,1.2-0.5s0.5-0.8,0.5-1.3V8.1z"/>
			<path class="st16" d="M158.9,11.1h-1V2.2h1V11.1z"/>
			<path class="st16" d="M163.9,10.8V9.6c0.1,0.1,0.3,0.2,0.5,0.3s0.4,0.2,0.6,0.2s0.4,0.1,0.6,0.1s0.4,0.1,0.6,0.1
				c0.6,0,1.1-0.1,1.4-0.3s0.4-0.5,0.4-1c0-0.2,0-0.4-0.1-0.6s-0.2-0.3-0.4-0.5c-0.2-0.1-0.4-0.3-0.6-0.4s-0.5-0.3-0.8-0.4
				c-0.3-0.1-0.6-0.3-0.8-0.5s-0.5-0.3-0.7-0.5s-0.3-0.4-0.4-0.6s-0.2-0.5-0.2-0.8c0-0.4,0.1-0.7,0.3-1s0.4-0.5,0.7-0.7
				s0.6-0.3,0.9-0.4s0.7-0.1,1.1-0.1c0.8,0,1.4,0.1,1.8,0.3V4c-0.5-0.3-1.1-0.5-1.9-0.5c-0.2,0-0.4,0-0.6,0.1s-0.4,0.1-0.6,0.2
				s-0.3,0.2-0.4,0.4c-0.1,0.2-0.2,0.4-0.2,0.6c0,0.2,0,0.4,0.1,0.6s0.2,0.3,0.4,0.4s0.3,0.3,0.6,0.4s0.5,0.3,0.8,0.4
				c0.3,0.1,0.6,0.3,0.9,0.5s0.5,0.3,0.7,0.5s0.4,0.4,0.5,0.7c0.1,0.2,0.2,0.5,0.2,0.8c0,0.4-0.1,0.8-0.2,1.1s-0.4,0.5-0.7,0.7
				s-0.6,0.3-1,0.4s-0.7,0.1-1.1,0.1c-0.1,0-0.3,0-0.5,0s-0.4-0.1-0.6-0.1s-0.4-0.1-0.6-0.2S164,10.8,163.9,10.8z"/>
			<path class="st16" d="M172.9,11c-0.2,0.1-0.5,0.2-0.9,0.2c-1.1,0-1.6-0.6-1.6-1.8V5.9h-1V5.1h1V3.6l1-0.3v1.8h1.5v0.8h-1.5v3.4
				c0,0.4,0.1,0.7,0.2,0.9s0.4,0.3,0.7,0.3c0.2,0,0.5-0.1,0.6-0.2V11z"/>
			<path class="st16" d="M179.1,11.1h-1v-0.9h0c-0.4,0.7-1,1.1-1.9,1.1c-1.4,0-2.1-0.9-2.1-2.6V5.1h1v3.4c0,1.3,0.5,1.9,1.5,1.9
				c0.5,0,0.9-0.2,1.2-0.5s0.5-0.8,0.5-1.4V5.1h1V11.1z"/>
			<path class="st16" d="M186.2,11.1h-1v-1h0c-0.4,0.8-1.1,1.2-2.1,1.2c-0.8,0-1.4-0.3-1.8-0.8s-0.7-1.3-0.7-2.2
				c0-1,0.3-1.8,0.8-2.4s1.2-0.9,2-0.9c0.8,0,1.4,0.3,1.8,1h0V2.2h1V11.1z M185.2,8.4V7.5c0-0.5-0.2-0.9-0.5-1.2s-0.7-0.5-1.2-0.5
				c-0.6,0-1,0.2-1.4,0.6s-0.5,1-0.5,1.8c0,0.7,0.2,1.2,0.5,1.6s0.8,0.6,1.3,0.6c0.5,0,1-0.2,1.3-0.6S185.2,9,185.2,8.4z"/>
			<path class="st16" d="M188.6,3.6c-0.2,0-0.3-0.1-0.4-0.2S188,3.1,188,3s0.1-0.3,0.2-0.4s0.3-0.2,0.4-0.2c0.2,0,0.3,0.1,0.4,0.2
				s0.2,0.3,0.2,0.4c0,0.2-0.1,0.3-0.2,0.4S188.8,3.6,188.6,3.6z M189.1,11.1h-1v-6h1V11.1z"/>
			<path class="st16" d="M193.6,11.2c-0.9,0-1.6-0.3-2.1-0.8s-0.8-1.3-0.8-2.2c0-1,0.3-1.8,0.8-2.4s1.3-0.8,2.2-0.8
				c0.9,0,1.6,0.3,2.1,0.8s0.8,1.3,0.8,2.3c0,1-0.3,1.7-0.8,2.3S194.5,11.2,193.6,11.2z M193.7,5.8c-0.6,0-1.1,0.2-1.5,0.6
				s-0.5,1-0.5,1.7c0,0.7,0.2,1.3,0.5,1.7s0.8,0.6,1.5,0.6c0.6,0,1.1-0.2,1.4-0.6s0.5-1,0.5-1.7c0-0.8-0.2-1.3-0.5-1.7
				S194.3,5.8,193.7,5.8z"/>
		</g>
	</g>
	<g>
		<g>
			<path class="st16" d="M251.4,11.1h-1.1l-0.9-2.4h-3.6l-0.8,2.4h-1.1l3.2-8.4h1L251.4,11.1z M249.1,7.9l-1.3-3.6
				c0-0.1-0.1-0.3-0.1-0.6h0c0,0.2-0.1,0.4-0.1,0.6l-1.3,3.6H249.1z"/>
			<path class="st16" d="M256.7,5.4l-3.6,4.9h3.5v0.8h-4.9v-0.3l3.6-4.9h-3.2V5.1h4.6V5.4z"/>
			<path class="st16" d="M262.8,11.1h-1v-0.9h0c-0.4,0.7-1,1.1-1.9,1.1c-1.4,0-2.1-0.9-2.1-2.6V5.1h1v3.4c0,1.3,0.5,1.9,1.5,1.9
				c0.5,0,0.9-0.2,1.2-0.5s0.5-0.8,0.5-1.4V5.1h1V11.1z"/>
			<path class="st16" d="M267.9,6.1c-0.2-0.1-0.4-0.2-0.7-0.2c-0.4,0-0.8,0.2-1,0.6s-0.4,0.9-0.4,1.6v3.1h-1v-6h1v1.2h0
				c0.1-0.4,0.3-0.8,0.6-1S267,5,267.4,5c0.3,0,0.4,0,0.6,0.1V6.1z"/>
			<path class="st16" d="M273.8,8.3h-4.2c0,0.7,0.2,1.2,0.5,1.5s0.8,0.5,1.4,0.5c0.7,0,1.3-0.2,1.9-0.7v0.9
				c-0.5,0.4-1.2,0.6-2.1,0.6c-0.8,0-1.5-0.3-2-0.8s-0.7-1.3-0.7-2.3c0-0.9,0.3-1.7,0.8-2.3s1.2-0.9,2-0.9s1.4,0.3,1.8,0.8
				s0.6,1.2,0.6,2.1V8.3z M272.8,7.5c0-0.6-0.1-1-0.4-1.3s-0.6-0.5-1.1-0.5c-0.5,0-0.8,0.2-1.2,0.5s-0.5,0.7-0.6,1.3H272.8z"/>
			<path class="st16" d="M284.8,11.1h-1.2l-1.4-2.4c-0.1-0.2-0.3-0.4-0.4-0.6s-0.2-0.3-0.4-0.4s-0.3-0.2-0.4-0.2s-0.3-0.1-0.5-0.1
				h-0.8v3.6h-1V2.7h2.5c0.4,0,0.7,0,1,0.1s0.6,0.2,0.8,0.4s0.4,0.4,0.5,0.7s0.2,0.6,0.2,1c0,0.3,0,0.6-0.1,0.8s-0.2,0.5-0.4,0.7
				s-0.4,0.4-0.6,0.5s-0.5,0.2-0.8,0.3v0c0.1,0.1,0.3,0.1,0.4,0.2s0.2,0.2,0.3,0.3s0.2,0.2,0.3,0.4c0.1,0.1,0.2,0.3,0.3,0.5
				L284.8,11.1z M279.7,3.6v3h1.3c0.2,0,0.5,0,0.7-0.1s0.4-0.2,0.5-0.3s0.3-0.3,0.4-0.5s0.1-0.4,0.1-0.7c0-0.4-0.1-0.8-0.4-1.1
				s-0.7-0.4-1.3-0.4H279.7z"/>
			<path class="st16" d="M290.3,8.3H286c0,0.7,0.2,1.2,0.5,1.5s0.8,0.5,1.4,0.5c0.7,0,1.3-0.2,1.9-0.7v0.9c-0.5,0.4-1.2,0.6-2.1,0.6
				c-0.8,0-1.5-0.3-2-0.8S285,9.1,285,8.1c0-0.9,0.3-1.7,0.8-2.3s1.2-0.9,2-0.9s1.4,0.3,1.8,0.8s0.6,1.2,0.6,2.1V8.3z M289.3,7.5
				c0-0.6-0.1-1-0.4-1.3s-0.6-0.5-1.1-0.5c-0.5,0-0.8,0.2-1.2,0.5s-0.5,0.7-0.6,1.3H289.3z"/>
			<path class="st16" d="M292.7,10.2L292.7,10.2l0,3.6h-1V5.1h1v1.1h0c0.5-0.8,1.2-1.2,2.1-1.2c0.8,0,1.4,0.3,1.8,0.8
				s0.7,1.3,0.7,2.2c0,1-0.2,1.8-0.7,2.4s-1.2,0.9-2,0.9C293.8,11.2,293.2,10.9,292.7,10.2z M292.7,7.8v0.8c0,0.5,0.2,0.9,0.5,1.3
				s0.7,0.5,1.2,0.5c0.6,0,1-0.2,1.4-0.7s0.5-1.1,0.5-1.9c0-0.7-0.2-1.2-0.5-1.6s-0.7-0.6-1.3-0.6c-0.6,0-1,0.2-1.3,0.6
				S292.7,7.2,292.7,7.8z"/>
			<path class="st16" d="M301.3,11.2c-0.9,0-1.6-0.3-2.1-0.8s-0.8-1.3-0.8-2.2c0-1,0.3-1.8,0.8-2.4s1.3-0.8,2.2-0.8
				c0.9,0,1.6,0.3,2.1,0.8s0.8,1.3,0.8,2.3c0,1-0.3,1.7-0.8,2.3S302.3,11.2,301.3,11.2z M301.4,5.8c-0.6,0-1.1,0.2-1.5,0.6
				s-0.5,1-0.5,1.7c0,0.7,0.2,1.3,0.5,1.7s0.8,0.6,1.5,0.6c0.6,0,1.1-0.2,1.4-0.6s0.5-1,0.5-1.7c0-0.8-0.2-1.3-0.5-1.7
				S302,5.8,301.4,5.8z"/>
			<path class="st16" d="M305.5,10.9v-1c0.5,0.4,1.1,0.6,1.7,0.6c0.8,0,1.3-0.3,1.3-0.8c0-0.2,0-0.3-0.1-0.4s-0.2-0.2-0.3-0.3
				s-0.3-0.2-0.4-0.2s-0.3-0.1-0.5-0.2c-0.3-0.1-0.5-0.2-0.7-0.3s-0.4-0.2-0.5-0.4s-0.2-0.3-0.3-0.5s-0.1-0.4-0.1-0.6
				c0-0.3,0.1-0.5,0.2-0.7s0.3-0.4,0.5-0.5s0.5-0.3,0.7-0.3s0.6-0.1,0.9-0.1c0.5,0,1,0.1,1.4,0.3v1c-0.4-0.3-0.9-0.4-1.5-0.4
				c-0.2,0-0.3,0-0.5,0.1S307,5.9,306.8,6s-0.2,0.2-0.2,0.3s-0.1,0.2-0.1,0.3c0,0.2,0,0.3,0.1,0.4s0.1,0.2,0.2,0.3s0.2,0.2,0.4,0.2
				s0.3,0.1,0.5,0.2c0.3,0.1,0.5,0.2,0.7,0.3c0.2,0.1,0.4,0.2,0.5,0.4s0.3,0.3,0.3,0.5s0.1,0.4,0.1,0.6c0,0.3-0.1,0.6-0.2,0.8
				s-0.3,0.4-0.5,0.5s-0.5,0.3-0.8,0.3s-0.6,0.1-0.9,0.1C306.5,11.2,306,11.1,305.5,10.9z"/>
		</g>
	</g>
	<g>
		<path class="st16" d="M353.1,11.1H352l-0.9-2.4h-3.6l-0.8,2.4h-1.1l3.2-8.4h1L353.1,11.1z M350.8,7.9l-1.3-3.6
			c0-0.1-0.1-0.3-0.1-0.6h0c0,0.2-0.1,0.4-0.1,0.6l-1.3,3.6H350.8z"/>
		<path class="st16" d="M358.4,5.4l-3.6,4.9h3.5v0.8h-4.9v-0.3l3.6-4.9h-3.2V5.1h4.6V5.4z"/>
		<path class="st16" d="M364.6,11.1h-1v-0.9h0c-0.4,0.7-1,1.1-1.9,1.1c-1.4,0-2.1-0.9-2.1-2.6V5.1h1v3.4c0,1.3,0.5,1.9,1.5,1.9
			c0.5,0,0.9-0.2,1.2-0.5s0.5-0.8,0.5-1.4V5.1h1V11.1z"/>
		<path class="st16" d="M369.6,6.1c-0.2-0.1-0.4-0.2-0.7-0.2c-0.4,0-0.8,0.2-1,0.6s-0.4,0.9-0.4,1.6v3.1h-1v-6h1v1.2h0
			c0.1-0.4,0.3-0.8,0.6-1s0.6-0.4,0.9-0.4c0.3,0,0.4,0,0.6,0.1V6.1z"/>
		<path class="st16" d="M375.5,8.3h-4.2c0,0.7,0.2,1.2,0.5,1.5s0.8,0.5,1.4,0.5c0.7,0,1.3-0.2,1.9-0.7v0.9c-0.5,0.4-1.2,0.6-2.1,0.6
			c-0.8,0-1.5-0.3-2-0.8s-0.7-1.3-0.7-2.3c0-0.9,0.3-1.7,0.8-2.3s1.2-0.9,2-0.9s1.4,0.3,1.8,0.8s0.6,1.2,0.6,2.1V8.3z M374.5,7.5
			c0-0.6-0.1-1-0.4-1.3s-0.6-0.5-1.1-0.5c-0.5,0-0.8,0.2-1.2,0.5s-0.5,0.7-0.6,1.3H374.5z"/>
		<path class="st16" d="M385.4,3.6H383v7.5h-1V3.6h-2.4V2.7h5.8V3.6z"/>
		<path class="st16" d="M390.3,8.3H386c0,0.7,0.2,1.2,0.5,1.5s0.8,0.5,1.4,0.5c0.7,0,1.3-0.2,1.9-0.7v0.9c-0.5,0.4-1.2,0.6-2.1,0.6
			c-0.8,0-1.5-0.3-2-0.8s-0.7-1.3-0.7-2.3c0-0.9,0.3-1.7,0.8-2.3s1.2-0.9,2-0.9s1.4,0.3,1.8,0.8s0.6,1.2,0.6,2.1V8.3z M389.3,7.5
			c0-0.6-0.1-1-0.4-1.3s-0.6-0.5-1.1-0.5c-0.5,0-0.8,0.2-1.2,0.5s-0.5,0.7-0.6,1.3H389.3z"/>
		<path class="st16" d="M391.4,10.9v-1c0.5,0.4,1.1,0.6,1.7,0.6c0.8,0,1.3-0.3,1.3-0.8c0-0.2,0-0.3-0.1-0.4S394.1,9,394,8.9
			s-0.3-0.2-0.4-0.2s-0.3-0.1-0.5-0.2c-0.3-0.1-0.5-0.2-0.7-0.3s-0.4-0.2-0.5-0.4s-0.2-0.3-0.3-0.5s-0.1-0.4-0.1-0.6
			c0-0.3,0.1-0.5,0.2-0.7s0.3-0.4,0.5-0.5s0.5-0.3,0.7-0.3s0.6-0.1,0.9-0.1c0.5,0,1,0.1,1.4,0.3v1c-0.4-0.3-0.9-0.4-1.5-0.4
			c-0.2,0-0.3,0-0.5,0.1s-0.3,0.1-0.4,0.2s-0.2,0.2-0.2,0.3s-0.1,0.2-0.1,0.3c0,0.2,0,0.3,0.1,0.4s0.1,0.2,0.2,0.3s0.2,0.2,0.4,0.2
			s0.3,0.1,0.5,0.2c0.3,0.1,0.5,0.2,0.7,0.3c0.2,0.1,0.4,0.2,0.5,0.4s0.3,0.3,0.3,0.5s0.1,0.4,0.1,0.6c0,0.3-0.1,0.6-0.2,0.8
			s-0.3,0.4-0.5,0.5s-0.5,0.3-0.8,0.3s-0.6,0.1-0.9,0.1C392.4,11.2,391.8,11.1,391.4,10.9z"/>
		<path class="st16" d="M399.7,11c-0.2,0.1-0.5,0.2-0.9,0.2c-1.1,0-1.6-0.6-1.6-1.8V5.9h-1V5.1h1V3.6l1-0.3v1.8h1.5v0.8h-1.5v3.4
			c0,0.4,0.1,0.7,0.2,0.9s0.4,0.3,0.7,0.3c0.2,0,0.5-0.1,0.6-0.2V11z"/>
		<path class="st16" d="M405.4,7.9v3.2h-1V2.7h2.3c0.9,0,1.6,0.2,2.1,0.7s0.7,1.1,0.7,1.9s-0.3,1.4-0.8,2s-1.3,0.8-2.2,0.8H405.4z
			 M405.4,3.6V7h1c0.7,0,1.2-0.2,1.6-0.5s0.5-0.7,0.5-1.3c0-1.1-0.7-1.7-2-1.7H405.4z"/>
		<path class="st16" d="M412,11.1h-1V2.2h1V11.1z"/>
		<path class="st16" d="M418.2,11.1h-1v-0.9h0c-0.4,0.7-1,1.1-1.8,1.1c-0.6,0-1.1-0.2-1.4-0.5s-0.5-0.7-0.5-1.3c0-1.1,0.7-1.8,2-2
			l1.8-0.3c0-1-0.4-1.5-1.2-1.5c-0.7,0-1.4,0.2-2,0.7v-1c0.6-0.4,1.3-0.6,2-0.6c1.4,0,2.1,0.7,2.1,2.2V11.1z M417.3,8.1l-1.4,0.2
			c-0.4,0.1-0.8,0.2-1,0.3s-0.3,0.4-0.3,0.8c0,0.3,0.1,0.5,0.3,0.7s0.5,0.3,0.8,0.3c0.5,0,0.9-0.2,1.2-0.5s0.5-0.8,0.5-1.3V8.1z"/>
		<path class="st16" d="M425.1,11.1h-1V7.7c0-1.3-0.5-1.9-1.4-1.9c-0.5,0-0.9,0.2-1.2,0.5S421,7.1,421,7.7v3.4h-1v-6h1v1h0
			c0.5-0.8,1.1-1.1,2-1.1c0.7,0,1.2,0.2,1.5,0.6s0.5,1,0.5,1.8V11.1z"/>
		<path class="st16" d="M426.5,10.9v-1c0.5,0.4,1.1,0.6,1.7,0.6c0.8,0,1.3-0.3,1.3-0.8c0-0.2,0-0.3-0.1-0.4s-0.2-0.2-0.3-0.3
			s-0.3-0.2-0.4-0.2s-0.3-0.1-0.5-0.2c-0.3-0.1-0.5-0.2-0.7-0.3s-0.4-0.2-0.5-0.4s-0.2-0.3-0.3-0.5s-0.1-0.4-0.1-0.6
			c0-0.3,0.1-0.5,0.2-0.7s0.3-0.4,0.5-0.5s0.5-0.3,0.7-0.3s0.6-0.1,0.9-0.1c0.5,0,1,0.1,1.4,0.3v1c-0.4-0.3-0.9-0.4-1.5-0.4
			c-0.2,0-0.3,0-0.5,0.1S428,5.9,427.9,6s-0.2,0.2-0.2,0.3s-0.1,0.2-0.1,0.3c0,0.2,0,0.3,0.1,0.4s0.1,0.2,0.2,0.3s0.2,0.2,0.4,0.2
			s0.3,0.1,0.5,0.2c0.3,0.1,0.5,0.2,0.7,0.3c0.2,0.1,0.4,0.2,0.5,0.4s0.3,0.3,0.3,0.5s0.1,0.4,0.1,0.6c0,0.3-0.1,0.6-0.2,0.8
			s-0.3,0.4-0.5,0.5s-0.5,0.3-0.8,0.3s-0.6,0.1-0.9,0.1C427.5,11.2,427,11.1,426.5,10.9z"/>
	</g>
	<g>
		<path class="st16" d="M470.5,11.3h-1.1l-0.9-2.4H465l-0.8,2.4h-1.1l3.2-8.4h1L470.5,11.3z M468.2,8l-1.3-3.6
			c0-0.1-0.1-0.3-0.1-0.6h0c0,0.2-0.1,0.4-0.1,0.6L465.3,8H468.2z"/>
		<path class="st16" d="M475.9,5.5l-3.6,4.9h3.5v0.8h-4.9V11l3.6-4.9h-3.2V5.3h4.6V5.5z"/>
		<path class="st16" d="M482,11.3h-1v-0.9h0c-0.4,0.7-1,1.1-1.9,1.1c-1.4,0-2.1-0.9-2.1-2.6V5.3h1v3.4c0,1.3,0.5,1.9,1.5,1.9
			c0.5,0,0.9-0.2,1.2-0.5s0.5-0.8,0.5-1.4V5.3h1V11.3z"/>
		<path class="st16" d="M487.1,6.2c-0.2-0.1-0.4-0.2-0.7-0.2c-0.4,0-0.8,0.2-1,0.6s-0.4,0.9-0.4,1.6v3.1h-1v-6h1v1.2h0
			c0.1-0.4,0.3-0.8,0.6-1s0.6-0.4,0.9-0.4c0.3,0,0.4,0,0.6,0.1V6.2z"/>
		<path class="st16" d="M493,8.5h-4.2c0,0.7,0.2,1.2,0.5,1.5s0.8,0.5,1.4,0.5c0.7,0,1.3-0.2,1.9-0.7v0.9c-0.5,0.4-1.2,0.6-2.1,0.6
			c-0.8,0-1.5-0.3-2-0.8s-0.7-1.3-0.7-2.3c0-0.9,0.3-1.7,0.8-2.3s1.2-0.9,2-0.9s1.4,0.3,1.8,0.8S493,7.1,493,8V8.5z M492,7.7
			c0-0.6-0.1-1-0.4-1.3s-0.6-0.5-1.1-0.5c-0.5,0-0.8,0.2-1.2,0.5s-0.5,0.7-0.6,1.3H492z"/>
		<path class="st16" d="M498.9,8.1v3.2h-1V2.9h2.3c0.9,0,1.6,0.2,2.1,0.7s0.7,1.1,0.7,1.9s-0.3,1.4-0.8,2s-1.3,0.8-2.2,0.8H498.9z
			 M498.9,3.8v3.4h1c0.7,0,1.2-0.2,1.6-0.5S502,6,502,5.4c0-1.1-0.7-1.7-2-1.7H498.9z"/>
		<path class="st16" d="M505,3.7c-0.2,0-0.3-0.1-0.4-0.2s-0.2-0.3-0.2-0.4s0.1-0.3,0.2-0.4s0.3-0.2,0.4-0.2c0.2,0,0.3,0.1,0.4,0.2
			s0.2,0.3,0.2,0.4c0,0.2-0.1,0.3-0.2,0.4S505.2,3.7,505,3.7z M505.5,11.3h-1v-6h1V11.3z"/>
		<path class="st16" d="M508.4,10.4L508.4,10.4l0,3.6h-1V5.3h1v1.1h0c0.5-0.8,1.2-1.2,2.1-1.2c0.8,0,1.4,0.3,1.8,0.8
			s0.7,1.3,0.7,2.2c0,1-0.2,1.8-0.7,2.4s-1.2,0.9-2,0.9C509.4,11.4,508.8,11.1,508.4,10.4z M508.4,8v0.8c0,0.5,0.2,0.9,0.5,1.3
			s0.7,0.5,1.2,0.5c0.6,0,1-0.2,1.4-0.7s0.5-1.1,0.5-1.9c0-0.7-0.2-1.2-0.5-1.6s-0.7-0.6-1.3-0.6c-0.6,0-1,0.2-1.3,0.6
			S508.4,7.4,508.4,8z"/>
		<path class="st16" d="M519.3,8.5h-4.2c0,0.7,0.2,1.2,0.5,1.5s0.8,0.5,1.4,0.5c0.7,0,1.3-0.2,1.9-0.7v0.9c-0.5,0.4-1.2,0.6-2.1,0.6
			c-0.8,0-1.5-0.3-2-0.8s-0.7-1.3-0.7-2.3c0-0.9,0.3-1.7,0.8-2.3s1.2-0.9,2-0.9s1.4,0.3,1.8,0.8s0.6,1.2,0.6,2.1V8.5z M518.3,7.7
			c0-0.6-0.1-1-0.4-1.3s-0.6-0.5-1.1-0.5c-0.5,0-0.8,0.2-1.2,0.5s-0.5,0.7-0.6,1.3H518.3z"/>
		<path class="st16" d="M521.8,11.3h-1V2.4h1V11.3z"/>
		<path class="st16" d="M524.2,3.7c-0.2,0-0.3-0.1-0.4-0.2s-0.2-0.3-0.2-0.4s0.1-0.3,0.2-0.4s0.3-0.2,0.4-0.2c0.2,0,0.3,0.1,0.4,0.2
			s0.2,0.3,0.2,0.4c0,0.2-0.1,0.3-0.2,0.4S524.4,3.7,524.2,3.7z M524.7,11.3h-1v-6h1V11.3z"/>
		<path class="st16" d="M531.6,11.3h-1V7.8c0-1.3-0.5-1.9-1.4-1.9c-0.5,0-0.9,0.2-1.2,0.5s-0.5,0.8-0.5,1.4v3.4h-1v-6h1v1h0
			c0.5-0.8,1.1-1.1,2-1.1c0.7,0,1.2,0.2,1.5,0.6s0.5,1,0.5,1.8V11.3z"/>
		<path class="st16" d="M538.3,8.5h-4.2c0,0.7,0.2,1.2,0.5,1.5s0.8,0.5,1.4,0.5c0.7,0,1.3-0.2,1.9-0.7v0.9c-0.5,0.4-1.2,0.6-2.1,0.6
			c-0.8,0-1.5-0.3-2-0.8s-0.7-1.3-0.7-2.3c0-0.9,0.3-1.7,0.8-2.3s1.2-0.9,2-0.9s1.4,0.3,1.8,0.8s0.6,1.2,0.6,2.1V8.5z M537.3,7.7
			c0-0.6-0.1-1-0.4-1.3s-0.6-0.5-1.1-0.5c-0.5,0-0.8,0.2-1.2,0.5s-0.5,0.7-0.6,1.3H537.3z"/>
		<path class="st16" d="M539.4,11v-1c0.5,0.4,1.1,0.6,1.7,0.6c0.8,0,1.3-0.3,1.3-0.8c0-0.2,0-0.3-0.1-0.4S542.1,9.1,542,9
			s-0.3-0.2-0.4-0.2s-0.3-0.1-0.5-0.2c-0.3-0.1-0.5-0.2-0.7-0.3s-0.4-0.2-0.5-0.4c-0.1-0.1-0.2-0.3-0.3-0.5s-0.1-0.4-0.1-0.6
			c0-0.3,0.1-0.5,0.2-0.7s0.3-0.4,0.5-0.5s0.5-0.3,0.7-0.3s0.6-0.1,0.9-0.1c0.5,0,1,0.1,1.4,0.3v1c-0.4-0.3-0.9-0.4-1.5-0.4
			c-0.2,0-0.3,0-0.5,0.1s-0.3,0.1-0.4,0.2s-0.2,0.2-0.2,0.3s-0.1,0.2-0.1,0.3c0,0.2,0,0.3,0.1,0.4s0.1,0.2,0.2,0.3s0.2,0.2,0.4,0.2
			s0.3,0.1,0.5,0.2c0.3,0.1,0.5,0.2,0.7,0.3s0.4,0.2,0.5,0.4s0.3,0.3,0.3,0.5s0.1,0.4,0.1,0.6c0,0.3-0.1,0.6-0.2,0.8
			s-0.3,0.4-0.5,0.5s-0.5,0.3-0.8,0.3s-0.6,0.1-0.9,0.1C540.4,11.4,539.9,11.3,539.4,11z"/>
	</g>
	<g>
	</g>
	<g>
	</g>
	<g>
	</g>
	<g>
	</g>
	<g>
	</g>
	<g>
	</g>
	<g>
	</g>
	<g>
	</g>
	<g>
	</g>
	<g>
	</g>
	<g>
	</g>
	<g>
	</g>
	<g>
	</g>
	<g>
	</g>
	<g>
	</g>
	<g>
	</g>
	<g>
	</g>
	<g>
	</g>
	<g>
	</g>
	<g>
	</g>
	<g>
	</g>
	<g>
	</g>
	<g>
	</g>
	<g>
	</g>
	<g>
	</g>
	<g>
	</g>
	<g>
	</g>
	<g>
	</g>
	<g>
	</g>
	<g>
	</g>
	<g>
	</g>
	<g>
	</g>
	<g>
	</g>
	<g>
	</g>
	<g>
	</g>
	<g>
	</g>
	<g>
	</g>
	<g>
	</g>
	<g>
	</g>
	<g>
	</g>
	<g>
	</g>
	<g>
	</g>
	<g>
	</g>
	<g>
	</g>
	<g>
	</g>
	<g>
	</g>
	<g>
	</g>
	<g>
	</g>
	<g>
	</g>
	<g>
	</g>
	<g>
	</g>
	<g>
	</g>
	<g>
	</g>
	<g>
	</g>
	<g>
	</g>
	<g>
	</g>
	<g>
	</g>
	<g>
	</g>
	<g>
	</g>
	<g>
	</g>
	<g>
	</g>
	<g>
	</g>
	<g>
	</g>
</g>
</svg>
