<svg xmlns="http://www.w3.org/2000/svg" viewBox="0 0 751 266.87"><defs><style>.cls-1{fill:none;stroke:#afafaf;stroke-miterlimit:10;stroke-width:6px;}.cls-2{fill:#afafaf;}.cls-3{fill:#3fa0ec;}.cls-4{font-size:18px;}.cls-4,.cls-5{fill:#fff;font-family:ArialMT, Arial;}.cls-5{font-size:18.04px;}.cls-6{letter-spacing:-0.02em;}.cls-7{letter-spacing:-0.11em;}</style></defs><title>OJ103514635</title><g id="Shapes"><line class="cls-1" x1="102" y1="152" x2="132.24" y2="152"/><polygon class="cls-2" points="130.05 159.48 143 152 130.05 144.52 130.05 159.48"/><line class="cls-1" x1="105" y1="56.86" x2="132.24" y2="56.86"/><polygon class="cls-2" points="130.05 64.34 143 56.86 130.05 49.38 130.05 64.34"/><line class="cls-1" x1="616" y1="104.87" x2="646.23" y2="104.88"/><polygon class="cls-2" points="644.04 112.35 657 104.88 644.05 97.39 644.04 112.35"/><line class="cls-1" x1="446" y1="169.82" x2="646.24" y2="169.22"/><polygon class="cls-2" points="644.07 176.71 657 169.19 644.02 161.75 644.07 176.71"/><line class="cls-1" x1="451" y1="134.18" x2="467.22" y2="134.18"/><polygon class="cls-2" points="465.03 141.66 477.99 134.18 465.03 126.7 465.03 141.66"/><line class="cls-1" x1="446" y1="39.05" x2="646.24" y2="39.64"/><polygon class="cls-2" points="644.02 47.11 657 39.68 644.07 32.15 644.02 47.11"/><line class="cls-1" x1="451" y1="74.68" x2="467.22" y2="74.68"/><polygon class="cls-2" points="465.03 82.16 477.99 74.68 465.03 67.2 465.03 82.16"/><rect class="cls-3" x="142.5" y="118.64" width="162" height="67" rx="8" ry="8"/><rect class="cls-3" x="308.5" y="118.36" width="143" height="67" rx="8" ry="8"/><rect class="cls-3" x="308.5" y="23.36" width="143" height="67" rx="8" ry="8"/><rect class="cls-3" x="142.5" y="23.36" width="162" height="67" rx="8" ry="8"/><rect class="cls-3" x="657" width="94" height="209" rx="8" ry="8"/><rect class="cls-3" width="105" height="209" rx="8" ry="8"/><rect class="cls-3" y="217.87" width="751" height="49" rx="8" ry="8"/><rect class="cls-3" x="478.75" y="52.5" width="144" height="104" rx="8" ry="8"/></g><g id="txt"><text class="cls-4" transform="translate(320.93 246.32)">Orquestração</text><text class="cls-5" transform="translate(484.88 87.48)">Armazenamento <tspan x="27.57" y="21.65">de Dados </tspan><tspan x="27.07" y="43.3">Analíticos</tspan></text><text class="cls-5" transform="translate(666.57 100.45)">Análise e <tspan x="1.01" y="21.65">Relatório</tspan></text><text class="cls-4" transform="translate(318.47 49.81)">Processamento <tspan x="25.51" y="21.6">em Lotes</tspan></text><text class="cls-4" transform="translate(319.27 145.12)">Processamento <tspan x="28.01" y="21.6">de Fluxo</tspan></text><text class="cls-4" transform="translate(190.13 135.06)">Ingestão <tspan x="-22.5" y="21.6">de Mensagem </tspan><tspan x="-28.34" y="43.2">em</tspan><tspan class="cls-6" x="-3.33" y="43.2"> </tspan><tspan class="cls-7" x="1.34" y="43.2">T</tspan><tspan x="10.34" y="43.2">empo Real</tspan></text><text class="cls-4" transform="translate(156.12 49.38)">Armazenamento <tspan x="30.01" y="21.6">de Dados</tspan></text><text class="cls-4" transform="translate(24.99 100.1)">Fontes <tspan x="-11.01" y="21.6">de Dados</tspan></text></g></svg>