<svg xmlns="http://www.w3.org/2000/svg" viewBox="0 0 438.01 325"><defs><style>.cls-1{fill:none;stroke:#afafaf;stroke-miterlimit:10;stroke-width:6px;}.cls-2{fill:#afafaf;}.cls-3{fill:#3fa0ec;}.cls-4{fill:#8fb6cc;}.cls-5{fill:#2a3282;}.cls-12,.cls-6,.cls-8{fill:#fff;}.cls-10,.cls-11,.cls-7,.cls-8,.cls-9{isolation:isolate;}.cls-7{font-size:14.87px;fill:#213d47;}.cls-11,.cls-12,.cls-13,.cls-7,.cls-8,.cls-9{font-family:ArialMT, Arial;}.cls-12,.cls-8{font-size:18px;}.cls-11,.cls-13,.cls-9{font-size:18.04px;fill:#0070c0;}.cls-11{letter-spacing:-0.03em;}</style></defs><title>OJ103514692</title><g id="Shapes"><line class="cls-1" x1="89.46" y1="232.67" x2="335" y2="228.83"/><polygon class="cls-2" points="91.76 240.11 78.7 232.83 91.54 225.16 91.76 240.11"/><line class="cls-1" x1="356" y1="71.19" x2="356" y2="185.43"/><polygon class="cls-2" points="348.52 183.24 356 196.19 363.48 183.24 348.52 183.24"/><rect class="cls-3" x="114.06" y="195" width="115.75" height="71.66" rx="8" ry="8"/><line class="cls-1" x1="76" y1="37.83" x2="321.54" y2="33.99"/><polygon class="cls-2" points="319.46 41.5 332.3 33.83 319.24 26.54 319.46 41.5"/><path class="cls-4" d="M68,4.19a4,4,0,0,1,4,4v250a4,4,0,0,1-4,4H8a4,4,0,0,1-4-4V8.19a4,4,0,0,1,4-4H68m0-4H8a8,8,0,0,0-8,8v250a8,8,0,0,0,8,8H68a8,8,0,0,0,8-8V8.19A8,8,0,0,0,68,.19Z"/><rect class="cls-3" x="114.06" width="115.75" height="71.66" rx="8" ry="8"/><path class="cls-5" d="M330.16,49V59.19c0,4.76,9.53,10.06,22.07,11h8.29c12.54-.89,22.07-5.11,22.07-10.06V11.93c0-5.3-11.84-10.42-26.32-10.42s-26.13,4.76-26.13,10.25V49Z"/><ellipse class="cls-6" cx="356.36" cy="11.67" rx="20.5" ry="6.5"/><path class="cls-5" d="M330.16,244v10.23c0,4.76,9.53,10.06,22.07,11h8.29c12.54-.89,22.07-5.11,22.07-10.06v-48.2c0-5.3-11.84-10.42-26.32-10.42s-26.13,4.76-26.13,10.25V244Z"/><ellipse class="cls-6" cx="356.36" cy="206.67" rx="20.5" ry="6.5"/><rect class="cls-3" x="302.39" y="102.1" width="107.94" height="49.19" rx="8" ry="8"/></g><g id="txt"><text class="cls-7" transform="translate(15.22 131.65)">Cliente</text><text class="cls-8" transform="translate(327.65 130.64)">Evento</text><text class="cls-9" transform="translate(236.89 20.61)">Gravação</text><g class="cls-10"><text class="cls-11" transform="translate(250.3 213.61)">Leitura</text></g><text class="cls-9" transform="translate(367.57 179.61)">Atualizar</text><text class="cls-12" transform="translate(129.22 29.39)">Modelo de <tspan x="3.01" y="21.6">Comando</tspan></text><text class="cls-12" transform="translate(130.22 223.97)">Modelo de <tspan x="6.51" y="21.6">Consulta</tspan></text><text class="cls-13" transform="translate(322.91 288)">Exibição <tspan x="-19.55" y="21.65">Materializada</tspan></text></g></svg>