<svg xmlns="http://www.w3.org/2000/svg" viewBox="0 0 678 212.1"><defs><style>.cls-1{fill:none;stroke:#afafaf;stroke-miterlimit:10;stroke-width:6px;}.cls-2{fill:#afafaf;}.cls-3{fill:#3fa0ec;}.cls-4,.cls-5{isolation:isolate;fill:#fff;font-family:ArialMT, Arial;}.cls-4{font-size:18px;}.cls-5{font-size:17.98px;}</style></defs><title>OJ103514666</title><g id="Shapes"><line class="cls-1" x1="191.53" y1="105.95" x2="234.77" y2="105.95"/><polygon class="cls-2" points="232.58 113.43 245.53 105.95 232.58 98.47 232.58 113.43"/><rect class="cls-3" x="496" width="182" height="60.1" rx="8" ry="8"/><rect class="cls-3" x="496" y="76" width="182" height="60.1" rx="8" ry="8"/><rect class="cls-3" x="496" y="152" width="182" height="60.1" rx="8" ry="8"/><line class="cls-1" x1="432.53" y1="105.95" x2="485.77" y2="105.95"/><polygon class="cls-2" points="483.58 113.42 496.53 105.94 483.58 98.47 483.58 113.42"/><line class="cls-1" x1="432.53" y1="105.95" x2="488.44" y2="42.05"/><polygon class="cls-2" points="492.63 48.62 495.53 33.95 481.37 38.77 492.63 48.62"/><line class="cls-1" x1="432.53" y1="105.95" x2="488.66" y2="173.66"/><polygon class="cls-2" points="481.51 176.75 495.53 181.95 493.02 167.2 481.51 176.75"/><rect class="cls-3" y="76" width="192" height="60.1" rx="8" ry="8"/><rect class="cls-3" x="245.23" y="86.05" width="187.53" height="40" rx="8" ry="8"/></g><g id="txt"><text class="cls-4" transform="translate(531.09 24)">Consumidores <tspan x="20" y="21.6">do Evento</tspan></text><text class="cls-4" transform="translate(531.09 100)">Consumidores <tspan x="20" y="21.6">do Evento</tspan></text><text class="cls-4" transform="translate(531.09 176)">Consumidores <tspan x="20" y="21.6">do Evento</tspan></text><text class="cls-5" transform="translate(10.42 110.01)">Produtores de evento</text><text class="cls-4" transform="translate(257.91 110)">Ingestão de Eventos</text></g></svg>