<svg xmlns="http://www.w3.org/2000/svg" viewBox="0 0 786 353.13"><defs><style>.cls-1,.cls-3{fill:none;stroke:#afafaf;stroke-width:6px;}.cls-1{stroke-miterlimit:10;}.cls-2{fill:#afafaf;}.cls-3{stroke-linejoin:bevel;}.cls-4{fill:#3fa0ec;}.cls-5{fill:#8fb6cc;}.cls-6,.cls-7,.cls-9{isolation:isolate;}.cls-6,.cls-9{font-size:18px;}.cls-6{fill:#213d47;}.cls-10,.cls-6,.cls-7,.cls-9{font-family:ArialMT, Arial;}.cls-7{font-size:17.97px;}.cls-10,.cls-7,.cls-9{fill:#fff;}.cls-8{letter-spacing:-0.04em;}.cls-10{font-size:18.04px;}.cls-11{letter-spacing:-0.02em;}.cls-12{letter-spacing:-0.04em;}</style></defs><title>OJ103514636</title><g id="Shapes"><line class="cls-1" x1="581.76" y1="209.38" x2="681" y2="209.38"/><polygon class="cls-2" points="583.95 216.86 571 209.38 583.95 201.9 583.95 216.86"/><line class="cls-1" x1="558" y1="36.38" x2="670.24" y2="36.38"/><polygon class="cls-2" points="668.05 43.86 681 36.38 668.05 28.9 668.05 43.86"/><line class="cls-1" x1="557" y1="109.38" x2="670.24" y2="110.31"/><polygon class="cls-2" points="668 117.77 681 110.38 668.1 102.81 668 117.77"/><line class="cls-3" x1="557" y1="272.87" x2="671.23" y2="272.7"/><polygon class="cls-2" points="669.05 280.18 682 272.68 669.04 265.22 669.05 280.18"/><line class="cls-1" x1="581.76" y1="143.38" x2="681" y2="143.38"/><polygon class="cls-2" points="583.95 150.86 571 143.38 583.95 135.9 583.95 150.86"/><line class="cls-1" x1="290" y1="272.38" x2="434.24" y2="272.38"/><polygon class="cls-2" points="432.05 279.86 445 272.38 432.05 264.9 432.05 279.86"/><rect class="cls-4" x="206.5" y="0.38" width="84" height="352.75" rx="8" ry="8"/><rect class="cls-4" x="444.75" width="126" height="186" rx="8" ry="8"/><rect class="cls-4" x="444.75" y="193.78" width="126" height="158" rx="8" ry="8"/><rect class="cls-4" x="304.75" y="242.73" width="115.75" height="60.1" rx="8" ry="8"/><rect class="cls-4" x="603" y="121.38" width="61.75" height="109" rx="8" ry="8"/><line class="cls-1" x1="290" y1="72.38" x2="434.24" y2="73.32"/><polygon class="cls-2" points="432.01 80.79 445 73.38 432.09 65.83 432.01 80.79"/><rect class="cls-4" x="681" width="105" height="73" rx="8" ry="8"/><rect class="cls-4" x="681" y="81.78" width="105" height="270" rx="8" ry="8"/><rect class="cls-4" x="110.25" y="83.88" width="62" height="185.75" rx="8" ry="8"/><line class="cls-1" x1="172" y1="176.76" x2="195.24" y2="176.76"/><polygon class="cls-2" points="193.05 184.24 206 176.76 193.05 169.28 193.05 184.24"/><path class="cls-5" d="M68,4.38a4,4,0,0,1,4,4v335a4,4,0,0,1-4,4H8a4,4,0,0,1-4-4V8.38a4,4,0,0,1,4-4H68m0-4H8a8,8,0,0,0-8,8v335a8,8,0,0,0,8,8H68a8,8,0,0,0,8-8V8.38A8,8,0,0,0,68,.38Z"/><line class="cls-1" x1="76" y1="176.76" x2="99.24" y2="176.76"/><polygon class="cls-2" points="97.05 184.24 110 176.76 97.05 169.28 97.05 184.24"/></g><g id="txt"><text class="cls-6" transform="translate(9.2 179.85)">Cliente</text><text class="cls-7" transform="translate(124.21 180.71) scale(0.97 1)"><tspan class="cls-8">W</tspan><tspan x="16.29" y="0">AF</tspan></text><text class="cls-9" transform="translate(608.86 179.71)">Cache</text><text class="cls-10" transform="translate(214.56 169.74)">Camada <tspan x="3.17" y="21.65">da </tspan><tspan class="cls-11" x="28.25" y="21.65">W</tspan><tspan x="44.95" y="21.65">eb</tspan></text><text class="cls-9" transform="translate(317.1 276.59)">Mensagens</text><text class="cls-10" transform="translate(473.66 86.24)">Camada <tspan x="-18.55" y="21.65">Intermediária </tspan><tspan x="29.08" y="43.3">1</tspan></text><text class="cls-10" transform="translate(472.66 266.89)">Camada <tspan x="-18.55" y="21.65">Intermediária </tspan><tspan x="29.08" y="43.3">2</tspan></text><text class="cls-10" transform="translate(705.42 29.62)">Serviço <tspan x="-1.51" y="21.65">Remoto</tspan></text><text class="cls-10" transform="translate(714.45 220.41)">Data<tspan class="cls-12" x="3.85" y="21.65">T</tspan><tspan x="14.2" y="21.65">ier</tspan></text></g></svg>